<svg width="120" height="35" viewBox="0 0 120 35" fill="none" xmlns="http://www.w3.org/2000/svg">
<g clip-path="url(#clip0_37_1512)">
<path d="M119.333 30.579C119.333 32.3909 117.806 33.8586 115.916 33.8586H4.08825C2.19963 33.8586 0.666626 32.3909 0.666626 30.579V4.42546C0.666626 2.61441 2.19963 1.1416 4.08825 1.1416H115.915C117.806 1.1416 119.332 2.61441 119.332 4.42546L119.333 30.579Z" fill="black"/>
<path d="M115.556 1.18106C117.613 1.18106 119.288 2.78225 119.288 4.75V30.25C119.288 32.2178 117.613 33.8189 115.556 33.8189H4.44444C2.38667 33.8189 0.712222 32.2178 0.712222 30.25V4.75C0.712222 2.78225 2.38667 1.18106 4.44444 1.18106H115.556ZM115.556 0.5H4.44444C2.00111 0.5 0 2.41356 0 4.75V30.25C0 32.5864 2.00111 34.5 4.44444 34.5H115.556C117.999 34.5 120 32.5864 120 30.25V4.75C120 2.41356 117.999 0.5 115.556 0.5Z" fill="#A6A6A6"/>
<path d="M26.7804 17.3163C26.7547 14.5767 29.1262 13.2439 29.2347 13.1819C27.8916 11.3093 25.8098 11.0535 25.0782 11.0331C23.3298 10.8571 21.6338 12.0335 20.7431 12.0335C19.8347 12.0335 18.4631 11.0501 16.9849 11.079C15.0827 11.107 13.3031 12.1602 12.3271 13.7956C10.3129 17.1301 11.8151 22.0304 13.7449 24.7257C14.7102 26.0458 15.8382 27.5197 17.3147 27.4678C18.7591 27.4109 19.2987 26.5872 21.0418 26.5872C22.7689 26.5872 23.2755 27.4678 24.7813 27.4347C26.3315 27.4109 27.3075 26.1087 28.2391 24.7767C29.3547 23.2637 29.8027 21.7737 29.8204 21.6972C29.784 21.6853 26.8098 20.5998 26.7804 17.3163Z" fill="white"/>
<path d="M23.9361 9.25983C24.713 8.33078 25.2445 7.06683 25.097 5.78418C23.9725 5.83178 22.5663 6.52793 21.7565 7.43658C21.0401 8.23728 20.4001 9.54968 20.5654 10.7839C21.8285 10.874 23.1254 10.1744 23.9361 9.25983Z" fill="white"/>
<path d="M43.6 9.0074C43.6 10.0078 43.2862 10.761 42.6596 11.2667C42.0791 11.7334 41.2542 11.9671 40.1858 11.9671C39.656 11.9671 39.2027 11.945 38.8231 11.9008V6.43445C39.3182 6.35795 39.8516 6.31885 40.4276 6.31885C41.4453 6.31885 42.2125 6.5305 42.7298 6.9538C43.3093 7.43235 43.6 8.1166 43.6 9.0074ZM42.6178 9.03205C42.6178 8.3835 42.4382 7.88625 42.0791 7.53945C41.72 7.1935 41.1956 7.0201 40.5049 7.0201C40.2116 7.0201 39.9618 7.0388 39.7547 7.0779V11.2336C39.8693 11.2506 40.0791 11.2582 40.384 11.2582C41.0969 11.2582 41.6471 11.0687 42.0347 10.6896C42.4222 10.3104 42.6178 9.75795 42.6178 9.03205Z" fill="white"/>
<path d="M48.808 9.88148C48.808 10.4977 48.624 11.0026 48.256 11.3987C47.8702 11.8058 47.3591 12.009 46.7209 12.009C46.1058 12.009 45.616 11.8143 45.2507 11.4233C44.8862 11.0332 44.704 10.541 44.704 9.94779C44.704 9.32729 44.8916 8.81814 45.2685 8.42289C45.6453 8.02764 46.152 7.82959 46.7902 7.82959C47.4053 7.82959 47.8996 8.02424 48.2738 8.41439C48.6293 8.79349 48.808 9.28309 48.808 9.88148ZM47.8418 9.91039C47.8418 9.54064 47.7582 9.22359 47.592 8.95924C47.3965 8.63964 47.1182 8.47984 46.7565 8.47984C46.3822 8.47984 46.0978 8.63964 45.9022 8.95924C45.7351 9.22359 45.6525 9.54574 45.6525 9.92654C45.6525 10.2963 45.736 10.6133 45.9022 10.8776C46.104 11.1972 46.3849 11.357 46.7476 11.357C47.1031 11.357 47.3822 11.1947 47.5831 10.8691C47.7556 10.5997 47.8418 10.2801 47.8418 9.91039Z" fill="white"/>
<path d="M55.7911 7.91113L54.48 11.918H53.6267L53.0836 10.1781C52.9458 9.74373 52.8338 9.31193 52.7467 8.88353H52.7298C52.6489 9.32383 52.5369 9.75478 52.3929 10.1781L51.816 11.918H50.9529L49.72 7.91113H50.6773L51.1511 9.81598C51.2658 10.2665 51.36 10.6957 51.4356 11.102H51.4524C51.5218 10.7671 51.6364 10.3404 51.7982 9.82448L52.3929 7.91198H53.152L53.7218 9.78368C53.8596 10.2401 53.9716 10.6796 54.0578 11.1029H54.0836C54.1467 10.6906 54.2418 10.2512 54.368 9.78368L54.8764 7.91198L55.7911 7.91113Z" fill="white"/>
<path d="M60.6204 11.9178H59.6889V9.62271C59.6889 8.91551 59.408 8.56191 58.8445 8.56191C58.568 8.56191 58.3449 8.65881 58.1716 8.85346C58 9.04811 57.9129 9.27761 57.9129 9.54026V11.9169H56.9813V9.05576C56.9813 8.70386 56.9698 8.32221 56.9476 7.90911H57.7662L57.8098 8.53556H57.8356C57.944 8.34091 58.1058 8.18026 58.3182 8.05191C58.5707 7.90231 58.8533 7.82666 59.1627 7.82666C59.5538 7.82666 59.8791 7.94736 60.1378 8.18961C60.4596 8.48626 60.6204 8.92911 60.6204 9.51731V11.9178Z" fill="white"/>
<path d="M63.1894 11.9178H62.2587V6.07227H63.1894V11.9178Z" fill="white"/>
<path d="M68.6738 9.88148C68.6738 10.4977 68.4898 11.0026 68.1218 11.3987C67.736 11.8058 67.224 12.009 66.5867 12.009C65.9707 12.009 65.4809 11.8143 65.1165 11.4233C64.752 11.0332 64.5698 10.541 64.5698 9.94779C64.5698 9.32729 64.7574 8.81814 65.1342 8.42289C65.5111 8.02764 66.0178 7.82959 66.6551 7.82959C67.2711 7.82959 67.7645 8.02424 68.1396 8.41439C68.4951 8.79349 68.6738 9.28309 68.6738 9.88148ZM67.7067 9.91039C67.7067 9.54064 67.6231 9.22359 67.4569 8.95924C67.2622 8.63964 66.9831 8.47984 66.6222 8.47984C66.2471 8.47984 65.9627 8.63964 65.768 8.95924C65.6009 9.22359 65.5182 9.54574 65.5182 9.92654C65.5182 10.2963 65.6018 10.6133 65.768 10.8776C65.9698 11.1972 66.2507 11.357 66.6134 11.357C66.9689 11.357 67.2471 11.1947 67.448 10.8691C67.6213 10.5997 67.7067 10.2801 67.7067 9.91039Z" fill="white"/>
<path d="M73.1822 11.918H72.3458L72.2765 11.4565H72.2507C71.9645 11.8245 71.5565 12.009 71.0267 12.009C70.6311 12.009 70.3111 11.8874 70.0703 11.646C69.8516 11.4267 69.7422 11.1539 69.7422 10.83C69.7422 10.3405 69.9556 9.96733 70.3849 9.70893C70.8134 9.45053 71.416 9.32388 72.192 9.32983V9.25504C72.192 8.72719 71.9022 8.46369 71.3218 8.46369C70.9085 8.46369 70.544 8.56314 70.2294 8.76034L70.04 8.17554C70.4294 7.94519 70.9102 7.82959 71.4774 7.82959C72.5725 7.82959 73.1218 8.38209 73.1218 9.48709V10.9626C73.1218 11.363 73.1422 11.6817 73.1822 11.918ZM72.2151 10.541V9.92314C71.1876 9.90614 70.6738 10.1756 70.6738 10.7306C70.6738 10.9397 70.7325 11.0961 70.8525 11.2006C70.9725 11.3052 71.1254 11.357 71.3076 11.357C71.512 11.357 71.7031 11.295 71.8774 11.1717C72.0525 11.0476 72.16 10.8904 72.2 10.6974C72.2098 10.6541 72.2151 10.6014 72.2151 10.541Z" fill="white"/>
<path d="M78.4756 11.9178H77.6489L77.6054 11.2743H77.5796C77.3156 11.7639 76.8658 12.0087 76.2338 12.0087C75.7289 12.0087 75.3085 11.8192 74.9751 11.4401C74.6418 11.061 74.4756 10.5688 74.4756 9.96442C74.4756 9.31587 74.656 8.79057 75.0187 8.38937C75.3698 8.01537 75.8 7.82837 76.312 7.82837C76.8747 7.82837 77.2685 8.00942 77.4925 8.37237H77.5102V6.07227H78.4427V10.8383C78.4427 11.2284 78.4534 11.588 78.4756 11.9178ZM77.5102 10.2279V9.55982C77.5102 9.44422 77.5014 9.35072 77.4845 9.27932C77.432 9.06512 77.3191 8.88492 77.1476 8.73957C76.9742 8.59422 76.7654 8.52112 76.5245 8.52112C76.1769 8.52112 75.9049 8.65287 75.7049 8.91722C75.5067 9.18157 75.4062 9.51902 75.4062 9.93127C75.4062 10.3274 75.5014 10.6487 75.6925 10.8961C75.8942 11.1596 76.1662 11.2913 76.5067 11.2913C76.8125 11.2913 77.0569 11.1817 77.2427 10.9615C77.4222 10.7584 77.5102 10.5136 77.5102 10.2279Z" fill="white"/>
<path d="M86.4427 9.88148C86.4427 10.4977 86.2587 11.0026 85.8907 11.3987C85.5049 11.8058 84.9947 12.009 84.3556 12.009C83.7414 12.009 83.2516 11.8143 82.8854 11.4233C82.5209 11.0332 82.3387 10.541 82.3387 9.94779C82.3387 9.32729 82.5262 8.81814 82.9031 8.42289C83.28 8.02764 83.7867 7.82959 84.4258 7.82959C85.04 7.82959 85.5351 8.02424 85.9085 8.41439C86.264 8.79349 86.4427 9.28309 86.4427 9.88148ZM85.4773 9.91039C85.4773 9.54064 85.3938 9.22359 85.2276 8.95924C85.0311 8.63964 84.7538 8.47984 84.3911 8.47984C84.0178 8.47984 83.7333 8.63964 83.5369 8.95924C83.3698 9.22359 83.2871 9.54574 83.2871 9.92654C83.2871 10.2963 83.3707 10.6133 83.5369 10.8776C83.7387 11.1972 84.0196 11.357 84.3822 11.357C84.7378 11.357 85.0178 11.1947 85.2187 10.8691C85.3902 10.5997 85.4773 10.2801 85.4773 9.91039Z" fill="white"/>
<path d="M91.4515 11.9178H90.5209V9.62271C90.5209 8.91551 90.24 8.56191 89.6755 8.56191C89.3991 8.56191 89.176 8.65881 89.0035 8.85346C88.8311 9.04811 88.7449 9.27761 88.7449 9.54026V11.9169H87.8124V9.05576C87.8124 8.70386 87.8018 8.32221 87.7795 7.90911H88.5973L88.6409 8.53556H88.6667C88.776 8.34091 88.9378 8.18026 89.1493 8.05191C89.4026 7.90231 89.6844 7.82666 89.9947 7.82666C90.3849 7.82666 90.7102 7.94736 90.9689 8.18961C91.2915 8.48626 91.4515 8.92911 91.4515 9.51731V11.9178Z" fill="white"/>
<path d="M97.7209 8.57824H96.6952V10.5247C96.6952 11.0194 96.8774 11.2668 97.2383 11.2668C97.4054 11.2668 97.5441 11.2532 97.6534 11.2251L97.6774 11.9009C97.4934 11.9672 97.2516 12.0003 96.9538 12.0003C96.5858 12.0003 96.2996 11.8932 96.0925 11.679C95.8845 11.4648 95.7814 11.1044 95.7814 10.5987V8.57824H95.1689V7.91099H95.7814V7.17659L96.6943 6.91309V7.91014H97.7201L97.7209 8.57824Z" fill="white"/>
<path d="M102.652 11.9178H101.72V9.63972C101.72 8.92147 101.439 8.56192 100.876 8.56192C100.444 8.56192 100.149 8.77017 99.9876 9.18667C99.96 9.27422 99.944 9.38132 99.944 9.50712V11.9169H99.0134V6.07227H99.944V8.48712H99.9618C100.255 8.04767 100.676 7.82837 101.22 7.82837C101.606 7.82837 101.925 7.94907 102.179 8.19132C102.494 8.49307 102.652 8.94187 102.652 9.53517V11.9178Z" fill="white"/>
<path d="M107.74 9.72493C107.74 9.88473 107.727 10.019 107.705 10.1287H104.911C104.924 10.5248 105.057 10.8265 105.316 11.0356C105.552 11.2226 105.857 11.3161 106.23 11.3161C106.644 11.3161 107.02 11.2532 107.36 11.1266L107.506 11.7454C107.108 11.9103 106.641 11.9927 106.1 11.9927C105.451 11.9927 104.94 11.81 104.57 11.4445C104.198 11.079 104.014 10.5885 104.014 9.97313C104.014 9.36878 104.186 8.86558 104.532 8.46438C104.892 8.03598 105.38 7.82178 105.996 7.82178C106.599 7.82178 107.057 8.03598 107.366 8.46438C107.616 8.80438 107.74 9.22513 107.74 9.72493ZM106.851 9.49458C106.858 9.23023 106.796 9.00243 106.67 8.81033C106.508 8.56298 106.262 8.43888 105.929 8.43888C105.625 8.43888 105.377 8.55958 105.188 8.80183C105.033 8.99478 104.941 9.22513 104.911 9.49458H106.851Z" fill="white"/>
<path d="M47.6844 27.2786H45.6658L44.56 23.9559H40.7164L39.6631 27.2786H37.6978L41.5058 15.9668H43.8578L47.6844 27.2786ZM44.2267 22.5619L43.2267 19.6082C43.1209 19.3064 42.9227 18.5958 42.6302 17.4772H42.5947C42.4782 17.9583 42.2907 18.6689 42.0329 19.6082L41.0507 22.5619H44.2267Z" fill="white"/>
<path d="M57.4773 23.0996C57.4773 24.4868 57.0853 25.5833 56.3013 26.3882C55.5991 27.1048 54.7271 27.4626 53.6862 27.4626C52.5627 27.4626 51.7556 27.0767 51.264 26.3049H51.2285V30.6017H49.3333V21.8067C49.3333 20.9346 49.3093 20.0396 49.2631 19.1216H50.9298L51.0356 20.4144H51.0711C51.7031 19.4403 52.6622 18.9541 53.9493 18.9541C54.9556 18.9541 55.7956 19.3341 56.4676 20.0948C57.1413 20.8564 57.4773 21.8577 57.4773 23.0996ZM55.5467 23.1659C55.5467 22.372 55.36 21.7175 54.9849 21.2024C54.5751 20.6652 54.0249 20.3966 53.3351 20.3966C52.8676 20.3966 52.4427 20.5462 52.0631 20.8411C51.6827 21.1386 51.4338 21.5271 51.3173 22.0082C51.2587 22.2326 51.2293 22.4162 51.2293 22.5607V23.9207C51.2293 24.514 51.4196 25.0146 51.8 25.4235C52.1805 25.8323 52.6747 26.0363 53.2827 26.0363C53.9965 26.0363 54.552 25.7728 54.9493 25.2475C55.3476 24.7214 55.5467 24.0278 55.5467 23.1659Z" fill="white"/>
<path d="M67.288 23.0996C67.288 24.4868 66.896 25.5833 66.1111 26.3882C65.4098 27.1048 64.5378 27.4626 63.4969 27.4626C62.3733 27.4626 61.5662 27.0767 61.0756 26.3049H61.04V30.6017H59.1449V21.8067C59.1449 20.9346 59.1209 20.0396 59.0747 19.1216H60.7413L60.8471 20.4144H60.8827C61.5138 19.4403 62.4729 18.9541 63.7609 18.9541C64.7662 18.9541 65.6062 19.3341 66.28 20.0948C66.9511 20.8564 67.288 21.8577 67.288 23.0996ZM65.3573 23.1659C65.3573 22.372 65.1698 21.7175 64.7947 21.2024C64.3849 20.6652 63.8365 20.3966 63.1458 20.3966C62.6773 20.3966 62.2533 20.5462 61.8729 20.8411C61.4925 21.1386 61.2445 21.5271 61.128 22.0082C61.0702 22.2326 61.04 22.4162 61.04 22.5607V23.9207C61.04 24.514 61.2302 25.0146 61.6089 25.4235C61.9893 25.8315 62.4836 26.0363 63.0933 26.0363C63.8071 26.0363 64.3627 25.7728 64.76 25.2475C65.1582 24.7214 65.3573 24.0278 65.3573 23.1659Z" fill="white"/>
<path d="M78.2569 24.1061C78.2569 25.0683 77.9075 25.8512 77.2062 26.4555C76.4355 27.116 75.3627 27.4458 73.984 27.4458C72.7111 27.4458 71.6907 27.2112 70.9182 26.7411L71.3573 25.2307C72.1893 25.7118 73.1022 25.9532 74.0969 25.9532C74.8107 25.9532 75.3662 25.7985 75.7653 25.4908C76.1627 25.1831 76.3609 24.77 76.3609 24.2549C76.3609 23.7959 76.1973 23.4091 75.8693 23.0955C75.5431 22.7818 74.9982 22.4903 74.2373 22.2208C72.1662 21.4822 71.1316 20.4001 71.1316 18.9772C71.1316 18.0473 71.4942 17.2849 72.2204 16.6916C72.944 16.0974 73.9093 15.8008 75.1164 15.8008C76.1929 15.8008 77.0871 15.9801 77.8009 16.338L77.3271 17.8153C76.6604 17.4685 75.9067 17.2951 75.0631 17.2951C74.3964 17.2951 73.8756 17.4523 73.5022 17.7651C73.1867 18.0448 73.0284 18.3856 73.0284 18.7894C73.0284 19.2365 73.2089 19.6062 73.5715 19.8969C73.8871 20.1655 74.4604 20.4562 75.2924 20.7699C76.3102 21.1617 77.0578 21.6199 77.5387 22.1452C78.0178 22.6688 78.2569 23.3241 78.2569 24.1061Z" fill="white"/>
<path d="M84.5227 20.4817H82.4338V24.4419C82.4338 25.4491 82.8018 25.9523 83.5396 25.9523C83.8782 25.9523 84.1591 25.9243 84.3813 25.8682L84.4338 27.2443C84.0604 27.3778 83.5689 27.4449 82.96 27.4449C82.2116 27.4449 81.6267 27.2265 81.2044 26.7904C80.784 26.3535 80.5724 25.6208 80.5724 24.5915V20.48H79.328V19.12H80.5724V17.6266L82.4338 17.0894V19.12H84.5227V20.4817Z" fill="white"/>
<path d="M93.9476 23.1328C93.9476 24.3866 93.5725 25.4159 92.824 26.2209C92.0391 27.0496 90.9973 27.4627 89.6987 27.4627C88.4471 27.4627 87.4507 27.0658 86.7076 26.2719C85.9644 25.478 85.5929 24.4758 85.5929 23.268C85.5929 22.004 85.9751 20.9687 86.7422 20.1638C87.5076 19.358 88.5405 18.9551 89.8391 18.9551C91.0907 18.9551 92.0978 19.352 92.8578 20.1468C93.5849 20.9177 93.9476 21.9131 93.9476 23.1328ZM91.9813 23.1915C91.9813 22.4392 91.8133 21.7941 91.4729 21.256C91.0756 20.6049 90.5076 20.2802 89.7716 20.2802C89.0098 20.2802 88.4311 20.6058 88.0338 21.256C87.6933 21.7949 87.5253 22.4503 87.5253 23.2255C87.5253 23.9777 87.6933 24.6229 88.0338 25.1601C88.4436 25.8112 89.016 26.1359 89.7547 26.1359C90.4782 26.1359 91.0462 25.8044 91.456 25.1431C91.8053 24.5948 91.9813 23.9429 91.9813 23.1915Z" fill="white"/>
<path d="M100.108 20.7153C99.9199 20.6822 99.7199 20.6652 99.5101 20.6652C98.8435 20.6652 98.3279 20.9057 97.9653 21.3877C97.6497 21.8127 97.4915 22.3499 97.4915 22.9984V27.2782H95.5972L95.615 21.6903C95.615 20.7502 95.591 19.8942 95.5439 19.1224H97.1946L97.2639 20.683H97.3164C97.5164 20.1467 97.8319 19.7149 98.2639 19.391C98.6861 19.0995 99.1421 18.9541 99.6337 18.9541C99.8088 18.9541 99.967 18.966 100.108 18.9873V20.7153Z" fill="white"/>
<path d="M108.583 22.8141C108.583 23.1388 108.561 23.4125 108.514 23.6361H102.828C102.851 24.4419 103.125 25.0581 103.653 25.4831C104.132 25.8631 104.752 26.0535 105.513 26.0535C106.355 26.0535 107.123 25.9251 107.813 25.6676L108.11 26.9256C107.303 27.2622 106.35 27.4296 105.251 27.4296C103.928 27.4296 102.89 27.0573 102.134 26.3136C101.38 25.5698 101.003 24.5711 101.003 23.3182C101.003 22.0882 101.354 21.064 102.057 20.2471C102.793 19.375 103.788 18.939 105.039 18.939C106.268 18.939 107.199 19.375 107.831 20.2471C108.332 20.9399 108.583 21.7967 108.583 22.8141ZM106.776 22.3441C106.788 21.8069 106.665 21.3428 106.408 20.9509C106.08 20.4469 105.576 20.1953 104.898 20.1953C104.278 20.1953 103.774 20.4409 103.389 20.9339C103.074 21.3258 102.886 21.7958 102.828 22.3432L106.776 22.3441Z" fill="white"/>
</g>
<defs>
<clipPath id="clip0_37_1512">
<rect width="120" height="34" fill="white" transform="translate(0 0.5)"/>
</clipPath>
</defs>
</svg>
