<svg width="144" height="211" viewBox="0 0 144 211" fill="none" xmlns="http://www.w3.org/2000/svg">
<g clip-path="url(#clip0_37_1563)">
<mask id="mask0_37_1563" style="mask-type:luminance" maskUnits="userSpaceOnUse" x="-128" y="-44" width="282" height="283">
<path d="M-127.266 -43.0835H153.984V238.167H-127.266V-43.0835Z" fill="white"/>
</mask>
<g mask="url(#mask0_37_1563)">
<path d="M134.205 50.3364C133.746 50.4684 133.263 50.2014 133.131 49.7427L131.89 45.4327C131.758 44.9742 132.025 44.4912 132.483 44.359C132.942 44.227 133.425 44.494 133.557 44.9527L134.798 49.2627C134.93 49.7212 134.663 50.2044 134.205 50.3364Z" fill="#00CC99"/>
</g>
<mask id="mask1_37_1563" style="mask-type:luminance" maskUnits="userSpaceOnUse" x="-128" y="-44" width="282" height="283">
<path d="M-127.266 -43.0835H153.984V238.167H-127.266V-43.0835Z" fill="white"/>
</mask>
<g mask="url(#mask1_37_1563)">
<path d="M135.066 48.1789C134.589 48.1536 134.22 47.743 134.245 47.2666L134.484 42.7878C134.509 42.3113 134.92 41.9421 135.396 41.9674C135.872 41.9928 136.241 42.4034 136.216 42.8798L135.978 47.3588C135.952 47.8353 135.542 48.2043 135.066 48.1789Z" fill="#00CC99"/>
</g>
<mask id="mask2_37_1563" style="mask-type:luminance" maskUnits="userSpaceOnUse" x="-128" y="-44" width="282" height="283">
<path d="M-127.266 -43.0835H153.984V238.167H-127.266V-43.0835Z" fill="white"/>
</mask>
<g mask="url(#mask2_37_1563)">
<path d="M136.727 48.0208C136.275 47.8685 136.029 47.3741 136.181 46.922L137.612 42.6708C137.764 42.2188 138.258 41.9732 138.711 42.1254C139.163 42.2775 139.408 42.7719 139.256 43.2242L137.826 47.4752C137.673 47.9274 137.179 48.173 136.727 48.0208Z" fill="#00CC99"/>
</g>
<mask id="mask3_37_1563" style="mask-type:luminance" maskUnits="userSpaceOnUse" x="-128" y="-44" width="282" height="283">
<path d="M-127.266 -43.0835H153.984V238.167H-127.266V-43.0835Z" fill="white"/>
</mask>
<g mask="url(#mask3_37_1563)">
<path d="M137.807 50.2587C137.361 50.0907 137.133 49.5878 137.301 49.1413L139.123 44.2993C139.291 43.8529 139.793 43.6251 140.24 43.7931C140.686 43.9611 140.914 44.4638 140.746 44.9104L138.924 49.7522C138.756 50.1988 138.254 50.4267 137.807 50.2587Z" fill="#00CC99"/>
</g>
<mask id="mask4_37_1563" style="mask-type:luminance" maskUnits="userSpaceOnUse" x="-128" y="-44" width="282" height="283">
<path d="M-127.266 -43.0835H153.984V238.167H-127.266V-43.0835Z" fill="white"/>
</mask>
<g mask="url(#mask4_37_1563)">
<path d="M52.9943 146.631V197.164H48.1111C46.3643 197.164 44.9352 198.593 44.9352 200.34C44.9352 202.087 46.3643 203.516 48.1111 203.516H59.9815C61.6559 203.516 63.0241 202.199 63.136 200.552H63.1574V200.34V146.631H52.9943Z" fill="#00CC99"/>
</g>
<mask id="mask5_37_1563" style="mask-type:luminance" maskUnits="userSpaceOnUse" x="44" y="146" width="20" height="58">
<path d="M52.9943 146.631V197.164H48.111C46.3643 197.164 44.9351 198.593 44.9351 200.34C44.9351 202.087 46.3643 203.516 48.111 203.516H59.9816C61.6558 203.516 63.0242 202.199 63.1359 200.552H63.1575V200.34V146.631H52.9943Z" fill="white"/>
</mask>
<g mask="url(#mask5_37_1563)">
<path d="M59.6625 145.449C60.3227 152.294 60.2466 159.2 60.3444 166.069C60.4414 172.868 60.6116 179.674 60.3699 186.471C60.2346 190.277 59.9612 194.079 59.4583 197.855C59.4793 197.698 59.5003 197.542 59.5213 197.386C59.3687 198.522 59.1962 199.656 58.9995 200.785C58.9363 201.148 58.8364 201.52 58.8577 201.889C58.8836 202.334 58.9935 202.705 59.2082 203.099C59.8266 204.233 61.4205 204.501 62.3269 203.553C62.964 202.887 63.0384 201.716 62.3269 201.062C61.6369 200.429 60.5166 200.351 59.8365 201.062C59.8234 201.076 59.8102 201.09 59.7969 201.104C59.9158 201.012 60.0347 200.92 60.1534 200.828C60.1399 200.837 60.1264 200.845 60.1127 200.854C60.2529 200.795 60.3932 200.735 60.5334 200.676C60.5196 200.68 60.5059 200.683 60.492 200.687C60.648 200.666 60.8042 200.645 60.9602 200.624C60.9463 200.623 60.9324 200.622 60.9187 200.621C61.0747 200.642 61.2307 200.663 61.3867 200.684C61.3732 200.679 61.3594 200.674 61.3457 200.669C61.4859 200.728 61.6262 200.787 61.7664 200.846C61.7529 200.838 61.7396 200.829 61.7263 200.82C61.8452 200.912 61.9639 201.004 62.0827 201.096C62.0541 201.073 62.0291 201.046 62.0077 201.016C62.0994 201.135 62.1913 201.254 62.283 201.372C62.2461 201.316 62.2185 201.263 62.1919 201.202C62.2509 201.342 62.3102 201.482 62.3694 201.623C62.346 201.555 62.3295 201.492 62.3169 201.421C62.3379 201.577 62.3587 201.733 62.3797 201.889C62.3734 201.819 62.3732 201.76 62.3812 201.691C62.3602 201.847 62.3392 202.003 62.3184 202.159C63.6259 194.855 63.9831 187.433 64.0089 180.025C64.0344 172.67 63.8629 165.312 63.7504 157.958C63.6864 153.784 63.5856 149.607 63.1845 145.449C63.1384 144.971 63.0189 144.554 62.6687 144.204C62.3632 143.898 61.8621 143.668 61.4235 143.688C60.5452 143.727 59.5678 144.467 59.6625 145.449Z" fill="#31AA7F"/>
</g>
<mask id="mask6_37_1563" style="mask-type:luminance" maskUnits="userSpaceOnUse" x="44" y="146" width="20" height="58">
<path d="M52.9943 146.631V197.164H48.111C46.3643 197.164 44.9352 198.593 44.9352 200.34C44.9352 202.087 46.3643 203.516 48.111 203.516H59.9816C61.6558 203.516 63.0242 202.199 63.136 200.552H63.1575V200.34V146.631H52.9943Z" fill="white"/>
</mask>
<g mask="url(#mask6_37_1563)">
<path d="M52.7398 153.814H64.8921H68.3507V150.292H66.3161C65.3949 150.292 64.5126 151.102 64.5551 152.053C64.5979 153.007 65.3287 153.814 66.3161 153.814H68.3507C69.2719 153.814 70.1542 153.004 70.1117 152.053C70.0689 151.099 69.3379 150.292 68.3507 150.292H56.1984H52.7398C51.8186 150.292 50.9362 151.102 50.9788 152.053C51.0216 153.007 51.7526 153.814 52.7398 153.814Z" fill="#31AA7F"/>
</g>
<mask id="mask7_37_1563" style="mask-type:luminance" maskUnits="userSpaceOnUse" x="-128" y="-44" width="282" height="283">
<path d="M-127.266 -43.0835H153.984V238.167H-127.266V-43.0835Z" fill="white"/>
</mask>
<g mask="url(#mask7_37_1563)">
<path d="M98.5907 10.5889C93.2987 4.49754 84.7191 4.49754 79.4271 10.5889C78.5059 11.6492 77.7557 12.8291 77.1552 14.0788C74.8456 9.27541 70.4024 6.02042 65.2952 6.02042C60.3025 6.02042 55.9521 9.13704 53.6014 13.764C51.6286 9.94122 48.2954 7.20561 44.2056 6.60092C36.7251 5.49504 29.5801 11.9111 28.2466 20.9315C27.6387 25.044 27.4532 31.0428 28.0846 35.5828C28.0652 35.9388 28.0307 36.2908 28.0307 36.6515V131.507C28.0307 142.265 36.7517 150.986 47.5097 150.986H83.0806C93.8386 150.986 102.56 142.265 102.56 131.507V36.6515C102.56 27.9002 103.883 16.6802 98.5907 10.5889Z" fill="#00CC99"/>
</g>
<mask id="mask8_37_1563" style="mask-type:luminance" maskUnits="userSpaceOnUse" x="27" y="6" width="76" height="145">
<path d="M53.6013 13.7643C51.6287 9.94173 48.2953 7.2059 44.2055 6.60141C36.725 5.49535 29.58 11.9116 28.2467 20.9318C27.6386 25.0445 27.4533 31.0432 28.0846 35.5833C28.0653 35.9392 28.0307 36.2913 28.0307 36.652V131.507C28.0307 142.265 36.7517 150.986 47.5097 150.986H83.0805C93.8385 150.986 102.56 142.265 102.56 131.507V36.652C102.56 27.9005 103.883 16.6807 98.5907 10.5894C93.2988 4.49785 84.7188 4.49785 79.427 10.5894C78.5058 11.6495 77.7557 12.8296 77.1553 14.0793C74.8455 9.27589 70.4023 6.02071 65.2952 6.02071C60.3024 6.02071 55.952 9.13754 53.6013 13.7643Z" fill="white"/>
</mask>
<g mask="url(#mask8_37_1563)">
<path d="M88.1339 9.75664C88.6829 10.4324 89.2274 11.1115 89.7618 11.7989C89.4863 11.4424 89.2111 11.086 88.9356 10.7296C90.7135 13.0321 92.3761 15.4429 93.5288 18.1257L92.9963 16.8636C93.5384 18.1677 93.9424 19.5098 94.1463 20.909C94.0833 20.4408 94.0204 19.9726 93.9574 19.5044C94.4241 23.1518 94.4978 26.8932 94.6184 30.5652C94.7389 34.2329 94.7778 37.9028 94.765 41.5724C94.7389 49.0426 94.4986 56.5099 94.2796 63.9764C94.0636 71.3462 93.8674 78.7186 93.9229 86.0924C93.9798 93.6344 93.8877 101.176 93.7032 108.716C93.6055 112.7 93.4701 116.682 93.3777 120.667C93.2969 124.156 93.2044 127.653 92.7436 131.118C92.8064 130.65 92.8694 130.181 92.9322 129.713C92.5589 132.42 91.9443 135.086 90.8926 137.614L91.4253 136.352C90.6828 138.092 89.7445 139.727 88.6004 141.235C88.8758 140.878 89.1513 140.522 89.4265 140.165C89.0189 140.691 88.6148 141.267 88.0951 141.69C88.4515 141.414 88.8078 141.139 89.1642 140.864C88.8169 141.132 88.4298 141.331 88.0272 141.503C88.4478 141.325 88.8683 141.148 89.2891 140.97C87.8208 141.575 86.2201 141.839 84.6552 142.054C85.1234 141.991 85.5916 141.928 86.0596 141.865C80.7093 142.58 75.2838 142.505 69.8982 142.612C68.9449 142.631 67.9883 142.646 67.0381 142.729C65.6121 142.854 64.3443 143.235 63.3023 144.277C62.386 145.193 61.696 146.696 61.7551 148.013C61.8162 149.379 62.2651 150.796 63.3023 151.748C64.2831 152.648 65.6579 153.416 67.0381 153.296C70.132 153.025 73.2736 153.143 76.3763 153.067C80.6826 152.96 85.0409 152.768 89.2801 151.949C90.9561 151.625 92.7634 151.12 94.2061 150.193C95.3234 149.475 96.0968 148.664 96.8978 147.637C97.9458 146.293 98.935 144.941 99.7274 143.428C102.595 137.955 103.471 131.863 103.777 125.761C104.092 119.481 104.17 113.176 104.312 106.89C104.468 100.004 104.542 93.1161 104.49 86.2285C104.388 72.7645 105.115 59.3142 105.294 45.8541C105.384 39.1156 105.338 32.3716 104.971 25.6411C104.786 22.2421 104.777 18.6333 103.688 15.3805C102.615 12.1767 100.937 9.26276 98.9378 6.55676C97.8649 5.10439 96.7437 3.68671 95.6052 2.28532C94.8034 1.29851 93.0846 0.737885 91.8694 0.737885C90.5738 0.737885 89.026 1.31351 88.1339 2.28532C87.2097 3.29221 86.5234 4.61388 86.5866 6.02107C86.6528 7.50137 87.2039 8.61195 88.1339 9.75664Z" fill="#31AA7F"/>
</g>
<mask id="mask9_37_1563" style="mask-type:luminance" maskUnits="userSpaceOnUse" x="-128" y="-44" width="282" height="283">
<path d="M-127.266 -43.0835H153.984V238.167H-127.266V-43.0835Z" fill="white"/>
</mask>
<g mask="url(#mask9_37_1563)">
<path d="M82.1579 51.6421C82.1579 57.3706 77.5139 62.0146 71.7854 62.0146C66.0567 62.0146 61.4129 57.3706 61.4129 51.6421C61.4129 45.9137 66.0567 41.2696 71.7854 41.2696C77.5139 41.2696 82.1579 45.9137 82.1579 51.6421Z" fill="#31AA7F"/>
</g>
<mask id="mask10_37_1563" style="mask-type:luminance" maskUnits="userSpaceOnUse" x="-128" y="-44" width="282" height="283">
<path d="M-127.266 -43.0835H153.984V238.167H-127.266V-43.0835Z" fill="white"/>
</mask>
<g mask="url(#mask10_37_1563)">
<path d="M59.4759 51.9896C59.4759 57.5263 54.9876 62.0146 49.4509 62.0146C43.914 62.0146 39.4256 57.5263 39.4256 51.9896C39.4256 46.4529 43.914 41.9645 49.4509 41.9645C54.9876 41.9645 59.4759 46.4529 59.4759 51.9896Z" fill="#31AA7F"/>
</g>
<mask id="mask11_37_1563" style="mask-type:luminance" maskUnits="userSpaceOnUse" x="-128" y="-44" width="282" height="283">
<path d="M-127.266 -43.0835H153.984V238.167H-127.266V-43.0835Z" fill="white"/>
</mask>
<g mask="url(#mask11_37_1563)">
<path d="M68.057 148.166V197.748H63.1738C61.427 197.748 59.9977 199.177 59.9977 200.924C59.9977 202.67 61.427 204.1 63.1738 204.1H75.0442C76.38 204.1 77.5241 203.261 77.9913 202.087H78.2201V148.166H68.057Z" fill="#00CC99"/>
</g>
<mask id="mask12_37_1563" style="mask-type:luminance" maskUnits="userSpaceOnUse" x="59" y="148" width="20" height="57">
<path d="M68.0569 148.166V197.748H63.1738C61.4271 197.748 59.9977 199.177 59.9977 200.924C59.9977 202.67 61.4271 204.1 63.1738 204.1H75.0442C76.3798 204.1 77.5239 203.261 77.9912 202.087H78.2201V148.166H68.0569Z" fill="white"/>
</mask>
<g mask="url(#mask12_37_1563)">
<path d="M62.2952 153.587C63.5247 153.764 64.767 153.765 66.007 153.762C67.2722 153.76 68.5397 153.741 69.8035 153.676C70.0478 153.663 70.2914 153.649 70.5342 153.62C71.2465 153.536 71.9192 153.304 72.6263 153.207C72.4703 153.228 72.3141 153.249 72.1581 153.27C72.6471 153.216 73.1485 153.309 73.6379 153.342C74.106 153.374 74.575 153.395 75.0439 153.413C76.2216 153.456 77.4006 153.473 78.579 153.484C81.0452 153.509 83.5116 153.495 85.9774 153.536C86.9089 153.552 87.8459 153.562 88.774 153.65C89.1977 153.691 89.7289 153.425 90.0192 153.134C90.3246 152.829 90.5545 152.328 90.535 151.889C90.5145 151.434 90.3649 150.961 90.0192 150.644C89.6567 150.311 89.263 150.175 88.774 150.128C87.9034 150.045 87.025 150.033 86.1512 150.017C84.8978 149.994 83.6442 149.99 82.3905 149.984C79.8128 149.973 77.2313 149.986 74.6552 149.875C74.1248 149.852 73.594 149.824 73.0652 149.775C72.5607 149.728 72.1212 149.74 71.6087 149.822C71.088 149.905 70.5878 150.081 70.066 150.161C70.222 150.14 70.3782 150.119 70.5342 150.098C69.5997 150.217 68.6359 150.204 67.6958 150.222C66.5243 150.245 65.3513 150.253 64.1798 150.22C63.7245 150.207 63.2655 150.194 62.8135 150.135C62.9695 150.156 63.1255 150.177 63.2817 150.198C63.2648 150.196 63.2483 150.194 63.2316 150.191C62.743 150.121 62.3187 150.109 61.8745 150.368C61.5092 150.582 61.1609 151.001 61.0652 151.421C60.9627 151.872 60.9848 152.378 61.2428 152.778C61.4732 153.135 61.8539 153.524 62.2952 153.587Z" fill="#31AA7F"/>
</g>
<mask id="mask13_37_1563" style="mask-type:luminance" maskUnits="userSpaceOnUse" x="-128" y="-44" width="282" height="283">
<path d="M-127.266 -43.0835H153.984V238.167H-127.266V-43.0835Z" fill="white"/>
</mask>
<g mask="url(#mask13_37_1563)">
<path d="M42.9012 49.7385C42.6162 50.3193 41.9144 50.559 41.3335 50.274L34.9929 47.163C34.412 46.878 34.1722 46.176 34.4572 45.5953C34.7422 45.0144 35.4442 44.7746 36.0249 45.0596L42.3655 48.1708C42.9464 48.4558 43.1862 49.1576 42.9012 49.7385Z" fill="#353535"/>
</g>
<mask id="mask14_37_1563" style="mask-type:luminance" maskUnits="userSpaceOnUse" x="-128" y="-44" width="282" height="283">
<path d="M-127.266 -43.0835H153.984V238.167H-127.266V-43.0835Z" fill="white"/>
</mask>
<g mask="url(#mask14_37_1563)">
<path d="M43.5029 47.7667C43.0467 48.2255 42.3052 48.2278 41.8463 47.7718L36.8369 42.7927C36.3779 42.3367 36.3757 41.595 36.8318 41.1362C37.288 40.6772 38.0296 40.6749 38.4884 41.1311L43.4978 46.1102C43.9567 46.5662 43.9591 47.3079 43.5029 47.7667Z" fill="#353535"/>
</g>
<mask id="mask15_37_1563" style="mask-type:luminance" maskUnits="userSpaceOnUse" x="-128" y="-44" width="282" height="283">
<path d="M-127.266 -43.0835H153.984V238.167H-127.266V-43.0835Z" fill="white"/>
</mask>
<g mask="url(#mask15_37_1563)">
<path d="M45.6106 46.1029C45.0412 46.4102 44.3306 46.1976 44.0234 45.6283L40.6692 39.4127C40.3619 38.8433 40.5746 38.1326 41.1438 37.8255C41.7132 37.5182 42.4239 37.7306 42.7312 38.3001L46.0852 44.5157C46.3925 45.0849 46.1801 45.7956 45.6106 46.1029Z" fill="#353535"/>
</g>
<mask id="mask16_37_1563" style="mask-type:luminance" maskUnits="userSpaceOnUse" x="-128" y="-44" width="282" height="283">
<path d="M-127.266 -43.0835H153.984V238.167H-127.266V-43.0835Z" fill="white"/>
</mask>
<g mask="url(#mask16_37_1563)">
<path d="M76.1385 49.3128C76.4335 49.9138 77.1597 50.1618 77.7606 49.8671L84.321 46.6481C84.922 46.3531 85.17 45.6269 84.8753 45.026C84.5803 44.4251 83.8542 44.1768 83.2532 44.4718L76.6928 47.6908C76.0918 47.9857 75.8436 48.7119 76.1385 49.3128Z" fill="#353535"/>
</g>
<mask id="mask17_37_1563" style="mask-type:luminance" maskUnits="userSpaceOnUse" x="-128" y="-44" width="282" height="283">
<path d="M-127.266 -43.0835H153.984V238.167H-127.266V-43.0835Z" fill="white"/>
</mask>
<g mask="url(#mask17_37_1563)">
<path d="M75.5161 47.2728C75.988 47.7476 76.7553 47.7498 77.2302 47.2781L82.4131 42.1265C82.8878 41.6546 82.8903 40.8871 82.4183 40.4124C81.9464 39.9376 81.179 39.9354 80.7042 40.4071L75.5213 45.5587C75.0466 46.0306 75.0441 46.7981 75.5161 47.2728Z" fill="#353535"/>
</g>
<mask id="mask18_37_1563" style="mask-type:luminance" maskUnits="userSpaceOnUse" x="-128" y="-44" width="282" height="283">
<path d="M-127.266 -43.0835H153.984V238.167H-127.266V-43.0835Z" fill="white"/>
</mask>
<g mask="url(#mask18_37_1563)">
<path d="M73.3353 45.5517C73.9244 45.8695 74.6596 45.6497 74.9776 45.0606L78.448 38.6297C78.7659 38.0404 78.5461 37.3052 77.9568 36.9874C77.3677 36.6694 76.6325 36.8894 76.3147 37.4785L72.8442 43.9094C72.5264 44.4985 72.7462 45.2339 73.3353 45.5517Z" fill="#353535"/>
</g>
<mask id="mask19_37_1563" style="mask-type:luminance" maskUnits="userSpaceOnUse" x="-128" y="-44" width="282" height="283">
<path d="M-127.266 -43.0835H153.984V238.167H-127.266V-43.0835Z" fill="white"/>
</mask>
<g mask="url(#mask19_37_1563)">
<path d="M58.2558 51.137C58.2558 56.4927 53.9141 60.8345 48.5583 60.8345C43.2026 60.8345 38.8608 56.4927 38.8608 51.137C38.8608 45.7812 43.2026 41.4395 48.5583 41.4395C53.9141 41.4395 58.2558 45.7812 58.2558 51.137Z" fill="white"/>
</g>
<mask id="mask20_37_1563" style="mask-type:luminance" maskUnits="userSpaceOnUse" x="-128" y="-44" width="282" height="283">
<path d="M-127.266 -43.0835H153.984V238.167H-127.266V-43.0835Z" fill="white"/>
</mask>
<g mask="url(#mask20_37_1563)">
<path d="M80.9661 50.8117C80.9661 56.3531 76.474 60.8452 70.9326 60.8452C65.3913 60.8452 60.899 56.3531 60.899 50.8117C60.899 45.2703 65.3913 40.7782 70.9326 40.7782C76.474 40.7782 80.9661 45.2703 80.9661 50.8117Z" fill="white"/>
</g>
<mask id="mask21_37_1563" style="mask-type:luminance" maskUnits="userSpaceOnUse" x="-128" y="-44" width="282" height="283">
<path d="M-127.266 -43.0835H153.984V238.167H-127.266V-43.0835Z" fill="white"/>
</mask>
<g mask="url(#mask21_37_1563)">
<path d="M76.4884 52.1089C76.4884 52.1089 71.04 46.2598 65.8975 51.9786" stroke="#353535" stroke-width="1.40887" stroke-miterlimit="10" stroke-linecap="round"/>
</g>
<mask id="mask22_37_1563" style="mask-type:luminance" maskUnits="userSpaceOnUse" x="-128" y="-44" width="282" height="283">
<path d="M-127.266 -43.0835H153.984V238.167H-127.266V-43.0835Z" fill="white"/>
</mask>
<g mask="url(#mask22_37_1563)">
<path d="M43.4245 52.5347C43.4245 52.5347 48.6424 46.7674 53.7987 52.1842" stroke="#353535" stroke-width="1.40887" stroke-miterlimit="10" stroke-linecap="round"/>
</g>
<mask id="mask23_37_1563" style="mask-type:luminance" maskUnits="userSpaceOnUse" x="-128" y="-44" width="282" height="283">
<path d="M-127.266 -43.0835H153.984V238.167H-127.266V-43.0835Z" fill="white"/>
</mask>
<g mask="url(#mask23_37_1563)">
<path d="M4.79817 150.975C6.77517 151.136 8.45386 149.571 8.43886 147.588C8.39498 141.764 9.37561 129.402 13.5865 119.432C15.9029 113.947 26.8215 100.2 26.8215 100.2L36.1602 87.9434C37.2872 86.4638 37.0017 84.3509 35.5223 83.2236L34.5921 82.5151C33.1127 81.3878 30.9998 81.6736 29.8725 83.1529L23.9832 90.8826C23.9832 90.8826 5.86711 114.173 3.94336 123.853C1.07348 138.295 1.68886 142.251 1.70405 147.636C1.70873 149.388 3.05236 150.832 4.79817 150.975Z" fill="#00CC99"/>
</g>
<mask id="mask24_37_1563" style="mask-type:luminance" maskUnits="userSpaceOnUse" x="1" y="81" width="36" height="70">
<path d="M29.8724 83.1524L23.9833 90.8821C23.9833 90.8821 5.86701 114.173 3.94326 123.853C1.07338 138.295 1.68895 142.251 1.70395 147.636C1.70882 149.388 3.05226 150.832 4.79808 150.974C6.77508 151.136 8.45376 149.571 8.43895 147.587C8.39488 141.764 9.37551 129.402 13.5864 119.431C15.9028 113.946 26.8214 100.2 26.8214 100.2L36.1601 87.9428C37.2873 86.4635 37.0016 84.3504 35.5222 83.2233L34.592 82.5145C33.9824 82.0501 33.2653 81.8255 32.5537 81.8255C31.5386 81.8255 30.5353 82.2826 29.8724 83.1524Z" fill="white"/>
</mask>
<g mask="url(#mask24_37_1563)">
<path d="M27.9624 85.5418L16.868 100.51C16.868 100.51 17.2698 107.107 22.7967 105.265L23.1489 105.148L28.6668 97.8101L27.9624 85.5418Z" fill="#28507C"/>
</g>
<mask id="mask25_37_1563" style="mask-type:luminance" maskUnits="userSpaceOnUse" x="1" y="81" width="36" height="70">
<path d="M29.8724 83.1524L23.9833 90.8821C23.9833 90.8821 5.86701 114.173 3.94326 123.853C1.07338 138.295 1.68895 142.251 1.70395 147.636C1.70882 149.388 3.05226 150.832 4.79808 150.974C6.77508 151.136 8.45376 149.571 8.43895 147.587C8.39488 141.764 9.37551 129.402 13.5864 119.431C15.9028 113.946 26.8214 100.2 26.8214 100.2L36.1601 87.9428C37.2873 86.4635 37.0016 84.3504 35.5222 83.2233L34.592 82.5145C33.9824 82.0501 33.2653 81.8255 32.5537 81.8255C31.5386 81.8255 30.5353 82.2826 29.8724 83.1524Z" fill="white"/>
</mask>
<g mask="url(#mask25_37_1563)">
<path d="M26.5018 84.5416C25.5007 90.1696 24.9918 95.8362 25.02 101.554C25.0312 103.82 28.5532 103.824 28.542 101.554C28.5153 96.1519 28.9516 90.7975 29.898 85.4779C30.2923 83.2615 26.8987 82.3103 26.5018 84.5416Z" fill="#1F4363"/>
</g>
<mask id="mask26_37_1563" style="mask-type:luminance" maskUnits="userSpaceOnUse" x="-128" y="-44" width="282" height="283">
<path d="M-127.266 -43.0835H153.984V238.167H-127.266V-43.0835Z" fill="white"/>
</mask>
<g mask="url(#mask26_37_1563)">
<path d="M7.07246 146.532C7.48365 146.29 8.01802 146.428 8.26008 146.839L10.5356 150.704C10.7776 151.116 10.6391 151.65 10.2281 151.892C9.8169 152.134 9.28252 151.996 9.04046 151.585L6.76496 147.719C6.5229 147.308 6.66127 146.774 7.07246 146.532Z" fill="#00CC99"/>
</g>
<mask id="mask27_37_1563" style="mask-type:luminance" maskUnits="userSpaceOnUse" x="-128" y="-44" width="282" height="283">
<path d="M-127.266 -43.0835H153.984V238.167H-127.266V-43.0835Z" fill="white"/>
</mask>
<g mask="url(#mask27_37_1563)">
<path d="M6.75778 148.84C7.22559 148.746 7.68515 149.052 7.77928 149.519L8.6639 153.917C8.75784 154.384 8.45221 154.844 7.9844 154.938C7.51678 155.032 7.05703 154.726 6.9629 154.259L6.07846 149.862C5.98434 149.394 6.28996 148.934 6.75778 148.84Z" fill="#00CC99"/>
</g>
<mask id="mask28_37_1563" style="mask-type:luminance" maskUnits="userSpaceOnUse" x="-128" y="-44" width="282" height="283">
<path d="M-127.266 -43.0835H153.984V238.167H-127.266V-43.0835Z" fill="white"/>
</mask>
<g mask="url(#mask28_37_1563)">
<path d="M5.20656 149.402C5.68243 149.437 6.04318 149.855 6.0085 150.33L5.68168 154.804C5.647 155.28 5.22925 155.64 4.75337 155.606C4.2775 155.571 3.91675 155.153 3.95143 154.677L4.27825 150.204C4.31293 149.728 4.73068 149.367 5.20656 149.402Z" fill="#00CC99"/>
</g>
<mask id="mask29_37_1563" style="mask-type:luminance" maskUnits="userSpaceOnUse" x="-128" y="-44" width="282" height="283">
<path d="M-127.266 -43.0835H153.984V238.167H-127.266V-43.0835Z" fill="white"/>
</mask>
<g mask="url(#mask29_37_1563)">
<path d="M3.17495 147.614C3.64932 147.666 3.99526 148.096 3.9437 148.57L3.38495 153.713C3.33339 154.187 2.90326 154.533 2.42889 154.482C1.95451 154.43 1.60857 154 1.66014 153.526L2.21889 148.383C2.27045 147.908 2.70057 147.562 3.17495 147.614Z" fill="#00CC99"/>
</g>
<mask id="mask30_37_1563" style="mask-type:luminance" maskUnits="userSpaceOnUse" x="-128" y="-44" width="282" height="283">
<path d="M-127.266 -43.0835H153.984V238.167H-127.266V-43.0835Z" fill="white"/>
</mask>
<g mask="url(#mask30_37_1563)">
<path d="M28.1777 131.569C28.1777 142.327 36.8989 151.048 47.6569 151.048H83.2275C93.9855 151.048 102.707 142.327 102.707 131.569V84.0213H28.1777V131.569Z" fill="#28507C"/>
</g>
<mask id="mask31_37_1563" style="mask-type:luminance" maskUnits="userSpaceOnUse" x="28" y="84" width="75" height="68">
<path d="M28.1776 84.0213V131.569C28.1776 142.327 36.8988 151.048 47.6568 151.048H83.2275C93.9855 151.048 102.707 142.327 102.707 131.569V84.0213H28.1776Z" fill="white"/>
</mask>
<g mask="url(#mask31_37_1563)">
<path d="M93.7601 82.8483C93.6159 89.7785 93.7412 96.7098 93.8906 103.639C94.0316 110.171 94.1979 116.705 94.0984 123.239C94.0717 124.98 94.0256 126.721 93.9521 128.461C93.8814 130.139 93.8469 131.843 93.6296 133.509C93.6924 133.041 93.7554 132.572 93.8184 132.104C93.6298 133.466 93.2527 134.788 92.721 136.055C92.8983 135.634 93.0759 135.213 93.2535 134.793C92.643 136.22 91.8463 137.555 90.9007 138.786C91.1762 138.43 91.4514 138.073 91.7268 137.717C90.6909 139.049 89.4926 140.241 88.1572 141.273C88.5137 140.998 88.8701 140.723 89.2265 140.447C87.9065 141.455 86.4641 142.237 84.9388 142.887C85.3595 142.71 85.7801 142.532 86.2008 142.355C82.7334 143.815 79.0633 144.779 75.4453 145.784C71.2742 146.942 67.0886 148.052 62.8895 149.105C61.2847 149.508 59.6784 149.912 58.0601 150.258C57.3725 150.421 56.7737 150.736 56.2635 151.203C55.6882 151.575 55.2347 152.07 54.9028 152.685C54.5167 153.292 54.3077 153.946 54.2758 154.65C54.1187 155.352 54.15 156.054 54.3701 156.756C54.7839 158.034 55.5761 159.268 56.798 159.913C57.2188 160.091 57.6393 160.269 58.0601 160.446C58.9963 160.698 59.9327 160.698 60.869 160.446C65.2316 159.516 69.549 158.327 73.856 157.172C76.3796 156.495 78.8996 155.804 81.4102 155.081C83.1776 154.571 84.9513 154.064 86.6831 153.442C88.9018 152.645 91.1597 151.786 93.1697 150.538C94.2896 149.843 95.3394 149.018 96.3442 148.168C96.9877 147.623 97.5965 147.038 98.1654 146.416C99.5844 144.864 100.892 143.124 101.853 141.246C102.797 139.402 103.6 137.404 103.941 135.35C104.309 133.133 104.413 130.892 104.51 128.65C104.593 126.74 104.643 124.828 104.669 122.916C104.723 118.995 104.682 115.073 104.612 111.153C104.463 102.774 104.194 94.3951 104.277 86.0135C104.288 84.9582 104.304 83.9032 104.326 82.8483C104.354 81.5116 103.717 80.0512 102.779 79.1127C102.3 78.5975 101.734 78.2333 101.079 78.0203C100.449 77.6896 99.7704 77.5379 99.0431 77.5653C97.6768 77.6264 96.2597 78.0753 95.3074 79.1127C94.3473 80.1584 93.7901 81.407 93.7601 82.8483Z" fill="#1F4363"/>
</g>
<mask id="mask32_37_1563" style="mask-type:luminance" maskUnits="userSpaceOnUse" x="-128" y="-44" width="282" height="283">
<path d="M-127.266 -43.0835H153.984V238.167H-127.266V-43.0835Z" fill="white"/>
</mask>
<g mask="url(#mask32_37_1563)">
<path d="M136.691 47.2362C135.028 46.5226 133.219 47.3832 132.767 49.0964C131.443 54.1259 127.707 64.4901 121.754 71.8559C118.479 75.9079 105.873 84.5776 105.873 84.5776L94.9754 92.4233C93.6599 93.3702 93.4111 95.2735 94.4197 96.6743L95.0536 97.555C96.0622 98.9558 97.946 99.3239 99.2613 98.3768L106.134 93.4291C106.134 93.4291 127.162 78.6286 131.08 70.8486C136.927 59.2411 137.323 55.6546 138.57 51.0111C138.976 49.5008 138.159 47.8662 136.691 47.2362Z" fill="#00CC99"/>
</g>
<mask id="mask33_37_1563" style="mask-type:luminance" maskUnits="userSpaceOnUse" x="-128" y="-44" width="282" height="283">
<path d="M-127.266 -43.0835H153.984V238.167H-127.266V-43.0835Z" fill="white"/>
</mask>
<g mask="url(#mask33_37_1563)">
<path d="M68.1563 64.9517C68.7132 69.8893 65.7212 74.2806 61.4736 74.7597C57.226 75.2385 53.3312 71.6241 52.7743 66.6863" fill="#31AA7F"/>
</g>
<mask id="mask34_37_1563" style="mask-type:luminance" maskUnits="userSpaceOnUse" x="-128" y="-44" width="282" height="283">
<path d="M-127.266 -43.0835H153.984V238.167H-127.266V-43.0835Z" fill="white"/>
</mask>
<g mask="url(#mask34_37_1563)">
<path d="M68.1563 65.085C68.6353 69.3326 65.5802 73.1642 61.3326 73.6434C57.0852 74.1223 53.2534 71.0672 52.7743 66.8196" fill="#353535"/>
</g>
<mask id="mask35_37_1563" style="mask-type:luminance" maskUnits="userSpaceOnUse" x="-128" y="-44" width="282" height="283">
<path d="M-127.266 -43.0835H153.984V238.167H-127.266V-43.0835Z" fill="white"/>
</mask>
<g mask="url(#mask35_37_1563)">
<path d="M62.2379 83.254H72.878L67.558 92.4687L64.7028 97.4138C63.6072 99.3113 60.8686 99.3113 59.773 97.4138L56.9178 92.4687L51.5978 83.254H62.2379Z" fill="#00CC99"/>
</g>
</g>
<defs>
<clipPath id="clip0_37_1563">
<rect width="143.156" height="209.953" fill="white" transform="translate(0 0.791504)"/>
</clipPath>
</defs>
</svg>
