<svg width="20" height="21" viewBox="0 0 20 21" fill="none" xmlns="http://www.w3.org/2000/svg">
<g clip-path="url(#clip0_37_1442)">
<path d="M10.9519 0.991699C11.994 0.993421 12.522 0.998931 12.9783 1.01251L13.158 1.01839C13.3657 1.02577 13.5704 1.03503 13.8174 1.04661C14.8027 1.09213 15.4748 1.248 16.0651 1.47717C16.6753 1.7125 17.1908 2.0304 17.7054 2.54507C18.2193 3.05972 18.5373 3.5767 18.7734 4.1855C19.0018 4.775 19.1577 5.44784 19.204 6.43318C19.215 6.68009 19.2239 6.8849 19.2312 7.09254L19.237 7.27224C19.2505 7.7285 19.2568 8.25662 19.2587 9.29867L19.2594 9.98912C19.2596 10.0735 19.2595 10.1605 19.2595 10.2503L19.2594 10.5115L19.2589 11.202C19.2571 12.2441 19.2517 12.7721 19.238 13.2284L19.2321 13.4081C19.2248 13.6157 19.2155 13.8205 19.204 14.0675C19.1584 15.0527 19.0018 15.7248 18.7734 16.3152C18.538 16.9254 18.2193 17.4408 17.7054 17.9555C17.1908 18.4694 16.673 18.7874 16.0651 19.0235C15.4748 19.2518 14.8027 19.4077 13.8174 19.4541C13.5704 19.4651 13.3657 19.4739 13.158 19.4813L12.9783 19.4871C12.522 19.5006 11.994 19.5068 10.9519 19.5087L10.2615 19.5095C10.1771 19.5096 10.0901 19.5096 10.0003 19.5096L9.73906 19.5095L9.04861 19.5089C8.00656 19.5072 7.47844 19.5017 7.02218 19.4881L6.84248 19.4822C6.63484 19.4748 6.43003 19.4656 6.18312 19.4541C5.19778 19.4085 4.52648 19.2518 3.93544 19.0235C3.32586 18.7881 2.80966 18.4694 2.295 17.9555C1.78034 17.4408 1.46322 16.9231 1.2271 16.3152C0.997935 15.7248 0.842843 15.0527 0.796546 14.0675C0.785546 13.8205 0.776574 13.6157 0.769306 13.4081L0.763481 13.2284C0.749935 12.7721 0.743759 12.2441 0.741759 11.202L0.741638 9.29867C0.74336 8.25662 0.74887 7.7285 0.762454 7.27224L0.768334 7.09254C0.775713 6.8849 0.784973 6.68009 0.796546 6.43318C0.842065 5.44707 0.997935 4.77578 1.2271 4.1855C1.46244 3.57592 1.78034 3.05972 2.295 2.54507C2.80966 2.0304 3.32664 1.71328 3.93544 1.47717C4.52572 1.248 5.197 1.0929 6.18312 1.04661C6.43003 1.03561 6.63484 1.02663 6.84248 1.01937L7.02218 1.01354C7.47844 0.999996 8.00656 0.99382 9.04861 0.99182L10.9519 0.991699ZM10.0003 5.62068C7.442 5.62068 5.37062 7.69432 5.37062 10.2503C5.37062 12.8086 7.44426 14.8799 10.0003 14.8799C12.5585 14.8799 14.6299 12.8063 14.6299 10.2503C14.6299 7.69207 12.5562 5.62068 10.0003 5.62068ZM10.0003 7.47253C11.5344 7.47253 12.778 8.7157 12.778 10.2503C12.778 11.7845 11.5348 13.0281 10.0003 13.0281C8.4661 13.0281 7.22247 11.7848 7.22247 10.2503C7.22247 8.71617 8.46564 7.47253 10.0003 7.47253ZM14.8613 4.23179C14.2231 4.23179 13.704 4.75022 13.704 5.38841C13.704 6.0266 14.2224 6.54583 14.8613 6.54583C15.4995 6.54583 16.0188 6.0274 16.0188 5.38841C16.0188 4.75022 15.4987 4.23099 14.8613 4.23179Z" fill="#25292A"/>
</g>
<defs>
<clipPath id="clip0_37_1442">
<rect width="20" height="20" fill="white" transform="translate(0 0.25)"/>
</clipPath>
</defs>
</svg>
