<svg width="20" height="21" viewBox="0 0 20 21" fill="none" xmlns="http://www.w3.org/2000/svg">
<path d="M5.78375 4.41645C5.78345 5.09504 5.37175 5.70569 4.7428 5.96045C4.11385 6.21522 3.39324 6.06322 2.92077 5.57613C2.4483 5.08904 2.31831 4.36413 2.5921 3.74323C2.8659 3.12233 3.4888 2.72942 4.16709 2.74978C5.06798 2.77682 5.78416 3.51515 5.78375 4.41645ZM5.83375 7.31645H2.50042V17.7498H5.83375V7.31645ZM11.1004 7.31645H7.78375V17.7498H11.0671V12.2748C11.0671 9.22476 15.0421 8.94142 15.0421 12.2748V17.7498H18.3338V11.1415C18.3338 5.99978 12.4504 6.19145 11.0671 8.71642L11.1004 7.31645Z" fill="#25292A"/>
</svg>
