<svg width="355" height="195" viewBox="0 0 355 195" fill="none" xmlns="http://www.w3.org/2000/svg">
<g clip-path="url(#clip0_13_734)">
<mask id="mask0_13_734" style="mask-type:luminance" maskUnits="userSpaceOnUse" x="10" y="22" width="150" height="151">
<path d="M160 22.8838H10V172.884H160V22.8838Z" fill="white"/>
</mask>
<g mask="url(#mask0_13_734)">
<path fill-rule="evenodd" clip-rule="evenodd" d="M66.6619 156.973L66.6616 156.974L57.1853 147.498C57.2282 148.079 57.25 148.666 57.25 149.259C57.25 162.307 46.6727 172.884 33.625 172.884C20.5773 172.884 10 162.307 10 149.259C10 136.211 20.5773 125.634 33.625 125.634C34.2174 125.634 34.8048 125.656 35.3862 125.698L25.647 115.96L25.649 115.957C15.9688 106.082 10 92.5548 10 77.6338C10 47.3962 34.5124 22.8838 64.75 22.8838C79.671 22.8838 93.1982 28.8526 103.074 38.5328L103.075 38.531L103.368 38.8237C103.432 38.8876 103.496 38.9517 103.56 39.0159L112.814 48.2705C112.772 47.6889 112.75 47.1014 112.75 46.5088C112.75 33.461 123.327 22.8838 136.375 22.8838C149.423 22.8838 160 33.461 160 46.5088C160 59.5565 149.423 70.1338 136.375 70.1338C135.783 70.1338 135.195 70.112 134.613 70.0691L143.869 79.3248C143.933 79.388 143.996 79.4513 144.059 79.5148L144.089 79.5456C153.923 89.4433 160 103.079 160 118.134C160 148.372 135.488 172.884 105.25 172.884C90.1953 172.884 76.5596 166.807 66.6619 156.973Z" fill="url(#paint0_linear_13_734)"/>
</g>
</g>
<g clip-path="url(#clip1_13_734)">
<mask id="mask1_13_734" style="mask-type:luminance" maskUnits="userSpaceOnUse" x="-127" y="-102" width="298" height="298">
<path d="M-126.149 -101.816H170.672V195.005H-126.149V-101.816Z" fill="white"/>
</mask>
<g mask="url(#mask1_13_734)">
<path d="M101.583 172.659H99.4404V141.45C99.5522 141.442 99.6642 141.434 99.776 141.426C100.18 141.396 100.605 141.36 100.939 141.131L99.4404 141.262V137.087H87.3586V142.314L85.8603 142.444C86.3597 142.408 86.8594 142.371 87.3586 142.334V175.344V175.868C87.3586 177.345 88.5671 178.553 90.0443 178.553H101.583C103.06 178.553 104.269 177.345 104.269 175.868V175.344C104.269 173.867 103.06 172.659 101.583 172.659Z" fill="#FFCC02"/>
</g>
<mask id="mask2_13_734" style="mask-type:luminance" maskUnits="userSpaceOnUse" x="85" y="137" width="20" height="42">
<path d="M87.3586 137.087V142.313L85.8603 142.444C86.3597 142.407 86.8594 142.371 87.3586 142.334V175.344V175.868C87.3586 177.345 88.5671 178.553 90.0441 178.553H101.583C103.06 178.553 104.269 177.345 104.269 175.868V175.344C104.269 173.867 103.06 172.658 101.583 172.658H99.4402V141.45C99.5522 141.442 99.6642 141.434 99.776 141.426C100.18 141.396 100.605 141.359 100.939 141.131L99.4402 141.262V137.087H87.3586Z" fill="white"/>
</mask>
<g mask="url(#mask2_13_734)">
<path d="M82.8869 145.095L106.605 145.518L105.616 140.577L80.6069 140.718L82.8869 145.095Z" fill="#F2BA08"/>
</g>
<mask id="mask3_13_734" style="mask-type:luminance" maskUnits="userSpaceOnUse" x="85" y="137" width="20" height="42">
<path d="M87.3586 137.087V142.313L85.8603 142.444C86.3597 142.407 86.8594 142.371 87.3586 142.334V175.344V175.868C87.3586 177.345 88.5671 178.553 90.0441 178.553H101.583C103.06 178.553 104.269 177.345 104.269 175.868V175.344C104.269 173.867 103.06 172.658 101.583 172.658H99.4402V141.45C99.5522 141.442 99.6642 141.434 99.776 141.426C100.18 141.396 100.605 141.359 100.939 141.131L99.4402 141.262V137.087H87.3586Z" fill="white"/>
</mask>
<g mask="url(#mask3_13_734)">
<path d="M85.2869 142.594L85.8601 178.553L93.6162 179.074L88.675 141.707L85.2869 142.594Z" fill="#F2BA08"/>
</g>
<mask id="mask4_13_734" style="mask-type:luminance" maskUnits="userSpaceOnUse" x="-127" y="-102" width="298" height="298">
<path d="M-126.149 -101.816H170.672V195.005H-126.149V-101.816Z" fill="white"/>
</mask>
<g mask="url(#mask4_13_734)">
<path d="M95.6167 43.8606C97.7807 34.3687 101.842 24.1232 112.272 21.5827C114.728 20.9847 113.688 17.1943 111.228 17.7934C99.4176 20.67 94.3042 31.9518 91.8277 42.816C91.2663 45.278 95.0539 46.3292 95.6167 43.8606Z" fill="#FFCC02"/>
</g>
<mask id="mask5_13_734" style="mask-type:luminance" maskUnits="userSpaceOnUse" x="91" y="17" width="23" height="29">
<path d="M111.228 17.7933C99.4175 20.6699 94.3041 31.9517 91.8276 42.8159C91.2663 45.2779 95.0539 46.3291 95.6166 43.8605C97.7807 34.3686 101.843 24.1231 112.272 21.5827C114.549 21.0281 113.821 17.7296 111.742 17.7294C111.578 17.7294 111.407 17.7496 111.228 17.7933Z" fill="white"/>
</mask>
<g mask="url(#mask5_13_734)">
<path d="M92.0133 37.7497C94.7714 38.2485 97.5718 38.5111 100.375 38.4832C101.381 38.4731 102.346 37.6052 102.299 36.5586C102.253 35.5247 101.454 34.6236 100.375 34.6342C98.3855 34.654 96.3978 34.5323 94.4255 34.2699C94.5961 34.2929 94.7666 34.3157 94.937 34.3386C94.3014 34.2525 93.6678 34.1524 93.0366 34.0382C92.5173 33.9444 92.0232 33.9575 91.5536 34.2323C91.1543 34.4658 90.7736 34.9235 90.6691 35.3824C90.5571 35.875 90.5813 36.428 90.8632 36.8653C91.1209 37.2649 91.5267 37.6616 92.0133 37.7497Z" fill="#EFB703"/>
</g>
<mask id="mask6_13_734" style="mask-type:luminance" maskUnits="userSpaceOnUse" x="-127" y="-102" width="298" height="298">
<path d="M-126.149 -101.816H170.672V195.005H-126.149V-101.816Z" fill="white"/>
</mask>
<g mask="url(#mask6_13_734)">
<path d="M158.158 76.6624C156.445 75.9904 153.568 75.1726 152.126 79.4347C150.395 84.5541 143.641 96.6258 137.234 104.361C133.709 108.616 121.886 119.918 121.886 119.918L110.311 128.314C108.914 129.328 108.603 131.282 109.616 132.679L110.253 133.557C111.267 134.954 113.221 135.265 114.618 134.252L124.487 129.309C124.487 129.309 145.013 108.849 149.928 101.121C158.476 87.6806 158.099 86.4494 159.552 81.6676C160.976 76.9798 158.158 76.6624 158.158 76.6624Z" fill="#FFCC02"/>
</g>
<mask id="mask7_13_734" style="mask-type:luminance" maskUnits="userSpaceOnUse" x="109" y="76" width="51" height="59">
<path d="M152.127 79.4346C150.395 84.554 143.641 96.6257 137.234 104.361C133.709 108.616 121.886 119.918 121.886 119.918L110.311 128.314C108.914 129.327 108.603 131.281 109.616 132.678L110.254 133.557C111.267 134.954 113.221 135.265 114.618 134.252L124.487 129.309C124.487 129.309 145.014 108.849 149.928 101.121C158.476 87.6805 158.099 86.4493 159.552 81.6675C160.976 76.9799 158.158 76.6623 158.158 76.6623C157.494 76.4019 156.655 76.1195 155.793 76.1195C154.43 76.1195 153.01 76.8244 152.127 79.4346Z" fill="white"/>
</mask>
<g mask="url(#mask7_13_734)">
<path d="M142.312 116.484C142.904 111.618 141.993 106.754 141.953 101.885C141.941 100.498 142.01 99.1125 142.179 97.7348C142.234 97.2803 141.924 96.6827 141.615 96.374C141.281 96.0404 140.734 95.7891 140.254 95.8105C139.757 95.8328 139.24 95.9963 138.894 96.374C138.793 96.5038 138.693 96.6338 138.593 96.7634C138.418 97.0636 138.331 97.3876 138.33 97.7348C137.731 102.63 138.597 107.499 138.662 112.395C138.68 113.761 138.628 115.127 138.463 116.484C138.408 116.939 138.718 117.536 139.027 117.845C139.361 118.178 139.908 118.43 140.388 118.408C140.886 118.386 141.402 118.223 141.749 117.845C141.849 117.715 141.949 117.585 142.05 117.455C142.224 117.155 142.311 116.831 142.312 116.484Z" fill="#EFB703"/>
</g>
<mask id="mask8_13_734" style="mask-type:luminance" maskUnits="userSpaceOnUse" x="-127" y="-102" width="298" height="298">
<path d="M-126.149 -101.816H170.672V195.005H-126.149V-101.816Z" fill="white"/>
</mask>
<g mask="url(#mask8_13_734)">
<path d="M15.4703 75.0781C17.184 74.4061 20.0601 73.5883 21.5021 77.8504C23.2339 82.9696 29.9874 95.0415 36.3944 102.776C39.9192 107.031 51.7428 118.334 51.7428 118.334L63.3176 126.73C64.7146 127.743 65.0257 129.697 64.0124 131.095L63.3752 131.973C62.3618 133.37 60.4078 133.681 59.0105 132.667L49.1418 127.725C49.1418 127.725 28.6151 107.265 23.7004 99.5367C15.1525 86.0963 15.5295 84.8649 14.077 80.0833C12.6531 75.3955 15.4703 75.0781 15.4703 75.0781Z" fill="#FFCC02"/>
</g>
<mask id="mask9_13_734" style="mask-type:luminance" maskUnits="userSpaceOnUse" x="13" y="74" width="52" height="60">
<path d="M15.4702 75.0781C15.4702 75.0781 12.653 75.3953 14.077 80.0833C15.5294 84.8649 15.1523 86.0963 23.7003 99.5367C28.6151 107.265 49.1418 127.725 49.1418 127.725L59.0105 132.667C60.4075 133.681 62.3618 133.37 63.3751 131.973L64.0121 131.094C65.0254 129.697 64.7146 127.743 63.3175 126.73L51.7427 118.334C51.7427 118.334 39.9192 107.031 36.3943 102.776C29.9876 95.0413 23.2341 82.9694 21.502 77.8504C20.6191 75.24 19.1981 74.5351 17.8355 74.5351C16.9733 74.5351 16.1343 74.8175 15.4702 75.0781Z" fill="white"/>
</mask>
<g mask="url(#mask9_13_734)">
<path d="M35.4088 113.157C36.0007 108.291 35.0895 103.427 35.0493 98.5581C35.0378 97.1704 35.1069 95.7852 35.2753 94.4076C35.3309 93.953 35.0202 93.3554 34.7119 93.0469C34.3779 92.7131 33.8302 92.4618 33.3511 92.4832C32.8532 92.5055 32.3371 92.669 31.9903 93.0469C31.8899 93.1766 31.7896 93.3066 31.6893 93.4364C31.5151 93.7364 31.4277 94.0603 31.4265 94.4076C30.8277 99.3025 31.6934 104.171 31.7583 109.068C31.7765 110.434 31.7251 111.8 31.5601 113.157C31.5049 113.611 31.8149 114.209 32.1236 114.517C32.4575 114.851 33.0052 115.103 33.4845 115.081C33.9821 115.059 34.4982 114.895 34.8451 114.517C34.9454 114.388 35.0457 114.258 35.1461 114.128C35.3202 113.828 35.4079 113.504 35.4088 113.157Z" fill="#EFB703"/>
</g>
<mask id="mask10_13_734" style="mask-type:luminance" maskUnits="userSpaceOnUse" x="-127" y="-102" width="298" height="298">
<path d="M-126.149 -101.816H170.672V195.005H-126.149V-101.816Z" fill="white"/>
</mask>
<g mask="url(#mask10_13_734)">
<path d="M70.7039 173.476L68.1552 172.301L80.6068 139.019L69.8431 134.992L67.2774 141.851L63.4173 141.515C63.7513 141.743 64.1764 141.78 64.5801 141.809C65.4602 141.874 66.3404 141.938 67.2204 142.003L56.9334 169.499C56.8297 169.64 56.7379 169.794 56.6619 169.959L56.4424 170.435C55.8241 171.776 56.4155 173.379 57.7566 173.998L68.2359 178.829C69.5773 179.447 71.1804 178.856 71.7987 177.515L72.0182 177.039C72.6366 175.698 72.0449 174.094 70.7039 173.476Z" fill="#FFCC02"/>
</g>
<mask id="mask11_13_734" style="mask-type:luminance" maskUnits="userSpaceOnUse" x="56" y="134" width="25" height="46">
<path d="M67.2774 141.851L63.4171 141.515C63.7513 141.743 64.1762 141.78 64.5801 141.809C65.4602 141.874 66.3404 141.938 67.2206 142.003L56.9334 169.499C56.8295 169.64 56.7379 169.794 56.6619 169.959L56.4424 170.435C55.8241 171.776 56.4155 173.379 57.7566 173.998L68.2361 178.829C69.5773 179.447 71.1804 178.856 71.7987 177.515L72.0182 177.039C72.6366 175.698 72.0449 174.094 70.7039 173.476L68.1552 172.301L80.6066 139.019L69.8431 134.992L67.2774 141.851Z" fill="white"/>
</mask>
<g mask="url(#mask11_13_734)">
<path d="M77.6081 139.024L65.4163 172.658L69.7451 172.301L80.6067 139.019L77.5537 137.709L77.6081 139.024Z" fill="#F2BA08"/>
</g>
<mask id="mask12_13_734" style="mask-type:luminance" maskUnits="userSpaceOnUse" x="56" y="134" width="25" height="46">
<path d="M67.2774 141.851L63.4171 141.515C63.7513 141.743 64.1762 141.78 64.5801 141.809C65.4602 141.874 66.3404 141.938 67.2206 142.002L56.9334 169.499C56.8295 169.64 56.7379 169.794 56.6619 169.959L56.4424 170.435C55.8241 171.776 56.4155 173.379 57.7566 173.998L68.2361 178.829C69.5773 179.447 71.1804 178.856 71.7987 177.514L72.0182 177.039C72.6366 175.697 72.0449 174.094 70.7039 173.476L68.1552 172.301L80.6066 139.019L69.8431 134.992L67.2774 141.851Z" fill="white"/>
</mask>
<g mask="url(#mask12_13_734)">
<path d="M65.8398 173.119L72.0867 176.507C72.0867 176.507 74.0566 174.146 68.1552 172.301C66.3691 171.742 65.4161 172.658 65.4161 172.658L65.8398 173.119Z" fill="#F2BA08"/>
</g>
<mask id="mask13_13_734" style="mask-type:luminance" maskUnits="userSpaceOnUse" x="-127" y="-102" width="298" height="298">
<path d="M-126.149 -101.816H170.672V195.005H-126.149V-101.816Z" fill="white"/>
</mask>
<g mask="url(#mask13_13_734)">
<path d="M117.267 142.593H56.4643C43.739 142.593 33.4231 132.277 33.4231 119.552V58.7495C33.4231 46.0242 43.739 35.7083 56.4643 35.7083H117.267C129.993 35.7083 140.308 46.0242 140.308 58.7495V119.552C140.308 132.277 129.993 142.593 117.267 142.593Z" fill="#FFCC02"/>
</g>
<mask id="mask14_13_734" style="mask-type:luminance" maskUnits="userSpaceOnUse" x="33" y="35" width="108" height="108">
<path d="M56.4642 35.7081C43.7391 35.7081 33.423 46.024 33.423 58.7493V119.552C33.423 132.278 43.7391 142.593 56.4642 142.593H117.267C129.992 142.593 140.308 132.278 140.308 119.552V58.7493C140.308 46.024 129.992 35.7081 117.267 35.7081H56.4642Z" fill="white"/>
</mask>
<g mask="url(#mask14_13_734)">
<path d="M53.3876 35.9516C53.3876 35.9516 44.9102 98.9302 51.4044 116.436C57.8985 133.942 70.8116 142.265 70.8116 142.265L33.423 142.593L25.9924 38.224L53.3876 35.9516Z" fill="#EFB807"/>
</g>
<mask id="mask15_13_734" style="mask-type:luminance" maskUnits="userSpaceOnUse" x="-127" y="-102" width="298" height="298">
<path d="M-126.149 -101.816H170.672V195.005H-126.149V-101.816Z" fill="white"/>
</mask>
<g mask="url(#mask15_13_734)">
<path d="M94.2791 69.5152C94.2791 76.6947 88.459 82.5148 81.2795 82.5148C74.1 82.5148 68.28 76.6947 68.28 69.5152C68.28 62.3357 74.1 56.5157 81.2795 56.5157C88.459 56.5157 94.2791 62.3357 94.2791 69.5152Z" fill="#EDBF00"/>
</g>
<mask id="mask16_13_734" style="mask-type:luminance" maskUnits="userSpaceOnUse" x="-127" y="-102" width="298" height="298">
<path d="M-126.149 -101.816H170.672V195.005H-126.149V-101.816Z" fill="white"/>
</mask>
<g mask="url(#mask16_13_734)">
<path d="M96.5596 69.4523C96.5596 76.5624 90.7957 82.3264 83.6855 82.3264C76.5754 82.3264 70.8116 76.5624 70.8116 69.4523C70.8116 62.3421 76.5754 56.5782 83.6855 56.5782C90.7957 56.5782 96.5596 62.3421 96.5596 69.4523Z" fill="white"/>
</g>
<mask id="mask17_13_734" style="mask-type:luminance" maskUnits="userSpaceOnUse" x="-127" y="-102" width="298" height="298">
<path d="M-126.149 -101.816H170.672V195.005H-126.149V-101.816Z" fill="white"/>
</mask>
<g mask="url(#mask17_13_734)">
<path d="M122.941 69.5152C122.941 76.6947 117.121 82.5148 109.941 82.5148C102.762 82.5148 96.9415 76.6947 96.9415 69.5152C96.9415 62.3357 102.762 56.5157 109.941 56.5157C117.121 56.5157 122.941 62.3357 122.941 69.5152Z" fill="#EDBF00"/>
</g>
<mask id="mask18_13_734" style="mask-type:luminance" maskUnits="userSpaceOnUse" x="-127" y="-102" width="298" height="298">
<path d="M-126.149 -101.816H170.672V195.005H-126.149V-101.816Z" fill="white"/>
</mask>
<g mask="url(#mask18_13_734)">
<path d="M122.723 69.3047C122.723 76.0614 117.245 81.5387 110.489 81.5387C103.732 81.5387 98.255 76.0614 98.255 69.3047C98.255 62.5481 103.732 57.0708 110.489 57.0708C117.245 57.0708 122.723 62.5481 122.723 69.3047Z" fill="white"/>
</g>
<mask id="mask19_13_734" style="mask-type:luminance" maskUnits="userSpaceOnUse" x="-127" y="-102" width="298" height="298">
<path d="M-126.149 -101.816H170.672V195.005H-126.149V-101.816Z" fill="white"/>
</mask>
<g mask="url(#mask19_13_734)">
<path d="M119.851 69.3049C119.851 72.6831 117.113 75.422 113.734 75.422C110.356 75.422 107.617 72.6831 107.617 69.3049C107.617 65.9265 110.356 63.1878 113.734 63.1878C117.113 63.1878 119.851 65.9265 119.851 69.3049Z" fill="#353535"/>
</g>
<mask id="mask20_13_734" style="mask-type:luminance" maskUnits="userSpaceOnUse" x="-127" y="-102" width="298" height="298">
<path d="M-126.149 -101.816H170.672V195.005H-126.149V-101.816Z" fill="white"/>
</mask>
<g mask="url(#mask20_13_734)">
<path d="M94.3917 69.5185C94.3917 73.0736 91.5098 75.9556 87.9547 75.9556C84.3996 75.9556 81.5176 73.0736 81.5176 69.5185C81.5176 65.9634 84.3996 63.0815 87.9547 63.0815C91.5098 63.0815 94.3917 65.9634 94.3917 69.5185Z" fill="#353535"/>
</g>
<mask id="mask21_13_734" style="mask-type:luminance" maskUnits="userSpaceOnUse" x="-127" y="-102" width="298" height="298">
<path d="M-126.149 -101.816H170.672V195.004H-126.149V-101.816Z" fill="white"/>
</mask>
<g mask="url(#mask21_13_734)">
<path d="M95.5584 42.9279C95.4321 34.3333 90.0945 27.6653 82.9467 23.4143C80.768 22.1186 78.7894 25.5144 80.9633 26.8073C86.9108 30.3444 91.5228 35.7199 91.6289 42.9279C91.6659 45.4542 95.5956 45.4617 95.5584 42.9279Z" fill="#FFCC02"/>
</g>
<mask id="mask22_13_734" style="mask-type:luminance" maskUnits="userSpaceOnUse" x="-127" y="-102" width="298" height="298">
<path d="M-126.149 -101.816H170.672V195.005H-126.149V-101.816Z" fill="white"/>
</mask>
<g mask="url(#mask22_13_734)">
<path d="M105.172 89.3511C104.621 94.0753 100.345 97.4586 95.621 96.9079C90.8968 96.3572 87.5137 92.081 88.0644 87.3568" fill="#353535"/>
</g>
<mask id="mask23_13_734" style="mask-type:luminance" maskUnits="userSpaceOnUse" x="-127" y="-102" width="298" height="298">
<path d="M-126.149 -101.816H170.672V195.005H-126.149V-101.816Z" fill="white"/>
</mask>
<g mask="url(#mask23_13_734)">
<path d="M111.96 105.71C110.843 111.259 107.803 112.934 97.5691 112.934C87.3362 112.934 84.6252 111.259 83.5082 105.71L33.423 102.295V119.552C33.423 132.277 43.7389 142.593 56.4644 142.593H117.267C129.992 142.593 140.308 132.277 140.308 119.552V102.295L111.96 105.71Z" fill="#FFE1C5"/>
</g>
<mask id="mask24_13_734" style="mask-type:luminance" maskUnits="userSpaceOnUse" x="33" y="102" width="108" height="41">
<path d="M111.96 105.71C110.843 111.259 107.803 112.934 97.5693 112.934C87.3361 112.934 84.6251 111.259 83.5081 105.71L33.423 102.295V119.552C33.423 132.278 43.7391 142.593 56.4644 142.593H117.267C129.992 142.593 140.308 132.278 140.308 119.552V102.295L111.96 105.71Z" fill="white"/>
</mask>
<g mask="url(#mask24_13_734)">
<path d="M49.2615 103.899C49.2615 103.899 46.6043 138.279 60.7221 140.436L74.8399 142.593L47.3102 143.401L20.3454 122.444L28.2513 102.295L49.1178 101.351L49.2615 103.899Z" fill="#EFE1B9"/>
</g>
</g>
<g clip-path="url(#clip2_13_734)">
<path d="M248.223 57.884V79.1275H250.406L250.554 76.2358C251.38 78.1238 253.21 79.54 256.336 79.54C260.761 79.54 263.978 76.7367 263.978 71.5445C263.978 66.3814 260.822 63.4897 256.455 63.4897C253.681 63.4897 251.646 64.6399 250.584 66.7939V57.8829H248.223V57.884ZM256.072 77.2977C252.62 77.2977 250.584 75.1438 250.584 71.5143C250.584 67.886 252.619 65.7309 256.072 65.7309C259.524 65.7309 261.501 67.8849 261.501 71.5143C261.501 75.1438 259.525 77.2977 256.072 77.2977ZM282.331 75.6747L280.237 74.5827C279.38 76.1465 277.787 77.2967 275.339 77.2967C272.448 77.2967 270.441 75.7038 270.146 72.4287H282.804V72.1336C282.804 65.4068 279.205 63.4887 275.369 63.4887C270.855 63.4887 267.639 66.2619 267.639 71.5725C267.639 76.6473 270.56 79.539 275.428 79.539C278.91 79.539 281.181 78.0635 282.332 75.6737L282.331 75.6747ZM275.221 65.7309C277.789 65.7309 280.001 67.1181 280.296 70.3049H270.204C270.588 67.2064 272.565 65.7309 275.22 65.7309H275.221ZM286.817 57.8829V76.4707C286.817 78.3295 287.879 79.539 289.885 79.539C290.505 79.539 291.124 79.4216 291.655 79.2439V77.2084L291.596 77.1492C291.065 77.2666 290.681 77.2967 290.386 77.2967C289.53 77.2967 289.177 77.0016 289.177 76.2348V57.8829H286.816H286.817ZM309.948 63.9022H307.765L307.618 66.8822C306.585 64.669 304.519 63.4897 301.716 63.4897C297.35 63.4897 294.192 66.3814 294.192 71.5445C294.192 76.7367 297.408 79.54 301.834 79.54C304.962 79.54 306.792 78.1238 307.618 76.2358L307.765 79.1275H309.948V63.9032V63.9022ZM302.1 77.2967C298.649 77.2967 296.671 75.1427 296.671 71.5133C296.671 67.8849 298.649 65.7299 302.1 65.7299C305.552 65.7299 307.588 67.8839 307.588 71.5133C307.588 75.1427 305.552 77.2967 302.1 77.2967ZM317.147 82.1647V63.9012H314.786V81.9579C314.786 82.7248 314.432 83.0791 313.547 83.0791C313.075 83.0791 312.602 82.9907 312.071 82.8723L312.012 82.9315V84.9961C312.572 85.1738 313.252 85.3203 313.988 85.3203C316.231 85.3203 317.145 84.0225 317.145 82.1637L317.147 82.1647ZM337.181 63.9012H334.998L334.852 66.8812C333.819 64.668 331.753 63.4887 328.95 63.4887C324.583 63.4887 321.426 66.3804 321.426 71.5434C321.426 76.7356 324.642 79.539 329.068 79.539C332.196 79.539 334.025 78.1228 334.852 76.2348L334.998 79.1265H337.181V63.9022V63.9012ZM329.333 77.2957C325.881 77.2957 323.904 75.1417 323.904 71.5123C323.904 67.8839 325.88 65.7289 329.333 65.7289C332.785 65.7289 334.821 67.8828 334.821 71.5123C334.821 75.1417 332.786 77.2957 329.333 77.2957ZM341.548 63.9012V79.1255H343.909V70.2155C343.909 67.4423 345.561 65.9076 348.424 65.9076C348.985 65.9076 349.515 65.9668 350.106 66.0551V63.7536C349.604 63.6653 349.161 63.6362 348.749 63.6362C346.241 63.6362 344.677 64.6981 343.881 66.6453L343.733 63.9012H341.55H341.548Z" fill="#333333"/>
<path fill-rule="evenodd" clip-rule="evenodd" d="M208.721 57.9297C216.391 57.9297 222.608 71.2369 222.608 87.6509C222.608 104.066 216.391 117.372 208.721 117.372C201.052 117.372 194.834 104.066 194.834 87.6509C194.834 71.2359 201.052 57.9297 208.721 57.9297Z" fill="#FFCC00" fill-opacity="0.301961"/>
<path fill-rule="evenodd" clip-rule="evenodd" d="M223.583 61.9113C230.225 65.7465 228.956 80.3796 220.749 94.5949C212.542 108.81 200.504 117.226 193.862 113.39C187.22 109.555 188.489 94.9222 196.696 80.7069C204.904 66.4905 216.941 58.0762 223.584 61.9103L223.583 61.9113Z" fill="#FFCC00" fill-opacity="0.301961"/>
<path fill-rule="evenodd" clip-rule="evenodd" d="M193.861 61.9113C187.219 65.7465 188.488 80.3796 196.695 94.5949C204.903 108.81 216.94 117.226 223.583 113.39C230.225 109.555 228.956 94.9222 220.749 80.7069C212.542 66.4905 200.504 58.0762 193.862 61.9103L193.861 61.9113Z" fill="#FFCC00" fill-opacity="0.301961"/>
<path fill-rule="evenodd" clip-rule="evenodd" d="M234.462 72.7903C238.297 79.433 229.882 91.4705 215.666 99.6781C201.45 107.886 186.818 109.154 182.983 102.512C179.148 95.8699 187.563 83.8314 201.778 75.6239C215.994 67.4163 230.627 66.1476 234.462 72.7903Z" fill="#FFCC00" fill-opacity="0.301961"/>
<path fill-rule="evenodd" clip-rule="evenodd" d="M182.982 72.7903C179.147 79.433 187.562 91.4705 201.777 99.6781C215.993 107.886 230.626 109.154 234.461 102.512C238.296 95.8699 229.881 83.8314 215.665 75.6239C201.449 67.4163 186.817 66.1476 182.982 72.7903Z" fill="#FFCC00" fill-opacity="0.301961"/>
<path fill-rule="evenodd" clip-rule="evenodd" d="M238.444 87.6519C238.444 79.9826 225.136 73.7649 208.722 73.7649C192.307 73.7649 179.001 79.9826 179.001 87.6519C179.001 95.3212 192.308 101.539 208.722 101.539C225.137 101.539 238.444 95.3212 238.444 87.6519Z" fill="#FFCC00" fill-opacity="0.301961"/>
<path d="M251.175 127.419C250.502 127.419 249.907 127.271 249.392 126.976C248.877 126.681 248.471 126.274 248.176 125.754C247.881 125.235 247.734 124.638 247.734 123.965C247.734 123.283 247.881 122.684 248.176 122.163C248.471 121.644 248.877 121.236 249.392 120.941C249.907 120.646 250.502 120.499 251.175 120.499C251.84 120.499 252.43 120.646 252.945 120.941C253.46 121.236 253.865 121.644 254.16 122.163C254.455 122.683 254.603 123.283 254.603 123.965C254.603 124.638 254.458 125.235 254.167 125.754C253.876 126.274 253.472 126.681 252.957 126.976C252.442 127.271 251.847 127.419 251.175 127.419ZM251.175 126.297C251.607 126.297 251.99 126.197 252.322 125.997C252.655 125.798 252.915 125.524 253.102 125.174C253.289 124.825 253.382 124.422 253.382 123.965C253.382 123.508 253.289 123.103 253.102 122.749C252.915 122.396 252.655 122.12 252.322 121.92C251.99 121.721 251.607 121.621 251.175 121.621C250.743 121.621 250.361 121.721 250.028 121.92C249.696 122.12 249.434 122.396 249.242 122.749C249.051 123.103 248.956 123.508 248.956 123.965C248.956 124.422 249.051 124.825 249.242 125.174C249.434 125.524 249.696 125.798 250.028 125.997C250.361 126.197 250.743 126.297 251.175 126.297Z" fill="#333333"/>
<path d="M258.119 127.369C257.753 127.369 257.429 127.269 257.147 127.07C256.864 126.87 256.644 126.6 256.486 126.259C256.328 125.918 256.249 125.519 256.249 125.062V118.255C256.249 118.064 256.305 117.913 256.417 117.8C256.529 117.688 256.681 117.632 256.872 117.632C257.055 117.632 257.205 117.688 257.321 117.8C257.438 117.913 257.496 118.064 257.496 118.255V125.062C257.496 125.37 257.554 125.623 257.67 125.823C257.787 126.022 257.936 126.122 258.119 126.122H258.431C258.597 126.122 258.732 126.18 258.836 126.297C258.94 126.413 258.992 126.563 258.992 126.746C258.992 126.937 258.913 127.088 258.755 127.201C258.597 127.313 258.393 127.369 258.144 127.369H258.119Z" fill="#333333"/>
<path d="M263.068 127.419C262.378 127.419 261.766 127.271 261.229 126.976C260.693 126.681 260.273 126.274 259.97 125.754C259.666 125.235 259.515 124.638 259.515 123.965C259.515 123.283 259.658 122.684 259.945 122.163C260.232 121.644 260.628 121.236 261.136 120.941C261.643 120.646 262.224 120.499 262.881 120.499C263.53 120.499 264.086 120.642 264.552 120.929C265.017 121.216 265.373 121.61 265.618 122.113C265.863 122.616 265.986 123.196 265.986 123.853C265.986 124.011 265.932 124.142 265.824 124.246C265.716 124.349 265.579 124.401 265.412 124.401H260.388V123.404H265.375L264.864 123.753C264.855 123.337 264.772 122.965 264.614 122.637C264.456 122.309 264.232 122.049 263.941 121.858C263.65 121.667 263.297 121.571 262.881 121.571C262.407 121.571 262.002 121.675 261.665 121.883C261.329 122.09 261.073 122.375 260.899 122.737C260.724 123.098 260.637 123.508 260.637 123.965C260.637 124.422 260.741 124.829 260.948 125.187C261.156 125.544 261.443 125.827 261.809 126.035C262.175 126.243 262.594 126.346 263.068 126.346C263.326 126.346 263.59 126.299 263.86 126.203C264.13 126.107 264.348 125.997 264.515 125.873C264.639 125.781 264.774 125.733 264.92 125.729C265.065 125.725 265.192 125.769 265.3 125.86C265.441 125.985 265.516 126.122 265.524 126.272C265.533 126.421 265.466 126.55 265.325 126.658C265.042 126.883 264.691 127.066 264.271 127.207C263.852 127.348 263.451 127.419 263.068 127.419Z" fill="#333333"/>
<path d="M268.242 124.889C268.059 124.889 267.907 124.828 267.787 124.708C267.666 124.587 267.606 124.436 267.606 124.253V118.269C267.606 118.078 267.666 117.924 267.787 117.807C267.907 117.691 268.059 117.633 268.242 117.633C268.433 117.633 268.587 117.691 268.703 117.807C268.819 117.924 268.878 118.078 268.878 118.269V124.253C268.878 124.436 268.819 124.587 268.703 124.708C268.587 124.828 268.433 124.889 268.242 124.889ZM273.365 127.382C273.182 127.382 273.031 127.322 272.91 127.202C272.79 127.081 272.729 126.929 272.729 126.747V123.68C272.729 123.206 272.642 122.82 272.467 122.521C272.293 122.221 272.058 121.999 271.763 121.854C271.468 121.708 271.129 121.635 270.747 121.635C270.398 121.635 270.082 121.706 269.799 121.847C269.517 121.989 269.292 122.178 269.126 122.415C268.96 122.652 268.876 122.924 268.876 123.231H268.091C268.091 122.708 268.218 122.24 268.471 121.83C268.725 121.418 269.072 121.092 269.512 120.851C269.953 120.61 270.448 120.489 270.996 120.489C271.57 120.489 272.083 120.612 272.536 120.857C272.989 121.102 273.347 121.462 273.608 121.936C273.87 122.409 274.001 122.991 274.001 123.681V126.748C274.001 126.93 273.941 127.082 273.82 127.203C273.7 127.323 273.548 127.383 273.365 127.383V127.382ZM268.242 127.382C268.059 127.382 267.907 127.322 267.787 127.202C267.666 127.081 267.606 126.929 267.606 126.747V121.187C267.606 120.995 267.666 120.842 267.787 120.725C267.907 120.609 268.059 120.551 268.242 120.551C268.433 120.551 268.587 120.609 268.703 120.725C268.819 120.842 268.878 120.995 268.878 121.187V126.747C268.878 126.929 268.819 127.081 268.703 127.202C268.587 127.322 268.433 127.382 268.242 127.382Z" fill="#333333"/>
<path d="M281.394 127.369C281.028 127.369 280.704 127.269 280.421 127.07C280.139 126.87 279.919 126.6 279.761 126.259C279.603 125.918 279.524 125.519 279.524 125.062V118.255C279.524 118.064 279.58 117.913 279.692 117.8C279.804 117.688 279.956 117.632 280.147 117.632C280.33 117.632 280.48 117.688 280.596 117.8C280.712 117.913 280.771 118.064 280.771 118.255V125.062C280.771 125.37 280.829 125.623 280.945 125.823C281.062 126.022 281.211 126.122 281.394 126.122H281.706C281.872 126.122 282.007 126.18 282.111 126.297C282.215 126.413 282.267 126.563 282.267 126.746C282.267 126.937 282.188 127.088 282.03 127.201C281.872 127.313 281.668 127.369 281.419 127.369H281.394Z" fill="#333333"/>
<path d="M286.38 127.431C285.807 127.431 285.294 127.309 284.841 127.063C284.388 126.818 284.03 126.459 283.768 125.985C283.506 125.511 283.376 124.929 283.376 124.239V121.173C283.376 120.99 283.436 120.838 283.556 120.718C283.677 120.597 283.829 120.537 284.011 120.537C284.194 120.537 284.346 120.597 284.467 120.718C284.587 120.838 284.647 120.99 284.647 121.173V124.239C284.647 124.705 284.735 125.089 284.909 125.393C285.084 125.696 285.321 125.92 285.62 126.066C285.919 126.211 286.256 126.284 286.63 126.284C286.987 126.284 287.305 126.213 287.584 126.072C287.862 125.931 288.085 125.74 288.251 125.499C288.417 125.258 288.5 124.987 288.5 124.688H289.286C289.286 125.204 289.159 125.669 288.905 126.085C288.652 126.5 288.307 126.829 287.871 127.07C287.434 127.311 286.937 127.431 286.38 127.431ZM289.135 127.369C288.952 127.369 288.8 127.309 288.68 127.188C288.559 127.068 288.499 126.916 288.499 126.733V121.173C288.499 120.982 288.559 120.828 288.68 120.712C288.8 120.595 288.952 120.537 289.135 120.537C289.326 120.537 289.48 120.595 289.596 120.712C289.713 120.828 289.771 120.982 289.771 121.173V126.733C289.771 126.916 289.713 127.068 289.596 127.188C289.48 127.309 289.326 127.369 289.135 127.369Z" fill="#333333"/>
<path d="M294.857 127.419C294.25 127.419 293.708 127.269 293.23 126.97C292.752 126.671 292.372 126.259 292.089 125.736C291.806 125.212 291.665 124.622 291.665 123.965C291.665 123.3 291.817 122.708 292.12 122.188C292.424 121.669 292.835 121.257 293.355 120.954C293.874 120.65 294.458 120.499 295.107 120.499C295.763 120.499 296.347 120.65 296.858 120.954C297.37 121.257 297.777 121.671 298.08 122.194C298.384 122.718 298.535 123.308 298.535 123.964H298.049C298.049 124.621 297.91 125.209 297.631 125.728C297.353 126.248 296.975 126.659 296.497 126.963C296.019 127.266 295.472 127.418 294.857 127.418V127.419ZM295.119 126.297C295.535 126.297 295.909 126.195 296.241 125.991C296.574 125.787 296.836 125.509 297.027 125.156C297.218 124.802 297.313 124.406 297.313 123.965C297.313 123.516 297.218 123.115 297.027 122.762C296.836 122.408 296.576 122.13 296.247 121.926C295.919 121.723 295.543 121.621 295.119 121.621C294.695 121.621 294.315 121.723 293.978 121.926C293.641 122.13 293.375 122.406 293.18 122.755C292.985 123.105 292.887 123.508 292.887 123.965C292.887 124.406 292.985 124.802 293.18 125.156C293.375 125.509 293.639 125.787 293.972 125.991C294.304 126.195 294.687 126.297 295.119 126.297ZM297.911 127.381C297.72 127.381 297.564 127.321 297.443 127.201C297.323 127.08 297.263 126.928 297.263 126.745V124.838L297.499 123.516L298.534 123.965V126.745C298.534 126.928 298.476 127.08 298.36 127.201C298.243 127.321 298.094 127.381 297.911 127.381Z" fill="#333333"/>
<path d="M301.041 123.106C301.041 122.607 301.163 122.16 301.408 121.766C301.654 121.371 301.984 121.058 302.4 120.825C302.815 120.592 303.272 120.476 303.771 120.476C304.27 120.476 304.642 120.557 304.887 120.719C305.132 120.881 305.226 121.074 305.168 121.299C305.143 121.415 305.095 121.504 305.024 121.567C304.954 121.629 304.873 121.669 304.781 121.685C304.69 121.702 304.59 121.698 304.482 121.673C303.95 121.565 303.472 121.556 303.048 121.648C302.624 121.739 302.289 121.91 302.044 122.159C301.799 122.408 301.676 122.724 301.676 123.107H301.041V123.106ZM301.053 127.369C300.854 127.369 300.7 127.317 300.592 127.213C300.484 127.109 300.43 126.953 300.43 126.746V121.173C300.43 120.974 300.484 120.82 300.592 120.712C300.7 120.604 300.854 120.55 301.053 120.55C301.261 120.55 301.417 120.602 301.521 120.705C301.624 120.809 301.676 120.965 301.676 121.173V126.746C301.676 126.945 301.624 127.099 301.521 127.207C301.417 127.315 301.261 127.369 301.053 127.369Z" fill="#333333"/>
<path d="M308.969 127.419C308.387 127.419 307.848 127.329 307.354 127.151C306.859 126.972 306.475 126.745 306.201 126.471C306.076 126.338 306.024 126.186 306.045 126.016C306.065 125.846 306.147 125.706 306.288 125.598C306.454 125.465 306.618 125.409 306.78 125.43C306.942 125.451 307.082 125.524 307.198 125.648C307.339 125.806 307.566 125.954 307.878 126.091C308.189 126.228 308.536 126.297 308.919 126.297C309.401 126.297 309.769 126.218 310.022 126.06C310.276 125.902 310.407 125.698 310.415 125.449C310.423 125.199 310.305 124.983 310.06 124.8C309.814 124.617 309.368 124.468 308.72 124.351C307.881 124.185 307.272 123.936 306.894 123.603C306.515 123.271 306.326 122.864 306.326 122.381C306.326 121.957 306.451 121.606 306.7 121.328C306.95 121.049 307.27 120.842 307.66 120.704C308.051 120.567 308.458 120.499 308.882 120.499C309.431 120.499 309.917 120.586 310.341 120.761C310.765 120.935 311.102 121.176 311.351 121.484C311.468 121.617 311.522 121.756 311.513 121.901C311.505 122.047 311.434 122.169 311.301 122.269C311.168 122.361 311.01 122.39 310.827 122.356C310.645 122.323 310.491 122.248 310.366 122.132C310.158 121.933 309.934 121.795 309.693 121.721C309.452 121.646 309.173 121.608 308.857 121.608C308.492 121.608 308.182 121.671 307.928 121.795C307.675 121.92 307.548 122.103 307.548 122.344C307.548 122.494 307.588 122.629 307.667 122.749C307.746 122.87 307.901 122.978 308.134 123.073C308.367 123.169 308.708 123.263 309.157 123.354C309.78 123.479 310.273 123.637 310.634 123.828C310.996 124.019 311.256 124.241 311.413 124.495C311.571 124.748 311.65 125.041 311.65 125.374C311.65 125.756 311.549 126.101 311.345 126.409C311.141 126.716 310.842 126.962 310.447 127.144C310.052 127.327 309.56 127.419 308.97 127.419H308.969Z" fill="#333333"/>
<path d="M316.461 127.419C315.771 127.419 315.159 127.271 314.622 126.976C314.086 126.681 313.666 126.274 313.363 125.754C313.059 125.235 312.908 124.638 312.908 123.965C312.908 123.283 313.051 122.684 313.338 122.163C313.625 121.644 314.022 121.236 314.529 120.941C315.036 120.646 315.618 120.499 316.274 120.499C316.923 120.499 317.48 120.642 317.945 120.929C318.411 121.216 318.766 121.61 319.011 122.113C319.256 122.616 319.379 123.196 319.379 123.853C319.379 124.011 319.325 124.142 319.217 124.246C319.109 124.349 318.972 124.401 318.805 124.401H313.782V123.404H318.768L318.257 123.753C318.248 123.337 318.165 122.965 318.007 122.637C317.849 122.309 317.625 122.049 317.334 121.858C317.043 121.667 316.69 121.571 316.274 121.571C315.8 121.571 315.395 121.675 315.059 121.883C314.722 122.09 314.466 122.375 314.292 122.737C314.117 123.098 314.03 123.508 314.03 123.965C314.03 124.422 314.134 124.829 314.342 125.187C314.549 125.544 314.836 125.827 315.202 126.035C315.568 126.243 315.987 126.346 316.461 126.346C316.719 126.346 316.983 126.299 317.253 126.203C317.523 126.107 317.741 125.997 317.908 125.873C318.032 125.781 318.167 125.733 318.313 125.729C318.458 125.725 318.585 125.769 318.693 125.86C318.834 125.985 318.909 126.122 318.918 126.272C318.926 126.421 318.859 126.55 318.718 126.658C318.435 126.883 318.084 127.066 317.664 127.207C317.245 127.348 316.844 127.419 316.461 127.419Z" fill="#333333"/>
<path d="M322.196 124.876L321.423 124.028L325.25 120.613C325.374 120.497 325.513 120.443 325.667 120.451C325.821 120.459 325.952 120.526 326.06 120.65C326.176 120.775 326.23 120.912 326.222 121.062C326.214 121.212 326.147 121.345 326.023 121.461L322.196 124.876ZM321.61 127.37C321.427 127.37 321.279 127.314 321.167 127.202C321.055 127.089 320.999 126.942 320.999 126.759V118.245C320.999 118.062 321.055 117.915 321.167 117.802C321.279 117.69 321.427 117.634 321.61 117.634C321.793 117.634 321.94 117.69 322.052 117.802C322.165 117.915 322.221 118.062 322.221 118.245V126.759C322.221 126.942 322.165 127.089 322.052 127.202C321.94 127.314 321.793 127.37 321.61 127.37ZM326.06 127.308C325.927 127.416 325.779 127.464 325.617 127.451C325.455 127.439 325.32 127.366 325.212 127.233L322.681 124.104L323.554 123.281L326.147 126.472C326.255 126.605 326.303 126.749 326.291 126.902C326.278 127.056 326.201 127.191 326.06 127.308Z" fill="#333333"/>
<path d="M330.561 127.419C329.888 127.419 329.294 127.271 328.778 126.976C328.263 126.681 327.858 126.274 327.563 125.754C327.267 125.235 327.12 124.638 327.12 123.965C327.12 123.283 327.267 122.684 327.563 122.163C327.858 121.644 328.263 121.236 328.778 120.941C329.294 120.646 329.888 120.499 330.561 120.499C331.226 120.499 331.816 120.646 332.331 120.941C332.846 121.236 333.251 121.644 333.546 122.163C333.842 122.683 333.989 123.283 333.989 123.965C333.989 124.638 333.844 125.235 333.553 125.754C333.262 126.274 332.859 126.681 332.343 126.976C331.828 127.271 331.234 127.419 330.561 127.419ZM330.561 126.297C330.993 126.297 331.376 126.197 331.708 125.997C332.041 125.798 332.301 125.524 332.488 125.174C332.675 124.825 332.768 124.422 332.768 123.965C332.768 123.508 332.675 123.103 332.488 122.749C332.301 122.396 332.041 122.12 331.708 121.92C331.376 121.721 330.993 121.621 330.561 121.621C330.129 121.621 329.747 121.721 329.414 121.92C329.082 122.12 328.82 122.396 328.629 122.749C328.437 123.103 328.342 123.508 328.342 123.965C328.342 124.422 328.437 124.825 328.629 125.174C328.82 125.524 329.082 125.798 329.414 125.997C329.747 126.197 330.129 126.297 330.561 126.297Z" fill="#333333"/>
<path d="M337.504 127.369C337.138 127.369 336.814 127.269 336.532 127.07C336.249 126.87 336.029 126.6 335.871 126.259C335.713 125.918 335.634 125.519 335.634 125.062V118.255C335.634 118.064 335.69 117.913 335.802 117.8C335.914 117.688 336.066 117.632 336.257 117.632C336.44 117.632 336.59 117.688 336.706 117.8C336.823 117.913 336.881 118.064 336.881 118.255V125.062C336.881 125.37 336.939 125.623 337.055 125.823C337.172 126.022 337.321 126.122 337.504 126.122H337.816C337.982 126.122 338.117 126.18 338.221 126.297C338.325 126.413 338.377 126.563 338.377 126.746C338.377 126.937 338.298 127.088 338.14 127.201C337.982 127.313 337.779 127.369 337.529 127.369H337.504Z" fill="#333333"/>
<path d="M342.093 127.419C341.486 127.419 340.944 127.269 340.466 126.97C339.988 126.671 339.607 126.259 339.325 125.736C339.042 125.212 338.901 124.622 338.901 123.965C338.901 123.3 339.052 122.708 339.356 122.188C339.659 121.669 340.071 121.257 340.59 120.954C341.11 120.65 341.694 120.499 342.342 120.499C342.999 120.499 343.583 120.65 344.094 120.954C344.605 121.257 345.012 121.671 345.316 122.194C345.619 122.718 345.771 123.308 345.771 123.964H345.285C345.285 124.621 345.145 125.209 344.867 125.728C344.589 126.248 344.21 126.659 343.732 126.963C343.254 127.266 342.708 127.418 342.093 127.418V127.419ZM342.355 126.297C342.77 126.297 343.144 126.195 343.477 125.991C343.809 125.787 344.071 125.509 344.262 125.156C344.453 124.802 344.549 124.406 344.549 123.965C344.549 123.516 344.453 123.115 344.262 122.762C344.071 122.408 343.811 122.13 343.483 121.926C343.155 121.723 342.779 121.621 342.355 121.621C341.931 121.621 341.55 121.723 341.214 121.926C340.877 122.13 340.611 122.406 340.416 122.755C340.22 123.105 340.123 123.508 340.123 123.965C340.123 124.406 340.22 124.802 340.416 125.156C340.611 125.509 340.875 125.787 341.207 125.991C341.54 126.195 341.922 126.297 342.355 126.297ZM345.147 127.381C344.955 127.381 344.799 127.321 344.679 127.201C344.558 127.08 344.498 126.928 344.498 126.745V124.838L344.735 123.516L345.77 123.965V126.745C345.77 126.928 345.712 127.08 345.595 127.201C345.479 127.321 345.329 127.381 345.147 127.381Z" fill="#333333"/>
<path d="M348.3 124.889C348.117 124.889 347.966 124.828 347.845 124.708C347.724 124.587 347.664 124.436 347.664 124.253V118.269C347.664 118.078 347.724 117.924 347.845 117.807C347.966 117.691 348.117 117.633 348.3 117.633C348.491 117.633 348.645 117.691 348.761 117.807C348.878 117.924 348.936 118.078 348.936 118.269V124.253C348.936 124.436 348.878 124.587 348.761 124.708C348.645 124.828 348.491 124.889 348.3 124.889ZM353.424 127.382C353.241 127.382 353.089 127.322 352.969 127.202C352.848 127.081 352.788 126.929 352.788 126.747V123.68C352.788 123.206 352.701 122.82 352.526 122.521C352.351 122.221 352.117 121.999 351.821 121.854C351.526 121.708 351.188 121.635 350.805 121.635C350.456 121.635 350.14 121.706 349.858 121.847C349.575 121.989 349.351 122.178 349.184 122.415C349.018 122.652 348.935 122.924 348.935 123.231H348.149C348.149 122.708 348.276 122.24 348.53 121.83C348.783 121.418 349.13 121.092 349.571 120.851C350.011 120.61 350.506 120.489 351.055 120.489C351.628 120.489 352.141 120.612 352.595 120.857C353.048 121.102 353.405 121.462 353.667 121.936C353.929 122.409 354.06 122.991 354.06 123.681V126.748C354.06 126.93 353.999 127.082 353.879 127.203C353.758 127.323 353.607 127.383 353.424 127.383V127.382ZM348.3 127.382C348.117 127.382 347.966 127.322 347.845 127.202C347.724 127.081 347.664 126.929 347.664 126.747V121.187C347.664 120.995 347.724 120.842 347.845 120.725C347.966 120.609 348.117 120.551 348.3 120.551C348.491 120.551 348.645 120.609 348.761 120.725C348.878 120.842 348.936 120.995 348.936 121.187V126.747C348.936 126.929 348.878 127.081 348.761 127.202C348.645 127.322 348.491 127.382 348.3 127.382Z" fill="#333333"/>
<path fill-rule="evenodd" clip-rule="evenodd" d="M336.072 85.2673C336.452 85.898 335.666 87.068 334.316 87.8806C332.967 88.6931 331.565 88.8407 331.186 88.21C330.806 87.5792 331.592 86.4093 332.942 85.5967C334.291 84.7842 335.693 84.6366 336.072 85.2673Z" fill="#FFCC00"/>
<path d="M248.223 84.8974V105.392H251.582L251.782 102.659C252.551 104.481 254.202 105.791 257.048 105.791C261.175 105.791 263.937 102.973 263.937 97.9916C263.937 93.0384 261.261 90.1924 257.191 90.1924C254.8 90.1924 252.893 91.1318 251.868 93.2099V84.8984H248.225L248.223 84.8974ZM256.079 102.374C253.489 102.374 251.923 100.695 251.923 97.9906C251.923 95.2859 253.489 93.6068 256.079 93.6068C258.67 93.6068 260.179 95.2859 260.179 97.9906C260.179 100.695 258.67 102.374 256.079 102.374ZM281.156 102.09L278.224 100.353C277.569 101.577 276.373 102.488 274.467 102.488C272.275 102.488 270.852 101.292 270.538 98.9579H281.696V98.6161C281.696 92.0981 278.053 90.1904 274.324 90.1904C269.912 90.1904 266.696 92.9231 266.696 98.0467C266.696 102.914 269.628 105.789 274.352 105.789C277.712 105.789 279.96 104.337 281.155 102.089L281.156 102.09ZM274.211 93.4644C276.26 93.4644 277.598 94.6885 277.854 96.7375H270.567C270.909 94.7737 272.133 93.4644 274.21 93.4644H274.211ZM284.857 84.8964V105.391H288.5V101.236C288.5 100.581 288.7 100.126 289.212 99.6697L291.432 97.6778L295.873 105.392H299.972L294.137 95.3441L299.346 90.5904H294.535L288.5 96.1411V84.8974H284.857V84.8964ZM315.854 102.089L312.922 100.352C312.268 101.576 311.072 102.487 309.165 102.487C306.974 102.487 305.55 101.291 305.237 98.9569H316.395V98.6151C316.395 92.097 312.752 90.1893 309.023 90.1893C304.611 90.1893 301.395 92.9221 301.395 98.0456C301.395 102.913 304.327 105.788 309.052 105.788C312.41 105.788 314.66 104.336 315.854 102.088V102.089ZM308.909 93.4634C310.958 93.4634 312.297 94.6874 312.552 96.7364H305.265C305.607 94.7726 306.831 93.4634 308.908 93.4634H308.909ZM319.384 90.5883V105.39H323.027V97.9604C323.027 95.1706 324.621 93.7471 327.411 93.7471C327.951 93.7471 328.463 93.8042 329.062 93.8894V90.4449C328.55 90.3597 328.123 90.3317 327.724 90.3317C325.276 90.3317 323.739 91.3562 322.998 93.292L322.741 90.5873H319.382L319.384 90.5883ZM335.467 107.468V90.5883H331.852V106.87C331.852 107.582 331.482 107.952 330.628 107.952C330.173 107.952 329.688 107.867 329.091 107.754L329.034 107.811V110.971C329.859 111.255 330.685 111.368 331.482 111.368C334.329 111.368 335.468 109.803 335.468 107.469L335.467 107.468ZM354.623 90.5883H351.293L351.065 93.3501C350.069 91.1868 348.133 90.1904 345.685 90.1904C341.614 90.1904 338.91 93.0374 338.91 97.9895C338.91 102.971 341.7 105.789 345.827 105.789C348.674 105.789 350.325 104.48 351.093 102.657L351.293 105.39H354.623V90.5883ZM346.794 102.373C344.204 102.373 342.695 100.694 342.695 97.9895C342.695 95.2849 344.204 93.6058 346.794 93.6058C349.385 93.6058 350.922 95.2849 350.922 97.9895C350.922 100.694 349.385 102.373 346.794 102.373Z" fill="#333333"/>
<path fill-rule="evenodd" clip-rule="evenodd" d="M318.734 58.8856C319.113 59.5163 318.327 60.6863 316.978 61.4978C315.628 62.3104 314.226 62.4579 313.847 61.8272C313.468 61.1965 314.253 60.0265 315.603 59.215C316.953 58.4025 318.354 58.2549 318.734 58.8856Z" fill="#FFCC00"/>
</g>
<defs>
<linearGradient id="paint0_linear_13_734" x1="20.5" y1="42.3838" x2="144.25" y2="157.509" gradientUnits="userSpaceOnUse">
<stop stop-color="#FFD347"/>
<stop offset="1" stop-color="white"/>
</linearGradient>
<clipPath id="clip0_13_734">
<rect width="150" height="150" fill="white" transform="translate(10 22.8838)"/>
</clipPath>
<clipPath id="clip1_13_734">
<rect width="170.672" height="194.121" fill="white" transform="translate(0 0.883789)"/>
</clipPath>
<clipPath id="clip2_13_734">
<rect width="175.625" height="69.5788" fill="white" transform="translate(179 57.8838)"/>
</clipPath>
</defs>
</svg>
