<svg width="120" height="35" viewBox="0 0 120 35" fill="none" xmlns="http://www.w3.org/2000/svg">
<g clip-path="url(#clip0_37_1494)">
<path d="M115.556 34.5H4.44444C2.00111 34.5 0 32.5864 0 30.25V4.75C0 2.41356 2.00111 0.5 4.44444 0.5H115.556C117.999 0.5 120 2.41356 120 4.75V30.25C120 32.5864 117.999 34.5 115.556 34.5Z" fill="black"/>
<path d="M115.556 1.18106C117.613 1.18106 119.288 2.78225 119.288 4.75V30.25C119.288 32.2178 117.613 33.8189 115.556 33.8189H4.44444C2.38667 33.8189 0.712222 32.2178 0.712222 30.25V4.75C0.712222 2.78225 2.38667 1.18106 4.44444 1.18106H115.556ZM115.556 0.5H4.44444C2.00111 0.5 0 2.41356 0 4.75V30.25C0 32.5864 2.00111 34.5 4.44444 34.5H115.556C117.999 34.5 120 32.5864 120 30.25V4.75C120 2.41356 117.999 0.5 115.556 0.5Z" fill="#A6A6A6"/>
<path d="M9.2755 6.90781C9.01439 7.16918 8.86328 7.57612 8.86328 8.10312V26.9009C8.86328 27.4279 9.01439 27.8348 9.2755 28.0962L9.33995 28.1536L20.3555 17.6242V17.3756L9.33995 6.84619L9.2755 6.90781Z" fill="url(#paint0_linear_37_1494)"/>
<path d="M24.0233 21.1355L20.3555 17.624V17.3754L24.0278 13.8638L24.11 13.9095L28.4589 16.2757C29.7 16.9472 29.7 18.0522 28.4589 18.7279L24.11 21.0899L24.0233 21.1355Z" fill="url(#paint1_linear_37_1494)"/>
<path d="M24.11 21.0902L20.3555 17.5L9.27551 28.0963C9.68774 28.5107 10.36 28.5606 11.1244 28.1463L24.11 21.0902Z" fill="url(#paint2_linear_37_1494)"/>
<path d="M24.11 13.9097L11.1244 6.85363C10.36 6.44351 9.68774 6.49344 9.27551 6.90782L20.3555 17.4999L24.11 13.9097Z" fill="url(#paint3_linear_37_1494)"/>
<path d="M42.1489 9.20738C42.1489 9.91713 41.9267 10.4856 41.4889 10.9095C40.9856 11.412 40.33 11.6649 39.5267 11.6649C38.7589 11.6649 38.1033 11.4078 37.5656 10.901C37.0267 10.3868 36.7578 9.75563 36.7578 9.00019C36.7578 8.24476 37.0267 7.61363 37.5656 7.10363C38.1033 6.59257 38.7589 6.33545 39.5267 6.33545C39.9089 6.33545 40.2733 6.41088 40.6211 6.55113C40.9678 6.69244 41.25 6.88369 41.4544 7.11957L40.99 7.56795C40.6333 7.16526 40.1478 6.96657 39.5267 6.96657C38.9667 6.96657 38.4811 7.15357 38.0689 7.53076C37.6611 7.90901 37.4567 8.39882 37.4567 9.00019C37.4567 9.60157 37.6611 10.0956 38.0689 10.4739C38.4811 10.8468 38.9667 11.038 39.5267 11.038C40.1211 11.038 40.6211 10.8468 41.0156 10.4696C41.2756 10.2199 41.4233 9.87569 41.4622 9.43582H39.5267V8.82169H42.1089C42.14 8.95451 42.1489 9.08307 42.1489 9.20738Z" fill="white" stroke="white" stroke-width="0.16" stroke-miterlimit="10"/>
<path d="M46.2456 7.07796H43.82V8.69296H46.0067V9.30708H43.82V10.9221H46.2456V11.5479H43.1333V6.45215H46.2456V7.07796Z" fill="white" stroke="white" stroke-width="0.16" stroke-miterlimit="10"/>
<path d="M49.1367 11.5479H48.45V7.07796H46.9622V6.45215H50.6255V7.07796H49.1367V11.5479Z" fill="white" stroke="white" stroke-width="0.16" stroke-miterlimit="10"/>
<path d="M53.2767 11.5479V6.45215H53.9622V11.5479H53.2767Z" fill="white" stroke="white" stroke-width="0.16" stroke-miterlimit="10"/>
<path d="M57.0011 11.5479H56.32V7.07796H54.8267V6.45215H58.4944V7.07796H57.0011V11.5479Z" fill="white" stroke="white" stroke-width="0.16" stroke-miterlimit="10"/>
<path d="M65.43 10.8925C64.9045 11.4078 64.2533 11.6649 63.4767 11.6649C62.6956 11.6649 62.0444 11.4078 61.5189 10.8925C60.9944 10.3783 60.7333 9.74713 60.7333 9.00019C60.7333 8.25326 60.9944 7.62213 61.5189 7.10788C62.0444 6.59257 62.6956 6.33545 63.4767 6.33545C64.2489 6.33545 64.9 6.59257 65.4256 7.11213C65.9545 7.63063 66.2156 8.25751 66.2156 9.00019C66.2156 9.74713 65.9545 10.3783 65.43 10.8925ZM62.0267 10.4654C62.4222 10.8468 62.9033 11.038 63.4767 11.038C64.0456 11.038 64.5311 10.8468 64.9222 10.4654C65.3167 10.0839 65.5167 9.59413 65.5167 9.00019C65.5167 8.40626 65.3167 7.91644 64.9222 7.53501C64.5311 7.15357 64.0456 6.96232 63.4767 6.96232C62.9033 6.96232 62.4222 7.15357 62.0267 7.53501C61.6322 7.91644 61.4322 8.40626 61.4322 9.00019C61.4322 9.59413 61.6322 10.0839 62.0267 10.4654Z" fill="white" stroke="white" stroke-width="0.16" stroke-miterlimit="10"/>
<path d="M67.179 11.5479V6.45215H68.0123L70.6034 10.4153H70.6334L70.6034 9.43565V6.45215H71.289V11.5479H70.5734L67.8601 7.38927H67.8301L67.8601 8.37315V11.5479H67.179Z" fill="white" stroke="white" stroke-width="0.16" stroke-miterlimit="10"/>
<path d="M60.5644 18.9896C58.4767 18.9896 56.7711 20.5089 56.7711 22.6053C56.7711 24.6846 58.4767 26.2199 60.5644 26.2199C62.6567 26.2199 64.3622 24.6846 64.3622 22.6053C64.3622 20.5089 62.6567 18.9896 60.5644 18.9896ZM60.5644 24.7961C59.4189 24.7961 58.4333 23.8919 58.4333 22.6053C58.4333 21.3016 59.4189 20.4133 60.5644 20.4133C61.71 20.4133 62.7 21.3016 62.7 22.6053C62.7 23.8919 61.71 24.7961 60.5644 24.7961ZM52.2878 18.9896C50.1956 18.9896 48.4945 20.5089 48.4945 22.6053C48.4945 24.6846 50.1956 26.2199 52.2878 26.2199C54.3789 26.2199 56.0811 24.6846 56.0811 22.6053C56.0811 20.5089 54.3789 18.9896 52.2878 18.9896ZM52.2878 24.7961C51.1411 24.7961 50.1522 23.8919 50.1522 22.6053C50.1522 21.3016 51.1411 20.4133 52.2878 20.4133C53.4333 20.4133 54.4189 21.3016 54.4189 22.6053C54.4189 23.8919 53.4333 24.7961 52.2878 24.7961ZM42.4389 20.0978V21.6341H46.2756C46.1633 22.4926 45.8633 23.1238 45.4033 23.5636C44.8433 24.0949 43.9711 24.6846 42.4389 24.6846C40.0778 24.6846 38.2289 22.8624 38.2289 20.6046C38.2289 18.3468 40.0778 16.5246 42.4389 16.5246C43.7156 16.5246 44.6445 17.0016 45.33 17.62L46.4622 16.5373C45.5033 15.6618 44.2278 14.9893 42.4389 14.9893C39.2011 14.9893 36.48 17.5084 36.48 20.6046C36.48 23.7007 39.2011 26.2199 42.4389 26.2199C44.1889 26.2199 45.5033 25.6716 46.5367 24.6431C47.5956 23.6306 47.9256 22.2068 47.9256 21.0572C47.9256 20.7002 47.8945 20.3719 47.8389 20.0978H42.4389ZM82.7122 21.2888C82.4 20.4803 81.4367 18.9896 79.4744 18.9896C77.53 18.9896 75.9111 20.4548 75.9111 22.6053C75.9111 24.6304 77.5133 26.2199 79.6611 26.2199C81.3978 26.2199 82.4 25.2073 82.8122 24.6176L81.5233 23.7963C81.0933 24.3977 80.5078 24.7961 79.6611 24.7961C78.82 24.7961 78.2167 24.4274 77.83 23.7007L82.8867 21.7L82.7122 21.2888ZM77.5567 22.4926C77.5133 21.0986 78.6889 20.3846 79.5311 20.3846C80.1911 20.3846 80.7511 20.7002 80.9378 21.1518L77.5567 22.4926ZM73.4467 25.9999H75.1089V15.3749H73.4467V25.9999ZM70.7244 19.7949H70.6689C70.2956 19.3721 69.5833 18.9896 68.6811 18.9896C66.7878 18.9896 65.0567 20.5791 65.0567 22.6169C65.0567 24.6431 66.7878 26.2199 68.6811 26.2199C69.5833 26.2199 70.2956 25.8342 70.6689 25.3986H70.7244V25.9171C70.7244 27.2994 69.9522 28.0421 68.7067 28.0421C67.6911 28.0421 67.0611 27.3408 66.8011 26.7511L65.3556 27.3281C65.7722 28.2864 66.8756 29.4658 68.7067 29.4658C70.6556 29.4658 72.3 28.3693 72.3 25.7014V19.2095H70.7244V19.7949ZM68.8233 24.7961C67.6778 24.7961 66.7189 23.8792 66.7189 22.6169C66.7189 21.343 67.6778 20.4133 68.8233 20.4133C69.9522 20.4133 70.8422 21.343 70.8422 22.6169C70.8422 23.8792 69.9522 24.7961 68.8233 24.7961ZM90.4944 15.3749H86.5189V25.9999H88.1767V21.9741H90.4944C92.3355 21.9741 94.1411 20.7002 94.1411 18.674C94.1411 16.6489 92.3311 15.3749 90.4944 15.3749ZM90.5378 20.4962H88.1767V16.8529H90.5378C91.7755 16.8529 92.4822 17.8357 92.4822 18.674C92.4822 19.4964 91.7755 20.4962 90.5378 20.4962ZM100.786 18.9694C99.5878 18.9694 98.3422 19.4751 97.83 20.5961L99.3011 21.1858C99.6178 20.5961 100.2 20.4048 100.816 20.4048C101.676 20.4048 102.548 20.8989 102.561 21.7712V21.8828C102.261 21.717 101.619 21.4716 100.829 21.4716C99.2444 21.4716 97.63 22.3056 97.63 23.8622C97.63 25.2859 98.9278 26.2029 100.387 26.2029C101.502 26.2029 102.118 25.7216 102.504 25.1616H102.561V25.9829H104.162V21.9072C104.162 20.0234 102.691 18.9694 100.786 18.9694ZM100.586 24.7919C100.043 24.7919 99.2878 24.5348 99.2878 23.8919C99.2878 23.0696 100.23 22.754 101.046 22.754C101.776 22.754 102.118 22.9081 102.561 23.111C102.431 24.0949 101.546 24.7919 100.586 24.7919ZM109.996 19.2021L108.09 23.808H108.033L106.063 19.2021H104.276L107.236 25.6387L105.547 29.2204H107.279L111.84 19.2021H109.996ZM95.0522 25.9999H96.7144V15.3749H95.0522V25.9999Z" fill="white"/>
</g>
<defs>
<linearGradient id="paint0_linear_37_1494" x1="19.3774" y1="27.0966" x2="5.12667" y2="12.1939" gradientUnits="userSpaceOnUse">
<stop stop-color="#00A0FF"/>
<stop offset="0.0066" stop-color="#00A1FF"/>
<stop offset="0.2601" stop-color="#00BEFF"/>
<stop offset="0.5122" stop-color="#00D2FF"/>
<stop offset="0.7604" stop-color="#00DFFF"/>
<stop offset="1" stop-color="#00E3FF"/>
</linearGradient>
<linearGradient id="paint1_linear_37_1494" x1="30.075" y1="17.4985" x2="8.56661" y2="17.4985" gradientUnits="userSpaceOnUse">
<stop stop-color="#FFE000"/>
<stop offset="0.4087" stop-color="#FFBD00"/>
<stop offset="0.7754" stop-color="#FFA500"/>
<stop offset="1" stop-color="#FF9C00"/>
</linearGradient>
<linearGradient id="paint2_linear_37_1494" x1="22.0684" y1="15.5483" x2="2.74319" y2="-4.66104" gradientUnits="userSpaceOnUse">
<stop stop-color="#FF3A44"/>
<stop offset="1" stop-color="#C31162"/>
</linearGradient>
<linearGradient id="paint3_linear_37_1494" x1="6.48645" y1="34.3501" x2="15.1161" y2="25.3258" gradientUnits="userSpaceOnUse">
<stop stop-color="#32A071"/>
<stop offset="0.0685" stop-color="#2DA771"/>
<stop offset="0.4762" stop-color="#15CF74"/>
<stop offset="0.8009" stop-color="#06E775"/>
<stop offset="1" stop-color="#00F076"/>
</linearGradient>
<clipPath id="clip0_37_1494">
<rect width="120" height="34" fill="white" transform="translate(0 0.5)"/>
</clipPath>
</defs>
</svg>
