<svg width="355" height="166" viewBox="0 0 355 166" fill="none" xmlns="http://www.w3.org/2000/svg">
<path d="M49.4575 131.359C81.2013 190.78 316.546 132.258 320.268 73.4301C326.132 -19.2778 109.685 13.0499 81.9987 46.2429C80.9733 47.4723 81.3864 49.4878 82.2976 48.9437C162.014 1.34346 317.613 8.61341 311.778 74.3699C302.263 125.023 61.3829 187.171 52.923 119.816C47.3527 75.4686 152.304 21.4996 233.052 26.0635C235.361 25.2499 233.228 23.0463 230.573 22.8229C143.992 17.997 24.129 74.1173 49.4575 131.359Z" fill="#E6E7E8"/>
<rect x="34" y="23.8969" width="142" height="40" rx="20" fill="#00CC99"/>
<path d="M79.5101 42.4569L78.9781 44.9769H80.9101V46.0969H78.7401L78.1381 48.8969H76.9201L77.5221 46.0969H74.5821L73.9801 48.8969H72.7621L73.3641 46.0969H71.1661V44.9769H73.6021L74.1341 42.4569H71.9641V41.3369H74.3721L74.9741 38.5369H76.1921L75.5901 41.3369H78.5301L79.1321 38.5369H80.3501L79.7481 41.3369H81.6941V42.4569H79.5101ZM78.2921 42.4569H75.3521L74.8201 44.9769H77.7601L78.2921 42.4569ZM90.0639 41.9949C90.0639 42.8069 89.7839 43.4835 89.2239 44.0249C88.6732 44.5569 87.8286 44.8229 86.6899 44.8229H84.8139V48.8969H83.5399V39.1389H86.6899C87.7912 39.1389 88.6266 39.4049 89.1959 39.9368C89.7746 40.4689 90.0639 41.1549 90.0639 41.9949ZM86.6899 43.7729C87.3992 43.7729 87.9219 43.6189 88.2579 43.3109C88.5939 43.0029 88.7619 42.5642 88.7619 41.9949C88.7619 40.7909 88.0712 40.1889 86.6899 40.1889H84.8139V43.7729H86.6899ZM92.9213 42.4709C93.1453 42.0322 93.4627 41.6915 93.8733 41.4489C94.2933 41.2062 94.802 41.0849 95.3993 41.0849V42.4009H95.0633C93.6353 42.4009 92.9213 43.1755 92.9213 44.7249V48.8969H91.6473V41.2249H92.9213V42.4709ZM96.394 45.0329C96.394 44.2489 96.5527 43.5629 96.87 42.9749C97.1873 42.3775 97.6213 41.9155 98.172 41.5889C98.732 41.2622 99.3527 41.0989 100.034 41.0989C100.706 41.0989 101.289 41.2435 101.784 41.5329C102.279 41.8222 102.647 42.1862 102.89 42.6249V41.2249H104.178V48.8969H102.89V47.4689C102.638 47.9169 102.26 48.2902 101.756 48.5889C101.261 48.8782 100.683 49.0229 100.02 49.0229C99.3387 49.0229 98.7227 48.8549 98.172 48.5189C97.6213 48.1829 97.1873 47.7115 96.87 47.1049C96.5527 46.4982 96.394 45.8075 96.394 45.0329ZM102.89 45.0469C102.89 44.4682 102.773 43.9642 102.54 43.5349C102.307 43.1055 101.989 42.7789 101.588 42.5549C101.196 42.3215 100.762 42.2049 100.286 42.2049C99.81 42.2049 99.376 42.3169 98.984 42.5409C98.592 42.7649 98.2793 43.0915 98.046 43.5209C97.8127 43.9502 97.696 44.4542 97.696 45.0329C97.696 45.6209 97.8127 46.1342 98.046 46.5729C98.2793 47.0022 98.592 47.3335 98.984 47.5669C99.376 47.7909 99.81 47.9029 100.286 47.9029C100.762 47.9029 101.196 47.7909 101.588 47.5669C101.989 47.3335 102.307 47.0022 102.54 46.5729C102.773 46.1342 102.89 45.6255 102.89 45.0469ZM110.615 48.8969L107.605 45.5089V48.8969H106.331V38.5369H107.605V44.6269L110.559 41.2249H112.337L108.725 45.0469L112.351 48.8969H110.615ZM120.536 44.7669C120.536 45.0095 120.522 45.2662 120.494 45.5369H114.362C114.409 46.2929 114.665 46.8855 115.132 47.3149C115.608 47.7349 116.182 47.9449 116.854 47.9449C117.405 47.9449 117.862 47.8189 118.226 47.5669C118.599 47.3055 118.861 46.9602 119.01 46.5309H120.382C120.177 47.2682 119.766 47.8702 119.15 48.3369C118.534 48.7942 117.769 49.0229 116.854 49.0229C116.126 49.0229 115.473 48.8595 114.894 48.5329C114.325 48.2062 113.877 47.7442 113.55 47.1469C113.223 46.5402 113.06 45.8402 113.06 45.0469C113.06 44.2535 113.219 43.5582 113.536 42.9609C113.853 42.3635 114.297 41.9062 114.866 41.5889C115.445 41.2622 116.107 41.0989 116.854 41.0989C117.582 41.0989 118.226 41.2575 118.786 41.5749C119.346 41.8922 119.775 42.3309 120.074 42.8909C120.382 43.4415 120.536 44.0669 120.536 44.7669ZM119.22 44.5009C119.22 44.0155 119.113 43.6002 118.898 43.2549C118.683 42.9002 118.389 42.6342 118.016 42.4569C117.652 42.2702 117.246 42.1769 116.798 42.1769C116.154 42.1769 115.603 42.3822 115.146 42.7929C114.698 43.2035 114.441 43.7729 114.376 44.5009H119.22ZM123.492 42.4709C123.716 42.0322 124.033 41.6915 124.444 41.4489C124.864 41.2062 125.372 41.0849 125.97 41.0849V42.4009H125.634C124.206 42.4009 123.492 43.1755 123.492 44.7249V48.8969H122.218V41.2249H123.492V42.4709ZM128.126 39.9789C127.884 39.9789 127.678 39.8949 127.51 39.7269C127.352 39.5589 127.272 39.3535 127.272 39.1108C127.272 38.8682 127.352 38.6629 127.51 38.4949C127.678 38.3269 127.884 38.2429 128.126 38.2429C128.369 38.2429 128.57 38.3269 128.728 38.4949C128.896 38.6629 128.98 38.8682 128.98 39.1108C128.98 39.3535 128.896 39.5589 128.728 39.7269C128.57 39.8949 128.369 39.9789 128.126 39.9789ZM128.756 50.5629C128.756 51.2442 128.584 51.7435 128.238 52.0609C127.893 52.3782 127.389 52.5369 126.726 52.5369H125.984V51.4589H126.516C126.871 51.4589 127.118 51.3889 127.258 51.2489C127.408 51.1089 127.482 50.8709 127.482 50.5349V41.2249H128.756V50.5629ZM130.437 45.0329C130.437 44.2489 130.596 43.5629 130.913 42.9749C131.23 42.3775 131.664 41.9155 132.215 41.5889C132.775 41.2622 133.396 41.0989 134.077 41.0989C134.749 41.0989 135.332 41.2435 135.827 41.5329C136.322 41.8222 136.69 42.1862 136.933 42.6249V41.2249H138.221V48.8969H136.933V47.4689C136.681 47.9169 136.303 48.2902 135.799 48.5889C135.304 48.8782 134.726 49.0229 134.063 49.0229C133.382 49.0229 132.766 48.8549 132.215 48.5189C131.664 48.1829 131.23 47.7115 130.913 47.1049C130.596 46.4982 130.437 45.8075 130.437 45.0329ZM136.933 45.0469C136.933 44.4682 136.816 43.9642 136.583 43.5349C136.35 43.1055 136.032 42.7789 135.631 42.5549C135.239 42.3215 134.805 42.2049 134.329 42.2049C133.853 42.2049 133.419 42.3169 133.027 42.5409C132.635 42.7649 132.322 43.0915 132.089 43.5209C131.856 43.9502 131.739 44.4542 131.739 45.0329C131.739 45.6209 131.856 46.1342 132.089 46.5729C132.322 47.0022 132.635 47.3335 133.027 47.5669C133.419 47.7909 133.853 47.9029 134.329 47.9029C134.805 47.9029 135.239 47.7909 135.631 47.5669C136.032 47.3335 136.35 47.0022 136.583 46.5729C136.816 46.1342 136.933 45.6255 136.933 45.0469Z" fill="#060606"/>
<rect y="105.897" width="175" height="40" rx="20" fill="#FFC200"/>
<path d="M38.7406 124.457L38.2086 126.977H40.1406V128.097H37.9706L37.3686 130.897H36.1506L36.7526 128.097H33.8126L33.2106 130.897H31.9926L32.5946 128.097H30.3966V126.977H32.8326L33.3646 124.457H31.1946V123.337H33.6026L34.2046 120.537H35.4226L34.8206 123.337H37.7606L38.3626 120.537H39.5806L38.9786 123.337H40.9246V124.457H38.7406ZM37.5226 124.457H34.5826L34.0506 126.977H36.9906L37.5226 124.457ZM47.6564 125.871C48.011 125.927 48.333 126.072 48.6224 126.305C48.921 126.538 49.1544 126.828 49.3224 127.173C49.4997 127.518 49.5884 127.887 49.5884 128.279C49.5884 128.774 49.4624 129.222 49.2104 129.623C48.9584 130.015 48.5897 130.328 48.1044 130.561C47.6284 130.785 47.0637 130.897 46.4104 130.897H42.7704V121.139H46.2704C46.933 121.139 47.4977 121.251 47.9644 121.475C48.431 121.69 48.781 121.984 49.0144 122.357C49.2477 122.73 49.3644 123.15 49.3644 123.617C49.3644 124.196 49.2057 124.676 48.8884 125.059C48.5804 125.432 48.1697 125.703 47.6564 125.871ZM44.0444 125.353H46.1864C46.7837 125.353 47.2457 125.213 47.5724 124.933C47.899 124.653 48.0624 124.266 48.0624 123.771C48.0624 123.276 47.899 122.889 47.5724 122.609C47.2457 122.329 46.7744 122.189 46.1584 122.189H44.0444V125.353ZM46.2984 129.847C46.933 129.847 47.4277 129.698 47.7824 129.399C48.137 129.1 48.3144 128.685 48.3144 128.153C48.3144 127.612 48.1277 127.187 47.7544 126.879C47.381 126.562 46.8817 126.403 46.2564 126.403H44.0444V129.847H46.2984ZM58.3563 126.767C58.3563 127.01 58.3423 127.266 58.3143 127.537H52.1823C52.229 128.293 52.4857 128.886 52.9523 129.315C53.4283 129.735 54.0023 129.945 54.6743 129.945C55.225 129.945 55.6823 129.819 56.0463 129.567C56.4197 129.306 56.681 128.96 56.8303 128.531H58.2023C57.997 129.268 57.5863 129.87 56.9703 130.337C56.3543 130.794 55.589 131.023 54.6743 131.023C53.9463 131.023 53.293 130.86 52.7143 130.533C52.145 130.206 51.697 129.744 51.3703 129.147C51.0437 128.54 50.8803 127.84 50.8803 127.047C50.8803 126.254 51.039 125.558 51.3563 124.961C51.6737 124.364 52.117 123.906 52.6863 123.589C53.265 123.262 53.9277 123.099 54.6743 123.099C55.4023 123.099 56.0463 123.258 56.6063 123.575C57.1663 123.892 57.5957 124.331 57.8943 124.891C58.2023 125.442 58.3563 126.067 58.3563 126.767ZM57.0403 126.501C57.0403 126.016 56.933 125.6 56.7183 125.255C56.5037 124.9 56.2097 124.634 55.8363 124.457C55.4723 124.27 55.0663 124.177 54.6183 124.177C53.9743 124.177 53.4237 124.382 52.9663 124.793C52.5183 125.204 52.2617 125.773 52.1963 126.501H57.0403ZM61.312 120.537V130.897H60.038V120.537H61.312ZM63.0073 127.033C63.0073 126.249 63.1659 125.563 63.4833 124.975C63.8006 124.378 64.2346 123.916 64.7853 123.589C65.3453 123.262 65.9659 123.099 66.6473 123.099C67.3193 123.099 67.9026 123.244 68.3973 123.533C68.8919 123.822 69.2606 124.186 69.5033 124.625V123.225H70.7913V130.897H69.5033V129.469C69.2513 129.917 68.8733 130.29 68.3693 130.589C67.8746 130.878 67.2959 131.023 66.6333 131.023C65.9519 131.023 65.3359 130.855 64.7853 130.519C64.2346 130.183 63.8006 129.712 63.4833 129.105C63.1659 128.498 63.0073 127.808 63.0073 127.033ZM69.5033 127.047C69.5033 126.468 69.3866 125.964 69.1533 125.535C68.9199 125.106 68.6026 124.779 68.2013 124.555C67.8093 124.322 67.3753 124.205 66.8993 124.205C66.4233 124.205 65.9893 124.317 65.5973 124.541C65.2053 124.765 64.8926 125.092 64.6593 125.521C64.4259 125.95 64.3093 126.454 64.3093 127.033C64.3093 127.621 64.4259 128.134 64.6593 128.573C64.8926 129.002 65.2053 129.334 65.5973 129.567C65.9893 129.791 66.4233 129.903 66.8993 129.903C67.3753 129.903 67.8093 129.791 68.2013 129.567C68.6026 129.334 68.9199 129.002 69.1533 128.573C69.3866 128.134 69.5033 127.626 69.5033 127.047ZM73.6302 121.979C73.3875 121.979 73.1822 121.895 73.0142 121.727C72.8555 121.559 72.7762 121.354 72.7762 121.111C72.7762 120.868 72.8555 120.663 73.0142 120.495C73.1822 120.327 73.3875 120.243 73.6302 120.243C73.8729 120.243 74.0735 120.327 74.2322 120.495C74.4002 120.663 74.4842 120.868 74.4842 121.111C74.4842 121.354 74.4002 121.559 74.2322 121.727C74.0735 121.895 73.8729 121.979 73.6302 121.979ZM74.2602 132.563C74.2602 133.244 74.0875 133.744 73.7422 134.061C73.3969 134.378 72.8929 134.537 72.2302 134.537H71.4882V133.459H72.0202C72.3749 133.459 72.6222 133.389 72.7622 133.249C72.9115 133.109 72.9862 132.871 72.9862 132.535V123.225H74.2602V132.563ZM75.9409 127.033C75.9409 126.249 76.0995 125.563 76.4169 124.975C76.7342 124.378 77.1682 123.916 77.7189 123.589C78.2789 123.262 78.8995 123.099 79.5809 123.099C80.2529 123.099 80.8362 123.244 81.3309 123.533C81.8255 123.822 82.1942 124.186 82.4369 124.625V123.225H83.7249V130.897H82.4369V129.469C82.1849 129.917 81.8069 130.29 81.3029 130.589C80.8082 130.878 80.2295 131.023 79.5669 131.023C78.8855 131.023 78.2695 130.855 77.7189 130.519C77.1682 130.183 76.7342 129.712 76.4169 129.105C76.0995 128.498 75.9409 127.808 75.9409 127.033ZM82.4369 127.047C82.4369 126.468 82.3202 125.964 82.0869 125.535C81.8535 125.106 81.5362 124.779 81.1349 124.555C80.7429 124.322 80.3089 124.205 79.8329 124.205C79.3569 124.205 78.9229 124.317 78.5309 124.541C78.1389 124.765 77.8262 125.092 77.5929 125.521C77.3595 125.95 77.2429 126.454 77.2429 127.033C77.2429 127.621 77.3595 128.134 77.5929 128.573C77.8262 129.002 78.1389 129.334 78.5309 129.567C78.9229 129.791 79.3569 129.903 79.8329 129.903C80.3089 129.903 80.7429 129.791 81.1349 129.567C81.5362 129.334 81.8535 129.002 82.0869 128.573C82.3202 128.134 82.4369 127.626 82.4369 127.047ZM87.1518 124.471C87.3758 124.032 87.6931 123.692 88.1038 123.449C88.5238 123.206 89.0325 123.085 89.6298 123.085V124.401H89.2938C87.8658 124.401 87.1518 125.176 87.1518 126.725V130.897H85.8778V123.225H87.1518V124.471ZM99.7189 125.871C100.074 125.927 100.396 126.072 100.685 126.305C100.984 126.538 101.217 126.828 101.385 127.173C101.562 127.518 101.651 127.887 101.651 128.279C101.651 128.774 101.525 129.222 101.273 129.623C101.021 130.015 100.652 130.328 100.167 130.561C99.6909 130.785 99.1262 130.897 98.4729 130.897H94.8329V121.139H98.3329C98.9955 121.139 99.5602 121.251 100.027 121.475C100.494 121.69 100.844 121.984 101.077 122.357C101.31 122.73 101.427 123.15 101.427 123.617C101.427 124.196 101.268 124.676 100.951 125.059C100.643 125.432 100.232 125.703 99.7189 125.871ZM96.1069 125.353H98.2489C98.8462 125.353 99.3082 125.213 99.6349 124.933C99.9615 124.653 100.125 124.266 100.125 123.771C100.125 123.276 99.9615 122.889 99.6349 122.609C99.3082 122.329 98.8369 122.189 98.2209 122.189H96.1069V125.353ZM98.3609 129.847C98.9955 129.847 99.4902 129.698 99.8449 129.399C100.2 129.1 100.377 128.685 100.377 128.153C100.377 127.612 100.19 127.187 99.8169 126.879C99.4435 126.562 98.9442 126.403 98.3189 126.403H96.1069V129.847H98.3609ZM110.419 126.767C110.419 127.01 110.405 127.266 110.377 127.537H104.245C104.291 128.293 104.548 128.886 105.015 129.315C105.491 129.735 106.065 129.945 106.737 129.945C107.287 129.945 107.745 129.819 108.109 129.567C108.482 129.306 108.743 128.96 108.893 128.531H110.265C110.059 129.268 109.649 129.87 109.033 130.337C108.417 130.794 107.651 131.023 106.737 131.023C106.009 131.023 105.355 130.86 104.777 130.533C104.207 130.206 103.759 129.744 103.433 129.147C103.106 128.54 102.943 127.84 102.943 127.047C102.943 126.254 103.101 125.558 103.419 124.961C103.736 124.364 104.179 123.906 104.749 123.589C105.327 123.262 105.99 123.099 106.737 123.099C107.465 123.099 108.109 123.258 108.669 123.575C109.229 123.892 109.658 124.331 109.957 124.891C110.265 125.442 110.419 126.067 110.419 126.767ZM109.103 126.501C109.103 126.016 108.995 125.6 108.781 125.255C108.566 124.9 108.272 124.634 107.899 124.457C107.535 124.27 107.129 124.177 106.681 124.177C106.037 124.177 105.486 124.382 105.029 124.793C104.581 125.204 104.324 125.773 104.259 126.501H109.103ZM116.384 130.897L113.374 127.509V130.897H112.1V120.537H113.374V126.627L116.328 123.225H118.106L114.494 127.047L118.12 130.897H116.384ZM126.306 126.767C126.306 127.01 126.292 127.266 126.264 127.537H120.132C120.178 128.293 120.435 128.886 120.902 129.315C121.378 129.735 121.952 129.945 122.624 129.945C123.174 129.945 123.632 129.819 123.996 129.567C124.369 129.306 124.63 128.96 124.78 128.531H126.152C125.946 129.268 125.536 129.87 124.92 130.337C124.304 130.794 123.538 131.023 122.624 131.023C121.896 131.023 121.242 130.86 120.664 130.533C120.094 130.206 119.646 129.744 119.32 129.147C118.993 128.54 118.83 127.84 118.83 127.047C118.83 126.254 118.988 125.558 119.306 124.961C119.623 124.364 120.066 123.906 120.636 123.589C121.214 123.262 121.877 123.099 122.624 123.099C123.352 123.099 123.996 123.258 124.556 123.575C125.116 123.892 125.545 124.331 125.844 124.891C126.152 125.442 126.306 126.067 126.306 126.767ZM124.99 126.501C124.99 126.016 124.882 125.6 124.668 125.255C124.453 124.9 124.159 124.634 123.786 124.457C123.422 124.27 123.016 124.177 122.568 124.177C121.924 124.177 121.373 124.382 120.916 124.793C120.468 125.204 120.211 125.773 120.146 126.501H124.99ZM129.261 124.471C129.485 124.032 129.803 123.692 130.213 123.449C130.633 123.206 131.142 123.085 131.739 123.085V124.401H131.403C129.975 124.401 129.261 125.176 129.261 126.725V130.897H127.987V123.225H129.261V124.471ZM133.896 121.979C133.653 121.979 133.448 121.895 133.28 121.727C133.121 121.559 133.042 121.354 133.042 121.111C133.042 120.868 133.121 120.663 133.28 120.495C133.448 120.327 133.653 120.243 133.896 120.243C134.139 120.243 134.339 120.327 134.498 120.495C134.666 120.663 134.75 120.868 134.75 121.111C134.75 121.354 134.666 121.559 134.498 121.727C134.339 121.895 134.139 121.979 133.896 121.979ZM134.526 132.563C134.526 133.244 134.353 133.744 134.008 134.061C133.663 134.378 133.159 134.537 132.496 134.537H131.754V133.459H132.286C132.641 133.459 132.888 133.389 133.028 133.249C133.177 133.109 133.252 132.871 133.252 132.535V123.225H134.526V132.563ZM136.206 127.033C136.206 126.249 136.365 125.563 136.682 124.975C137 124.378 137.434 123.916 137.984 123.589C138.544 123.262 139.165 123.099 139.846 123.099C140.518 123.099 141.102 123.244 141.596 123.533C142.091 123.822 142.46 124.186 142.702 124.625V123.225H143.99V130.897H142.702V129.469C142.45 129.917 142.072 130.29 141.568 130.589C141.074 130.878 140.495 131.023 139.832 131.023C139.151 131.023 138.535 130.855 137.984 130.519C137.434 130.183 137 129.712 136.682 129.105C136.365 128.498 136.206 127.808 136.206 127.033ZM142.702 127.047C142.702 126.468 142.586 125.964 142.352 125.535C142.119 125.106 141.802 124.779 141.4 124.555C141.008 124.322 140.574 124.205 140.098 124.205C139.622 124.205 139.188 124.317 138.796 124.541C138.404 124.765 138.092 125.092 137.858 125.521C137.625 125.95 137.508 126.454 137.508 127.033C137.508 127.621 137.625 128.134 137.858 128.573C138.092 129.002 138.404 129.334 138.796 129.567C139.188 129.791 139.622 129.903 140.098 129.903C140.574 129.903 141.008 129.791 141.4 129.567C141.802 129.334 142.119 129.002 142.352 128.573C142.586 128.134 142.702 127.626 142.702 127.047Z" fill="black"/>
<rect x="188" y="63.8969" width="167" height="40" rx="20" fill="#FE3F35"/>
<path d="M231.484 82.4569L230.952 84.9769H232.884V86.0969H230.714L230.112 88.8969H228.894L229.496 86.0969H226.556L225.954 88.8969H224.736L225.338 86.0969H223.14V84.9769H225.576L226.108 82.4569H223.938V81.3369H226.346L226.948 78.5369H228.166L227.564 81.3369H230.504L231.106 78.5369H232.324L231.722 81.3369H233.668V82.4569H231.484ZM230.266 82.4569H227.326L226.794 84.9769H229.734L230.266 82.4569ZM242.038 81.9949C242.038 82.8069 241.758 83.4835 241.198 84.0249C240.647 84.5569 239.802 84.8229 238.664 84.8229H236.788V88.8969H235.514V79.1389H238.664C239.765 79.1389 240.6 79.4049 241.17 79.9368C241.748 80.4689 242.038 81.1549 242.038 81.9949ZM238.664 83.7729C239.373 83.7729 239.896 83.6189 240.232 83.3109C240.568 83.0029 240.736 82.5642 240.736 81.9949C240.736 80.7909 240.045 80.1889 238.664 80.1889H236.788V83.7729H238.664ZM244.895 82.4709C245.119 82.0322 245.436 81.6915 245.847 81.4489C246.267 81.2062 246.776 81.0849 247.373 81.0849V82.4009H247.037C245.609 82.4009 244.895 83.1755 244.895 84.7249V88.8969H243.621V81.2249H244.895V82.4709ZM248.368 85.0329C248.368 84.2489 248.526 83.5629 248.844 82.9749C249.161 82.3775 249.595 81.9155 250.146 81.5889C250.706 81.2622 251.326 81.0989 252.008 81.0989C252.68 81.0989 253.263 81.2435 253.758 81.5329C254.252 81.8222 254.621 82.1862 254.864 82.6249V81.2249H256.152V88.8969H254.864V87.4689C254.612 87.9169 254.234 88.2902 253.73 88.5889C253.235 88.8782 252.656 89.0229 251.994 89.0229C251.312 89.0229 250.696 88.8549 250.146 88.5189C249.595 88.1829 249.161 87.7115 248.844 87.1049C248.526 86.4982 248.368 85.8075 248.368 85.0329ZM254.864 85.0469C254.864 84.4682 254.747 83.9642 254.514 83.5349C254.28 83.1055 253.963 82.7789 253.562 82.5549C253.17 82.3215 252.736 82.2049 252.26 82.2049C251.784 82.2049 251.35 82.3169 250.958 82.5409C250.566 82.7649 250.253 83.0915 250.02 83.5209C249.786 83.9502 249.67 84.4542 249.67 85.0329C249.67 85.6209 249.786 86.1342 250.02 86.5729C250.253 87.0022 250.566 87.3335 250.958 87.5669C251.35 87.7909 251.784 87.9029 252.26 87.9029C252.736 87.9029 253.17 87.7909 253.562 87.5669C253.963 87.3335 254.28 87.0022 254.514 86.5729C254.747 86.1342 254.864 85.6255 254.864 85.0469ZM262.589 88.8969L259.579 85.5089V88.8969H258.305V78.5369H259.579V84.6269L262.533 81.2249H264.311L260.699 85.0469L264.325 88.8969H262.589ZM272.51 84.7669C272.51 85.0095 272.496 85.2662 272.468 85.5369H266.336C266.382 86.2929 266.639 86.8855 267.106 87.3149C267.582 87.7349 268.156 87.9449 268.828 87.9449C269.378 87.9449 269.836 87.8189 270.2 87.5669C270.573 87.3055 270.834 86.9602 270.984 86.5309H272.356C272.15 87.2682 271.74 87.8702 271.124 88.3369C270.508 88.7942 269.742 89.0229 268.828 89.0229C268.1 89.0229 267.446 88.8595 266.868 88.5329C266.298 88.2062 265.85 87.7442 265.524 87.1469C265.197 86.5402 265.034 85.8402 265.034 85.0469C265.034 84.2535 265.192 83.5582 265.51 82.9609C265.827 82.3635 266.27 81.9062 266.84 81.5889C267.418 81.2622 268.081 81.0989 268.828 81.0989C269.556 81.0989 270.2 81.2575 270.76 81.5749C271.32 81.8922 271.749 82.3309 272.048 82.8909C272.356 83.4415 272.51 84.0669 272.51 84.7669ZM271.194 84.5009C271.194 84.0155 271.086 83.6002 270.872 83.2549C270.657 82.9002 270.363 82.6342 269.99 82.4569C269.626 82.2702 269.22 82.1769 268.772 82.1769C268.128 82.1769 267.577 82.3822 267.12 82.7929C266.672 83.2035 266.415 83.7729 266.35 84.5009H271.194ZM275.465 82.4709C275.689 82.0322 276.007 81.6915 276.417 81.4489C276.837 81.2062 277.346 81.0849 277.943 81.0849V82.4009H277.607C276.179 82.4009 275.465 83.1755 275.465 84.7249V88.8969H274.191V81.2249H275.465V82.4709ZM280.1 79.9789C279.857 79.9789 279.652 79.8949 279.484 79.7269C279.325 79.5589 279.246 79.3535 279.246 79.1108C279.246 78.8682 279.325 78.6629 279.484 78.4949C279.652 78.3269 279.857 78.2429 280.1 78.2429C280.343 78.2429 280.543 78.3269 280.702 78.4949C280.87 78.6629 280.954 78.8682 280.954 79.1108C280.954 79.3535 280.87 79.5589 280.702 79.7269C280.543 79.8949 280.343 79.9789 280.1 79.9789ZM280.73 90.5629C280.73 91.2442 280.557 91.7435 280.212 92.0609C279.867 92.3782 279.363 92.5369 278.7 92.5369H277.958V91.4589H278.49C278.845 91.4589 279.092 91.3889 279.232 91.2489C279.381 91.1089 279.456 90.8709 279.456 90.5349V81.2249H280.73V90.5629ZM282.411 85.0329C282.411 84.2489 282.569 83.5629 282.887 82.9749C283.204 82.3775 283.638 81.9155 284.189 81.5889C284.749 81.2622 285.369 81.0989 286.051 81.0989C286.723 81.0989 287.306 81.2435 287.801 81.5329C288.295 81.8222 288.664 82.1862 288.907 82.6249V81.2249H290.195V88.8969H288.907V87.4689C288.655 87.9169 288.277 88.2902 287.773 88.5889C287.278 88.8782 286.699 89.0229 286.037 89.0229C285.355 89.0229 284.739 88.8549 284.189 88.5189C283.638 88.1829 283.204 87.7115 282.887 87.1049C282.569 86.4982 282.411 85.8075 282.411 85.0329ZM288.907 85.0469C288.907 84.4682 288.79 83.9642 288.557 83.5349C288.323 83.1055 288.006 82.7789 287.605 82.5549C287.213 82.3215 286.779 82.2049 286.303 82.2049C285.827 82.2049 285.393 82.3169 285.001 82.5409C284.609 82.7649 284.296 83.0915 284.063 83.5209C283.829 83.9502 283.713 84.4542 283.713 85.0329C283.713 85.6209 283.829 86.1342 284.063 86.5729C284.296 87.0022 284.609 87.3335 285.001 87.5669C285.393 87.7909 285.827 87.9029 286.303 87.9029C286.779 87.9029 287.213 87.7909 287.605 87.5669C288.006 87.3335 288.323 87.0022 288.557 86.5729C288.79 86.1342 288.907 85.6255 288.907 85.0469ZM297.354 79.1389V88.8969H296.08V79.1389H297.354ZM302.619 88.9949C301.975 88.9949 301.397 88.8829 300.883 88.6589C300.379 88.4255 299.983 88.1082 299.693 87.7069C299.404 87.2962 299.255 86.8249 299.245 86.2929H300.603C300.65 86.7502 300.837 87.1375 301.163 87.4549C301.499 87.7629 301.985 87.9169 302.619 87.9169C303.226 87.9169 303.702 87.7675 304.047 87.4689C304.402 87.1609 304.579 86.7689 304.579 86.2929C304.579 85.9195 304.477 85.6162 304.271 85.3829C304.066 85.1495 303.809 84.9722 303.501 84.8509C303.193 84.7295 302.778 84.5989 302.255 84.4589C301.611 84.2909 301.093 84.1229 300.701 83.9549C300.319 83.7869 299.987 83.5255 299.707 83.1709C299.437 82.8069 299.301 82.3215 299.301 81.7149C299.301 81.1829 299.437 80.7115 299.707 80.3009C299.978 79.8902 300.356 79.5728 300.841 79.3489C301.336 79.1249 301.901 79.0129 302.535 79.0129C303.45 79.0129 304.197 79.2415 304.775 79.6989C305.363 80.1562 305.695 80.7629 305.769 81.5189H304.369C304.323 81.1455 304.127 80.8189 303.781 80.5389C303.436 80.2495 302.979 80.1049 302.409 80.1049C301.877 80.1049 301.443 80.2449 301.107 80.5248C300.771 80.7955 300.603 81.1782 300.603 81.6729C300.603 82.0275 300.701 82.3169 300.897 82.5409C301.103 82.7649 301.35 82.9375 301.639 83.0589C301.938 83.1709 302.353 83.3015 302.885 83.4509C303.529 83.6282 304.047 83.8055 304.439 83.9829C304.831 84.1509 305.167 84.4169 305.447 84.7809C305.727 85.1355 305.867 85.6209 305.867 86.2369C305.867 86.7129 305.741 87.1609 305.489 87.5809C305.237 88.0009 304.864 88.3415 304.369 88.6029C303.875 88.8642 303.291 88.9949 302.619 88.9949ZM320.006 79.1389L317.178 88.8969H315.75L313.482 81.0428L311.13 88.8969L309.716 88.9109L306.986 79.1389H308.344L310.472 87.4129L312.824 79.1389H314.252L316.492 87.3849L318.634 79.1389H320.006Z" fill="black"/>
</svg>
