<svg width="123" height="245" viewBox="0 0 123 245" fill="none" xmlns="http://www.w3.org/2000/svg">
<g clip-path="url(#clip0_37_1940)">
<mask id="mask0_37_1940" style="mask-type:luminance" maskUnits="userSpaceOnUse" x="-123" y="0" width="246" height="245">
<path d="M-122.338 -0.00012207H122.406V244.745H-122.338V-0.00012207Z" fill="white"/>
</mask>
<g mask="url(#mask0_37_1940)">
<path d="M94.5036 149.452C92.7144 149.693 91.1146 148.35 91.0338 146.546C90.7972 141.251 90.0646 128.755 85.7641 119.893C83.3983 115.017 79.2929 104.987 79.2929 104.987L73.5553 92.6641C72.4606 91.373 72.6199 89.4388 73.911 88.3442L74.7227 87.6559C76.0138 86.5613 77.9478 86.7205 79.0425 88.0116L81.2259 91.7642C81.2259 91.7642 91.7848 116.055 93.9926 124.761C97.2869 137.751 96.9153 141.376 97.1575 146.271C97.2361 147.863 94.5036 149.452 94.5036 149.452Z" fill="#FF0000"/>
</g>
<mask id="mask1_37_1940" style="mask-type:luminance" maskUnits="userSpaceOnUse" x="72" y="86" width="26" height="64">
<path d="M74.7227 87.6564L73.911 88.3448C72.6198 89.4393 72.4606 91.3736 73.5554 92.6645L79.293 104.987C79.293 104.987 83.3982 115.018 85.7641 119.893C90.0646 128.755 90.7972 141.252 91.0338 146.547C91.1146 148.35 92.7144 149.693 94.5038 149.452C94.5038 149.452 97.2363 147.864 97.1575 146.271C96.9153 141.376 97.2869 137.752 93.9926 124.762C91.7848 116.055 81.2259 91.7648 81.2259 91.7648L79.0424 88.0121C78.4363 87.2971 77.5727 86.9292 76.7033 86.9293C76.0029 86.9293 75.2987 87.168 74.7227 87.6564Z" fill="white"/>
</mask>
<g mask="url(#mask1_37_1940)">
<path d="M79.5273 88.8085C79.2117 92.5105 79.2817 96.23 79.416 99.9388C79.5505 103.65 79.7482 107.363 79.6797 111.078C79.641 113.167 79.516 115.256 79.252 117.33C79.2054 117.697 79.4601 118.183 79.7087 118.432C79.9791 118.702 80.4226 118.906 80.8109 118.889C81.2142 118.871 81.6323 118.738 81.9132 118.432L82.157 118.117C82.298 117.873 82.3689 117.611 82.3699 117.33C82.838 113.65 82.8628 109.933 82.7623 106.23C82.6615 102.513 82.4384 98.8006 82.4205 95.0824C82.4105 92.9891 82.4673 90.8949 82.645 88.8085C82.6773 88.4306 82.4481 87.9658 82.1885 87.7062C81.9181 87.4358 81.4746 87.2322 81.0863 87.2496C80.683 87.2677 80.2649 87.4001 79.984 87.7062C79.6909 88.0255 79.5642 88.3764 79.5273 88.8085Z" fill="#DD0000"/>
</g>
<mask id="mask2_37_1940" style="mask-type:luminance" maskUnits="userSpaceOnUse" x="-123" y="0" width="246" height="245">
<path d="M-122.339 -0.00012207H122.406V244.745H-122.339V-0.00012207Z" fill="white"/>
</mask>
<g mask="url(#mask2_37_1940)">
<path d="M92.3059 145.564L92.1455 145.48C91.8045 145.303 91.3801 145.437 91.2026 145.778L89.2347 149.559C89.0572 149.9 89.1908 150.324 89.532 150.502L89.6924 150.586C90.0334 150.763 90.4578 150.629 90.6353 150.288L92.6032 146.507C92.7807 146.166 92.6469 145.741 92.3059 145.564Z" fill="#FF0000"/>
</g>
<mask id="mask3_37_1940" style="mask-type:luminance" maskUnits="userSpaceOnUse" x="-123" y="0" width="246" height="245">
<path d="M-122.339 -0.00012207H122.406V244.745H-122.339V-0.00012207Z" fill="white"/>
</mask>
<g mask="url(#mask3_37_1940)">
<path d="M92.7107 147.618L92.5317 147.592C92.1514 147.536 91.7944 147.801 91.7383 148.181L91.1166 152.399C91.0608 152.779 91.3261 153.136 91.7064 153.192L91.8853 153.219C92.2656 153.275 92.6228 153.009 92.6789 152.629L93.3004 148.412C93.3565 148.031 93.091 147.674 92.7107 147.618Z" fill="#FF0000"/>
</g>
<mask id="mask4_37_1940" style="mask-type:luminance" maskUnits="userSpaceOnUse" x="-123" y="0" width="246" height="245">
<path d="M-122.339 -0.00012207H122.406V244.745H-122.339V-0.00012207Z" fill="white"/>
</mask>
<g mask="url(#mask4_37_1940)">
<path d="M94.1477 148.031L93.9682 148.054C93.5867 148.102 93.3139 148.453 93.3619 148.834L93.8938 153.064C93.9417 153.445 94.2932 153.718 94.6745 153.67L94.854 153.648C95.2355 153.6 95.5084 153.249 95.4605 152.867L94.9284 148.637C94.8804 148.256 94.5291 147.983 94.1477 148.031Z" fill="#FF0000"/>
</g>
<mask id="mask5_37_1940" style="mask-type:luminance" maskUnits="userSpaceOnUse" x="-123" y="0" width="246" height="245">
<path d="M-122.339 -0.00012207H122.406V244.745H-122.339V-0.00012207Z" fill="white"/>
</mask>
<g mask="url(#mask5_37_1940)">
<path d="M95.9087 146.306L95.7302 146.335C95.3507 146.397 95.0903 146.757 95.1517 147.137L95.9326 151.963C95.9939 152.343 96.3548 152.603 96.7345 152.542L96.9128 152.513C97.2924 152.452 97.5528 152.091 97.4913 151.711L96.7105 146.885C96.649 146.505 96.2883 146.245 95.9087 146.306Z" fill="#FF0000"/>
</g>
<mask id="mask6_37_1940" style="mask-type:luminance" maskUnits="userSpaceOnUse" x="-123" y="0" width="246" height="245">
<path d="M-122.339 -0.00012207H122.406V244.745H-122.339V-0.00012207Z" fill="white"/>
</mask>
<g mask="url(#mask6_37_1940)">
<path d="M52.9242 225.812H43.6748V150.771H52.9242V225.812Z" fill="#FF0000"/>
</g>
<mask id="mask7_37_1940" style="mask-type:luminance" maskUnits="userSpaceOnUse" x="43" y="150" width="10" height="76">
<path d="M43.6748 225.812H52.9242V150.772H43.6748V225.812Z" fill="white"/>
</mask>
<g mask="url(#mask7_37_1940)">
<path d="M42.0094 154.669C49.4697 154.945 57.0563 155.207 64.28 153.323L42.0094 154.669Z" fill="#FF0000"/>
</g>
<mask id="mask8_37_1940" style="mask-type:luminance" maskUnits="userSpaceOnUse" x="-123" y="0" width="246" height="245">
<path d="M-122.339 -0.00012207H122.406V244.745H-122.339V-0.00012207Z" fill="white"/>
</mask>
<g mask="url(#mask8_37_1940)">
<path d="M63.141 225.812H53.8916V150.771H63.141V225.812Z" fill="#FF0000"/>
</g>
<mask id="mask9_37_1940" style="mask-type:luminance" maskUnits="userSpaceOnUse" x="53" y="150" width="11" height="76">
<path d="M53.8916 225.812H63.1412V150.772H53.8916V225.812Z" fill="white"/>
</mask>
<g mask="url(#mask9_37_1940)">
<path d="M53.0149 154.143C57.2699 154.399 61.5461 154.303 65.7854 153.855L53.0149 154.143Z" fill="#FF0000"/>
</g>
<mask id="mask10_37_1940" style="mask-type:luminance" maskUnits="userSpaceOnUse" x="-123" y="0" width="246" height="245">
<path d="M-122.339 -0.00012207H122.406V244.745H-122.339V-0.00012207Z" fill="white"/>
</mask>
<g mask="url(#mask10_37_1940)">
<path d="M50.3648 228.959H38.8993C37.4917 228.959 36.3399 227.808 36.3399 226.4V225.738C36.3399 224.33 37.4917 223.178 38.8993 223.178H50.3648C51.7725 223.178 52.9243 224.33 52.9243 225.738V226.4C52.9243 227.808 51.7725 228.959 50.3648 228.959Z" fill="#FF0000"/>
</g>
<mask id="mask11_37_1940" style="mask-type:luminance" maskUnits="userSpaceOnUse" x="-123" y="0" width="246" height="245">
<path d="M-122.339 -0.00012207H122.406V244.745H-122.339V-0.00012207Z" fill="white"/>
</mask>
<g mask="url(#mask11_37_1940)">
<path d="M67.9165 228.959H56.451C55.0434 228.959 53.8916 227.808 53.8916 226.4V225.738C53.8916 224.33 55.0434 223.178 56.451 223.178H67.9165C69.3242 223.178 70.476 224.33 70.476 225.738V226.4C70.476 227.808 69.3242 228.959 67.9165 228.959Z" fill="#FF0000"/>
</g>
<mask id="mask12_37_1940" style="mask-type:luminance" maskUnits="userSpaceOnUse" x="-123" y="0" width="246" height="245">
<path d="M-122.339 -0.00012207H122.406V244.745H-122.339V-0.00012207Z" fill="white"/>
</mask>
<g mask="url(#mask12_37_1940)">
<path d="M51.9274 155.209C36.3895 155.209 23.7933 142.613 23.7933 127.075V51.1522C23.7933 35.6143 36.3895 23.0181 51.9274 23.0181C67.4654 23.0181 80.0615 35.6143 80.0615 51.1522V127.075C80.0615 142.613 67.4654 155.209 51.9274 155.209Z" fill="#FF0000"/>
</g>
<mask id="mask13_37_1940" style="mask-type:luminance" maskUnits="userSpaceOnUse" x="23" y="23" width="58" height="133">
<path d="M23.7934 51.1527V127.076C23.7934 142.614 36.3894 155.21 51.9275 155.21C67.4655 155.21 80.0614 142.614 80.0614 127.076V51.1527C80.0614 35.6146 67.4655 23.0188 51.9275 23.0188C36.3894 23.0188 23.7934 35.6146 23.7934 51.1527Z" fill="white"/>
</mask>
<g mask="url(#mask13_37_1940)">
<path d="M35.5002 22.7629C28.941 28.719 24.4274 36.7635 22.1538 45.2863C21.032 49.492 20.429 53.8786 20.3629 58.2305C20.2846 63.3684 20.4575 68.5162 20.4259 73.6561C20.3629 83.908 20.1255 94.1607 20.3141 104.413C20.4097 109.619 20.5285 114.821 20.5818 120.029C20.6319 124.92 20.8112 129.764 21.9013 134.553C23.9448 143.528 28.5509 151.849 34.6607 158.692C35.3886 159.507 36.1424 160.298 36.9163 161.069C38.0731 162.222 40.1851 162.312 41.3254 161.069C42.4663 159.826 42.5599 157.89 41.3254 156.66C39.8018 155.142 38.3638 153.541 37.0267 151.856C36.936 151.741 36.8466 151.626 36.756 151.512C36.5403 151.239 36.905 151.702 36.9089 151.709C36.7797 151.467 36.5465 151.231 36.3827 151.009C36.0574 150.569 35.7389 150.124 35.4269 149.674C34.8035 148.775 34.2073 147.857 33.6401 146.921C32.5262 145.084 31.5231 143.179 30.6451 141.218C30.541 140.985 30.4415 140.751 30.3383 140.518C30.1961 140.198 30.4384 140.756 30.4398 140.761C30.3972 140.627 30.3274 140.49 30.2737 140.358C30.0546 139.82 29.8449 139.278 29.6449 138.732C29.2828 137.744 28.9524 136.745 28.6553 135.736C28.0516 133.684 27.5855 131.593 27.2715 129.478C27.2531 129.353 27.2074 129.178 27.2097 129.047C27.2099 129.042 27.2905 129.697 27.25 129.336C27.2218 129.084 27.1885 128.832 27.1611 128.58C27.0984 128.002 27.047 127.424 27.0075 126.844C26.9238 125.619 26.8951 124.39 26.8669 123.163C26.7497 118.046 26.7736 112.929 26.6285 107.812C26.3448 97.8051 26.5329 87.7932 26.6283 77.785C26.6771 72.6566 26.7018 67.5275 26.6386 62.3992C26.6114 60.1816 26.5534 57.9703 26.6975 55.7552C26.7649 54.7196 26.871 53.6887 26.9955 52.6585C27.0183 52.4699 27.1154 52.077 26.9669 52.869C26.986 52.7672 26.9963 52.6626 27.0114 52.5601C27.0465 52.3196 27.0834 52.0796 27.1221 51.8399C27.2107 51.2912 27.3084 50.7439 27.4151 50.1985C27.8098 48.1824 28.3288 46.1905 28.9723 44.2394C29.2892 43.2795 29.6359 42.3294 30.0132 41.3916C30.088 41.2054 30.4992 40.381 30.1 41.1707C30.2093 40.9543 30.2948 40.7213 30.3937 40.5002C30.6072 40.023 30.8288 39.5493 31.0585 39.0797C31.9623 37.2329 32.9925 35.4474 34.1477 33.7462C34.4416 33.3135 34.7434 32.886 35.0536 32.4646C35.1982 32.2678 35.3466 32.0737 35.4932 31.8782C35.7 31.6023 35.3258 32.0952 35.3261 32.0949C35.4444 31.9743 35.545 31.8175 35.6521 31.6848C36.2884 30.8941 36.9546 30.1276 37.6497 29.388C38.3725 28.6189 39.1278 27.8817 39.9092 27.1719C41.12 26.0725 41.1092 23.8644 39.9092 22.7629C38.6153 21.5751 36.7916 21.5901 35.5002 22.7629Z" fill="#DD0000"/>
</g>
<mask id="mask14_37_1940" style="mask-type:luminance" maskUnits="userSpaceOnUse" x="-123" y="0" width="246" height="245">
<path d="M-122.339 -0.00012207H122.406V244.745H-122.339V-0.00012207Z" fill="white"/>
</mask>
<g mask="url(#mask14_37_1940)">
<path d="M36.7157 64.0581C38.346 63.0587 40.2571 62.4723 42.3096 62.4723C44.2781 62.4723 46.1167 63.0113 47.7029 63.9362C49.8629 62.2662 51.2597 59.6568 51.2597 56.7153C51.2597 51.6719 47.1712 47.5835 42.1278 47.5835C37.0846 47.5835 32.9962 51.6719 32.9962 56.7153C32.9962 59.7297 34.4634 62.3951 36.7157 64.0581Z" fill="#DD0000"/>
</g>
<mask id="mask15_37_1940" style="mask-type:luminance" maskUnits="userSpaceOnUse" x="-123" y="0" width="246" height="245">
<path d="M-122.339 -0.00012207H122.406V244.745H-122.339V-0.00012207Z" fill="white"/>
</mask>
<g mask="url(#mask15_37_1940)">
<path d="M52.9201 220.996H43.6706V150.771H52.9201V220.996Z" fill="#302829"/>
</g>
<mask id="mask16_37_1940" style="mask-type:luminance" maskUnits="userSpaceOnUse" x="43" y="150" width="10" height="71">
<path d="M43.6703 220.996H52.9201V150.772H43.6703V220.996Z" fill="white"/>
</mask>
<g mask="url(#mask16_37_1940)">
<path d="M42.005 154.419C49.4653 154.677 57.0519 154.922 64.2757 153.159L42.005 154.419Z" fill="#302829"/>
</g>
<mask id="mask17_37_1940" style="mask-type:luminance" maskUnits="userSpaceOnUse" x="-123" y="0" width="246" height="245">
<path d="M-122.339 -0.00012207H122.406V244.745H-122.339V-0.00012207Z" fill="white"/>
</mask>
<g mask="url(#mask17_37_1940)">
<path d="M63.1367 220.996H53.8873V150.771H63.1367V220.996Z" fill="#302829"/>
</g>
<mask id="mask18_37_1940" style="mask-type:luminance" maskUnits="userSpaceOnUse" x="53" y="150" width="11" height="71">
<path d="M53.8872 220.996H63.1366V150.772H53.8872V220.996Z" fill="white"/>
</mask>
<g mask="url(#mask18_37_1940)">
<path d="M53.0106 153.926C57.2656 154.166 61.5419 154.076 65.781 153.657L53.0106 153.926Z" fill="#302829"/>
</g>
<mask id="mask19_37_1940" style="mask-type:luminance" maskUnits="userSpaceOnUse" x="-123" y="0" width="246" height="245">
<path d="M-122.338 -0.00012207H122.406V244.745H-122.338V-0.00012207Z" fill="white"/>
</mask>
<g mask="url(#mask19_37_1940)">
<path d="M56.0854 64.0581C57.7159 63.0587 59.6269 62.4723 61.6793 62.4723C63.6479 62.4723 65.4866 63.0113 67.0727 63.9362C69.2326 62.2662 70.6295 59.6568 70.6295 56.7153C70.6295 51.6719 66.5409 47.5835 61.4976 47.5835C56.4543 47.5835 52.366 51.6719 52.366 56.7153C52.366 59.7297 53.8331 62.3951 56.0854 64.0581Z" fill="#DD0000"/>
</g>
<mask id="mask20_37_1940" style="mask-type:luminance" maskUnits="userSpaceOnUse" x="-123" y="0" width="246" height="245">
<path d="M-122.339 -0.00012207H122.406V244.745H-122.339V-0.00012207Z" fill="white"/>
</mask>
<g mask="url(#mask20_37_1940)">
<path d="M36.179 63.3481C37.8093 62.3488 39.7202 61.7625 41.7727 61.7625C43.7412 61.7625 45.5799 62.3013 47.166 63.2264C49.3261 61.5563 50.7228 58.9468 50.7228 56.0053C50.7228 50.9619 46.6343 46.8736 41.5911 46.8736C36.5479 46.8736 32.4593 50.9619 32.4593 56.0053C32.4593 59.0199 33.9265 61.6852 36.179 63.3481Z" fill="white"/>
</g>
<mask id="mask21_37_1940" style="mask-type:luminance" maskUnits="userSpaceOnUse" x="-123" y="0" width="246" height="245">
<path d="M-122.338 -0.00012207H122.406V244.745H-122.338V-0.00012207Z" fill="white"/>
</mask>
<g mask="url(#mask21_37_1940)">
<path d="M55.6471 63.3481C57.2774 62.3488 59.1884 61.7625 61.2408 61.7625C63.2093 61.7625 65.048 62.3013 66.6341 63.2264C68.7943 61.5563 70.1909 58.9468 70.1909 56.0053C70.1909 50.9619 66.1024 46.8736 61.0592 46.8736C56.016 46.8736 51.9274 50.9619 51.9274 56.0053C51.9274 59.0199 53.3946 61.6852 55.6471 63.3481Z" fill="white"/>
</g>
<mask id="mask22_37_1940" style="mask-type:luminance" maskUnits="userSpaceOnUse" x="-123" y="0" width="246" height="245">
<path d="M-122.338 -0.00012207H122.406V244.745H-122.338V-0.00012207Z" fill="white"/>
</mask>
<g mask="url(#mask22_37_1940)">
<path d="M68.2928 57.8591C68.2928 60.112 66.4664 61.9385 64.2132 61.9385C61.9601 61.9385 60.1337 60.112 60.1337 57.8591C60.1337 55.606 61.9601 53.7795 64.2132 53.7795C66.4664 53.7795 68.2928 55.606 68.2928 57.8591Z" fill="#353535"/>
</g>
<mask id="mask23_37_1940" style="mask-type:luminance" maskUnits="userSpaceOnUse" x="-123" y="0" width="246" height="245">
<path d="M-122.339 -0.00012207H122.406V244.745H-122.339V-0.00012207Z" fill="white"/>
</mask>
<g mask="url(#mask23_37_1940)">
<path d="M49.75 57.3308C49.75 59.5839 47.9238 61.4102 45.6706 61.4102C43.4175 61.4102 41.5911 59.5839 41.5911 57.3308C41.5911 55.0778 43.4175 53.2513 45.6706 53.2513C47.9238 53.2513 49.75 55.0778 49.75 57.3308Z" fill="#353535"/>
</g>
<mask id="mask24_37_1940" style="mask-type:luminance" maskUnits="userSpaceOnUse" x="-123" y="0" width="246" height="245">
<path d="M-122.339 -0.00012207H122.406V244.745H-122.339V-0.00012207Z" fill="white"/>
</mask>
<g mask="url(#mask24_37_1940)">
<path d="M49.7797 24.0003C49.7797 24.0003 50.209 21.594 49.4675 19.604C48.7261 17.6141 48.5702 16.9118 48.5702 16.9118C48.5702 16.9118 48.5312 16.2094 50.1308 17.302C51.7306 18.3945 54.7351 20.0333 55.4375 22.4135L56.1398 24.7936C56.1398 24.7936 56.7642 26.0423 57.5446 24.5986C58.325 23.1548 60.9784 19.0188 63.0853 17.38C65.1924 15.7411 66.0898 15.5852 66.7142 15.5462C67.3385 15.507 67.7286 15.7801 67.1823 17.4971C66.6362 19.2139 65.6217 21.6331 65.6997 24.1303C65.7777 26.6276 65.3874 28.3054 66.2849 28.8908C67.1823 29.4761 68.431 29.593 69.7185 28.2664C71.0064 26.9397 74.0887 23.8572 74.9083 23.7402C75.7275 23.6231 76.1568 23.1548 75.4154 27.486C74.6741 31.8171 73.8156 33.7681 73.8156 33.7681L49.7797 24.0003Z" fill="#FF0000"/>
</g>
<mask id="mask25_37_1940" style="mask-type:luminance" maskUnits="userSpaceOnUse" x="-123" y="0" width="246" height="245">
<path d="M-122.339 -0.00012207H122.406V244.745H-122.339V-0.00012207Z" fill="white"/>
</mask>
<g mask="url(#mask25_37_1940)">
<path d="M51.4612 75.2536C49.9564 74.5011 48.1356 75.1924 47.5145 76.7472C45.6906 81.3121 41.2327 92.0334 34.736 98.4914C31.1624 102.044 30.3039 103.082 30.3039 103.082L21.4844 112.135C20.1251 112.934 19.6756 114.676 20.4804 116.025L20.9866 116.874C21.7913 118.223 23.5458 118.669 24.9051 117.87L27.9758 115.246C27.9758 115.246 38.876 103.675 43.4791 96.72C50.347 86.3425 51.1248 83.0562 52.8315 78.8428C53.3867 77.4724 51.4612 75.2536 51.4612 75.2536Z" fill="#DD0000"/>
</g>
<mask id="mask26_37_1940" style="mask-type:luminance" maskUnits="userSpaceOnUse" x="-123" y="0" width="246" height="245">
<path d="M-122.339 -0.00012207H122.406V244.745H-122.339V-0.00012207Z" fill="white"/>
</mask>
<g mask="url(#mask26_37_1940)">
<path d="M48.3075 77.9972L48.1985 78.0132C47.8277 78.0677 47.4793 77.811 47.4243 77.443L46.8505 73.593C46.7955 73.2247 47.0541 72.879 47.4251 72.8245L47.5341 72.8085C47.905 72.754 48.2534 73.0106 48.3083 73.3789L48.882 77.2287C48.937 77.5968 48.6784 77.9427 48.3075 77.9972Z" fill="#DD0000"/>
</g>
<mask id="mask27_37_1940" style="mask-type:luminance" maskUnits="userSpaceOnUse" x="-123" y="0" width="246" height="245">
<path d="M-122.339 -0.00012207H122.406V244.745H-122.339V-0.00012207Z" fill="white"/>
</mask>
<g mask="url(#mask27_37_1940)">
<path d="M49.2916 76.311L49.1833 76.2906C48.8149 76.2216 48.5704 75.8658 48.64 75.5001L49.3673 71.6759C49.437 71.3101 49.7953 71.0673 50.1637 71.1365L50.2721 71.1567C50.6405 71.2257 50.8849 71.5816 50.8154 71.9474L50.088 75.7714C50.0184 76.1373 49.6601 76.38 49.2916 76.311Z" fill="#DD0000"/>
</g>
<mask id="mask28_37_1940" style="mask-type:luminance" maskUnits="userSpaceOnUse" x="-123" y="0" width="246" height="245">
<path d="M-122.339 -0.00012207H122.406V244.745H-122.339V-0.00012207Z" fill="white"/>
</mask>
<g mask="url(#mask28_37_1940)">
<path d="M50.6874 76.3774L50.5885 76.3289C50.2523 76.1643 50.1128 75.7566 50.2785 75.4227L52.012 71.932C52.1779 71.5982 52.5886 71.4598 52.9249 71.6244L53.0238 71.6727C53.36 71.8374 53.4995 72.2453 53.3338 72.5791L51.6003 76.0697C51.4344 76.4035 51.0237 76.542 50.6874 76.3774Z" fill="#DD0000"/>
</g>
<mask id="mask29_37_1940" style="mask-type:luminance" maskUnits="userSpaceOnUse" x="-123" y="0" width="246" height="245">
<path d="M-122.339 -0.00012207H122.406V244.745H-122.339V-0.00012207Z" fill="white"/>
</mask>
<g mask="url(#mask29_37_1940)">
<path d="M51.715 78.4202L51.6179 78.3685C51.2877 78.1921 51.1627 77.7796 51.3404 77.4518L53.4736 73.5132C53.6511 73.1854 54.0665 73.0612 54.3969 73.2376L54.4938 73.2893C54.8242 73.4657 54.9489 73.8782 54.7714 74.206L52.6382 78.1448C52.4607 78.4726 52.0452 78.5966 51.715 78.4202Z" fill="#DD0000"/>
</g>
<mask id="mask30_37_1940" style="mask-type:luminance" maskUnits="userSpaceOnUse" x="-123" y="0" width="246" height="245">
<path d="M-122.339 -0.00012207H122.406V244.745H-122.339V-0.00012207Z" fill="white"/>
</mask>
<g mask="url(#mask30_37_1940)">
<path d="M80.0614 83.0609V127.042C80.0614 142.58 67.4655 155.176 51.9274 155.176C36.3895 155.176 23.7935 142.58 23.7935 127.042V83.0609" fill="#F9F9F9"/>
</g>
<mask id="mask31_37_1940" style="mask-type:luminance" maskUnits="userSpaceOnUse" x="23" y="83" width="58" height="73">
<path d="M23.7934 83.0614V127.043C23.7934 142.581 36.3894 155.177 51.9275 155.177C67.4655 155.177 80.0614 142.581 80.0614 127.043V83.0614H23.7934Z" fill="white"/>
</mask>
<g mask="url(#mask31_37_1940)">
<path d="M22.3557 82.8824C22.6337 90.0981 22.3309 97.3044 22.0405 104.514C21.7499 111.734 21.6108 118.956 22.1297 126.17C22.2775 128.222 22.472 130.272 22.7117 132.316C22.9737 134.55 23.2141 136.802 23.7786 138.984C24.3003 141.001 25.0523 143.001 26.0507 144.83C27.0744 146.706 28.5032 148.32 30.0957 149.732C31.0307 150.561 31.9758 151.436 33.0735 152.047C33.7977 152.451 34.5556 152.795 35.3143 153.127C37.6633 154.155 40.0563 155.079 42.4621 155.966C46.3203 157.388 50.2174 158.695 54.102 160.042C54.266 160.098 54.43 160.155 54.593 160.215C55.3159 160.479 56.352 160.277 56.9954 159.9C57.6422 159.522 58.2588 158.78 58.4281 158.037C58.6099 157.239 58.5706 156.343 58.1137 155.635C57.6534 154.921 57.0492 154.494 56.2505 154.202C54.6096 153.602 52.9426 153.068 51.2907 152.498C48.4845 151.531 45.6839 150.545 42.9046 149.501C41.4117 148.941 39.9238 148.365 38.4542 147.745L39.1989 148.059C37.9366 147.526 36.5408 147.007 35.4402 146.168C35.6505 146.331 35.8609 146.493 36.0713 146.656C34.627 145.534 33.2135 144.257 32.0849 142.814C32.2475 143.024 32.4098 143.234 32.5723 143.445C31.7722 142.4 31.1547 141.234 30.637 140.027C30.7416 140.275 30.8465 140.524 30.9513 140.772C30.0281 138.584 29.4624 136.283 29.1443 133.934C29.1815 134.21 29.2187 134.487 29.2557 134.763C28.3012 127.658 27.9261 120.505 28.0161 113.339C28.0961 106.994 28.4942 100.66 28.6474 94.3169C28.7393 90.5055 28.738 86.6924 28.5913 82.8824C28.5596 82.064 28.2651 81.2648 27.6781 80.6777C27.1373 80.137 26.2501 79.7299 25.4734 79.7647C24.6672 79.8007 23.8308 80.0655 23.2689 80.6777C22.7213 81.2742 22.3237 82.0498 22.3557 82.8824Z" fill="#F2F2F2"/>
</g>
<mask id="mask32_37_1940" style="mask-type:luminance" maskUnits="userSpaceOnUse" x="-123" y="0" width="246" height="245">
<path d="M-122.339 -0.00012207H122.406V244.745H-122.339V-0.00012207Z" fill="white"/>
</mask>
<g mask="url(#mask32_37_1940)">
<path d="M44.351 74.2392C44.351 74.2392 54.8003 79.7634 61.4977 70.7142" stroke="#353535" stroke-width="1.24706" stroke-miterlimit="10" stroke-linecap="round"/>
</g>
<mask id="mask33_37_1940" style="mask-type:luminance" maskUnits="userSpaceOnUse" x="-123" y="0" width="246" height="245">
<path d="M-122.339 -0.00012207H122.406V244.745H-122.339V-0.00012207Z" fill="white"/>
</mask>
<g mask="url(#mask33_37_1940)">
<path d="M53.976 83.0608H52.8311L48.1981 87.694L53.4035 92.8994L58.6092 87.694L53.976 83.0608Z" fill="#302829"/>
</g>
<mask id="mask34_37_1940" style="mask-type:luminance" maskUnits="userSpaceOnUse" x="-123" y="0" width="246" height="245">
<path d="M-122.339 -0.00012207H122.406V244.745H-122.339V-0.00012207Z" fill="white"/>
</mask>
<g mask="url(#mask34_37_1940)">
<path d="M47.1188 83.2691H53.1518L50.1352 87.4383L47.1188 91.6074L44.1023 87.4383L41.0857 83.2691H47.1188Z" fill="#DDDDDD"/>
</g>
<mask id="mask35_37_1940" style="mask-type:luminance" maskUnits="userSpaceOnUse" x="-123" y="0" width="246" height="245">
<path d="M-122.339 -0.00012207H122.406V244.745H-122.339V-0.00012207Z" fill="white"/>
</mask>
<g mask="url(#mask35_37_1940)">
<path d="M47.3237 84.4805C44.1108 84.1484 44.6419 83.3466 44.0207 84.9017C42.1969 89.4667 40.2724 93.9452 33.7759 100.403C30.2021 103.956 29.3437 104.993 29.3437 104.993L20.5243 114.046C19.165 114.846 19.8917 115.632 20.6966 116.981L21.1081 118.005C21.9129 119.355 24.6626 119.079 26.0219 118.28L27.0156 117.157C27.0156 117.157 37.9158 105.587 42.519 98.6316C49.3869 88.2543 48.8445 88.6938 50.5512 84.4805H47.3237Z" fill="#F2F2F2"/>
</g>
<mask id="mask36_37_1940" style="mask-type:luminance" maskUnits="userSpaceOnUse" x="-123" y="0" width="246" height="245">
<path d="M-122.339 -0.00012207H122.406V244.745H-122.339V-0.00012207Z" fill="white"/>
</mask>
<g mask="url(#mask36_37_1940)">
<path d="M46.8432 83.0611H52.8762L49.8596 87.2303L46.8432 91.3994L43.8266 87.2303L40.8101 83.0611H46.8432Z" fill="#F2F2F2"/>
</g>
<mask id="mask37_37_1940" style="mask-type:luminance" maskUnits="userSpaceOnUse" x="-123" y="0" width="246" height="245">
<path d="M-122.339 -0.00012207H122.406V244.745H-122.339V-0.00012207Z" fill="white"/>
</mask>
<g mask="url(#mask37_37_1940)">
<path d="M60.4211 83.2691H66.4541L63.4375 87.4383L60.4211 91.6074L57.4047 87.4383L54.388 83.2691H60.4211Z" fill="#DDDDDD"/>
</g>
<mask id="mask38_37_1940" style="mask-type:luminance" maskUnits="userSpaceOnUse" x="-123" y="0" width="246" height="245">
<path d="M-122.339 -0.00012207H122.406V244.745H-122.339V-0.00012207Z" fill="white"/>
</mask>
<g mask="url(#mask38_37_1940)">
<path d="M59.6936 83.0611H65.7267L62.7102 87.2303L59.6936 91.3994L56.6772 87.2303L53.6606 83.0611H59.6936Z" fill="#F2F2F2"/>
</g>
<mask id="mask39_37_1940" style="mask-type:luminance" maskUnits="userSpaceOnUse" x="-123" y="0" width="246" height="245">
<path d="M-122.339 -0.00012207H122.406V244.745H-122.339V-0.00012207Z" fill="white"/>
</mask>
<g mask="url(#mask39_37_1940)">
<path d="M52.5466 74.0679C52.1984 73.8808 51.7605 74.0125 51.5732 74.3605L50.2388 76.842C50.1404 76.6911 50.0461 76.5562 49.9611 76.4403L51.4386 73.4437C51.6133 73.0891 51.4663 72.6562 51.1117 72.4813C50.7572 72.3066 50.3241 72.4536 50.1496 72.8082L48.6964 75.7549C48.6135 75.7454 48.5311 75.7307 48.4483 75.7288L48.996 72.8277C49.0694 72.4394 48.8116 72.0617 48.4233 71.9883C48.0348 71.915 47.6571 72.1728 47.5837 72.5611L46.9064 76.1486C46.8894 76.1592 46.8734 76.1705 46.8568 76.1812L46.5686 74.2345C46.511 73.8436 46.1436 73.5709 45.7525 73.6289C45.3617 73.6868 45.0892 74.0539 45.1468 74.445L45.6489 77.8354C43.7934 82.4881 39.5095 92.6583 33.3237 98.8521C29.8379 102.342 29.0007 103.362 29.0007 103.362L20.3989 112.255C19.073 113.04 18.6346 114.752 19.4197 116.077L19.9131 116.911C20.6983 118.237 22.4094 118.675 23.7352 117.89L26.7299 115.311C26.7299 115.311 37.3613 103.945 41.8508 97.1116C48.5493 86.917 49.3078 83.6884 50.9726 79.5492C51.1039 79.2223 51.091 78.846 50.9987 78.4639L52.8391 75.0412C53.0263 74.693 52.8946 74.2551 52.5466 74.0679Z" fill="#FF0000"/>
</g>
<mask id="mask40_37_1940" style="mask-type:luminance" maskUnits="userSpaceOnUse" x="-123" y="0" width="246" height="245">
<path d="M-122.339 -0.00012207H122.406V244.745H-122.339V-0.00012207Z" fill="white"/>
</mask>
<g mask="url(#mask40_37_1940)">
<path d="M60.1589 119.944L53.4038 126.699L46.6485 119.944L53.4038 92.6042L60.1589 119.944Z" fill="#302829"/>
</g>
</g>
<defs>
<clipPath id="clip0_37_1940">
<rect width="122.25" height="244.745" fill="white" transform="translate(0.15625)"/>
</clipPath>
</defs>
</svg>
