<svg width="20" height="23" viewBox="0 0 20 23" fill="none" xmlns="http://www.w3.org/2000/svg">
<path d="M14.1666 7.33909V14.8959C14.1666 18.6354 11.1353 21.6668 7.39584 21.6668C3.6564 21.6668 0.625 18.6354 0.625 14.8959C0.625 11.1565 3.6564 8.12516 7.39584 8.12516C7.93365 8.12516 8.45677 8.18786 8.95834 8.30634V11.601C8.48479 11.376 7.955 11.2502 7.39584 11.2502C5.38229 11.2502 3.75 12.8824 3.75 14.8959C3.75 16.9096 5.38229 18.5418 7.39584 18.5418C9.40938 18.5418 11.0417 16.9096 11.0417 14.8959V0.833496H14.1666C14.1666 3.70997 16.4985 6.04182 19.375 6.04182V9.16682C17.4042 9.16682 15.5934 8.48275 14.1666 7.33909Z" fill="#25292A"/>
</svg>
