<svg width="20" height="17" viewBox="0 0 20 17" fill="none" xmlns="http://www.w3.org/2000/svg">
<g clip-path="url(#clip0_37_1448)">
<path d="M19.456 2.37597C18.7492 2.68866 17.9996 2.89402 17.232 2.98529C18.0407 2.50122 18.6458 1.73972 18.9346 0.842638C18.1748 1.29408 17.3431 1.61182 16.4758 1.78204C15.7437 1.00098 14.7203 0.55836 13.6498 0.559573C11.5117 0.559573 9.77751 2.29316 9.77751 4.43224C9.77751 4.73572 9.81233 5.03002 9.87742 5.31397C6.65785 5.15189 3.80563 3.61116 1.89517 1.26797C1.55121 1.85896 1.37043 2.53072 1.37134 3.21451C1.37134 4.55796 2.0552 5.74374 3.09398 6.43797C2.47906 6.41852 1.87767 6.25244 1.34 5.95346C1.3394 5.96972 1.3394 5.98599 1.3394 6.00137C1.3394 7.87815 2.67426 9.4437 4.44629 9.79917C4.11372 9.88917 3.77067 9.93463 3.42614 9.93436C3.17591 9.93436 2.93307 9.9113 2.69704 9.86602C3.19012 11.4042 4.61933 12.524 6.31445 12.5547C4.94273 13.6313 3.2488 14.2153 1.50504 14.2129C1.19642 14.2131 0.888057 14.1949 0.581604 14.1584C2.35189 15.2964 4.41253 15.9004 6.51706 15.8982C13.6403 15.8982 17.5352 9.99769 17.5352 4.88066C17.5352 4.71324 17.5311 4.54524 17.5237 4.3796C18.2818 3.8319 18.9361 3.1534 19.456 2.37597Z" fill="#25292A"/>
</g>
<defs>
<clipPath id="clip0_37_1448">
<rect width="20" height="15.5556" fill="white" transform="translate(0 0.472168)"/>
</clipPath>
</defs>
</svg>
