<svg width="162" height="178" viewBox="0 0 162 178" fill="none" xmlns="http://www.w3.org/2000/svg">
<mask id="mask0_37_2215" style="mask-type:luminance" maskUnits="userSpaceOnUse" x="-136" y="-120" width="297" height="298">
<path d="M-135.844 -119.255H160.977V177.565H-135.844V-119.255Z" fill="white"/>
</mask>
<g mask="url(#mask0_37_2215)">
<path d="M91.8885 155.22H89.7454V124.011C89.8572 124.003 89.9692 123.995 90.081 123.987C90.4849 123.957 90.9098 123.921 91.244 123.692L89.7454 123.823V119.648H77.6636V124.875L76.1653 125.005C76.6647 124.969 77.1644 124.932 77.6636 124.895V157.905V158.429C77.6636 159.906 78.8721 161.114 80.3493 161.114H91.8885C93.3654 161.114 94.5737 159.906 94.5737 158.429V157.905C94.5737 156.428 93.3654 155.22 91.8885 155.22Z" fill="#FFCC02"/>
</g>
<mask id="mask1_37_2215" style="mask-type:luminance" maskUnits="userSpaceOnUse" x="76" y="119" width="19" height="43">
<path d="M77.6636 119.648V124.874L76.1653 125.005C76.6647 124.968 77.1644 124.931 77.6636 124.895V157.905V158.428C77.6636 159.905 78.8721 161.114 80.3491 161.114H91.8885C93.3654 161.114 94.5737 159.905 94.5737 158.428V157.905C94.5737 156.428 93.3654 155.219 91.8885 155.219H89.7452V124.011C89.8572 124.003 89.9692 123.995 90.081 123.986C90.4849 123.957 90.9095 123.92 91.244 123.692L89.7452 123.822V119.648H77.6636Z" fill="white"/>
</mask>
<g mask="url(#mask1_37_2215)">
<path d="M73.1919 127.655L96.9096 128.079L95.9214 123.138L70.9119 123.279L73.1919 127.655Z" fill="#F2BA08"/>
</g>
<mask id="mask2_37_2215" style="mask-type:luminance" maskUnits="userSpaceOnUse" x="76" y="119" width="19" height="43">
<path d="M77.6636 119.648V124.874L76.1653 125.005C76.6647 124.968 77.1644 124.931 77.6636 124.895V157.905V158.428C77.6636 159.905 78.8721 161.114 80.3491 161.114H91.8885C93.3654 161.114 94.5737 159.905 94.5737 158.428V157.905C94.5737 156.428 93.3654 155.219 91.8885 155.219H89.7452V124.011C89.8572 124.003 89.9692 123.995 90.081 123.986C90.4849 123.957 90.9095 123.92 91.244 123.692L89.7452 123.822V119.648H77.6636Z" fill="white"/>
</mask>
<g mask="url(#mask2_37_2215)">
<path d="M75.5919 125.154L76.1651 161.114L83.9212 161.635L78.98 124.268L75.5919 125.154Z" fill="#F2BA08"/>
</g>
<mask id="mask3_37_2215" style="mask-type:luminance" maskUnits="userSpaceOnUse" x="-136" y="-120" width="297" height="298">
<path d="M-135.844 -119.255H160.977V177.565H-135.844V-119.255Z" fill="white"/>
</mask>
<g mask="url(#mask3_37_2215)">
<path d="M85.9217 26.4213C88.0857 16.9294 92.1474 6.68391 102.577 4.14332C105.033 3.54533 103.993 -0.245071 101.533 0.354111C89.7226 3.2307 84.6092 14.5125 82.1327 25.3767C81.5713 27.8387 85.3589 28.8899 85.9217 26.4213Z" fill="#FFCC02"/>
</g>
<mask id="mask4_37_2215" style="mask-type:luminance" maskUnits="userSpaceOnUse" x="82" y="0" width="22" height="28">
<path d="M101.533 0.354111C89.7225 3.2307 84.6091 14.5125 82.1326 25.3767C81.5712 27.8387 85.3588 28.8899 85.9216 26.4213C88.0856 16.9294 92.1475 6.68391 102.577 4.14353C104.854 3.58887 104.126 0.290392 102.047 0.290195C101.883 0.290195 101.712 0.310379 101.533 0.354111Z" fill="white"/>
</mask>
<g mask="url(#mask4_37_2215)">
<path d="M82.3183 20.3103C85.0764 20.8092 87.8768 21.0718 90.6799 21.0439C91.6862 21.0338 92.6512 20.1659 92.6043 19.1193C92.558 18.0854 91.7586 17.1842 90.6799 17.1949C88.6905 17.2147 86.7027 17.093 84.7305 16.8306C84.901 16.8536 85.0716 16.8763 85.242 16.8993C84.6064 16.8132 83.9728 16.7131 83.3415 16.5989C82.8223 16.5051 82.3282 16.5182 81.8586 16.793C81.4593 17.0265 81.0786 17.4842 80.9741 17.9431C80.8621 18.4356 80.8862 18.9887 81.1682 19.426C81.4259 19.8255 81.8317 20.2223 82.3183 20.3103Z" fill="#EFB703"/>
</g>
<mask id="mask5_37_2215" style="mask-type:luminance" maskUnits="userSpaceOnUse" x="-136" y="-120" width="297" height="298">
<path d="M-135.844 -119.255H160.977V177.565H-135.844V-119.255Z" fill="white"/>
</mask>
<g mask="url(#mask5_37_2215)">
<path d="M148.463 59.2232C146.75 58.5512 143.873 57.7334 142.432 61.9955C140.7 67.1149 133.946 79.1866 127.539 86.9215C124.014 91.1765 112.191 102.479 112.191 102.479L100.616 110.875C99.219 111.888 98.9079 113.842 99.9213 115.24L100.558 116.118C101.572 117.515 103.526 117.826 104.923 116.813L114.792 111.87C114.792 111.87 135.319 91.4096 140.233 83.6818C148.781 70.2414 148.404 69.0102 149.857 64.2284C151.281 59.5406 148.463 59.2232 148.463 59.2232Z" fill="#FFCC02"/>
</g>
<mask id="mask6_37_2215" style="mask-type:luminance" maskUnits="userSpaceOnUse" x="99" y="58" width="52" height="60">
<path d="M142.432 61.9955C140.7 67.1149 133.946 79.1866 127.539 86.9215C124.014 91.1765 112.191 102.479 112.191 102.479L100.616 110.875C99.2191 111.888 98.908 113.842 99.9213 115.239L100.559 116.118C101.572 117.515 103.526 117.826 104.923 116.813L114.792 111.87C114.792 111.87 135.319 91.4096 140.233 83.6818C148.781 70.2414 148.404 69.0102 149.857 64.2284C151.281 59.5408 148.463 59.2232 148.463 59.2232C147.799 58.9628 146.96 58.6804 146.098 58.6804C144.736 58.6804 143.315 59.3853 142.432 61.9955Z" fill="white"/>
</mask>
<g mask="url(#mask6_37_2215)">
<path d="M132.617 99.045C133.209 94.1794 132.298 89.3149 132.258 84.4464C132.246 83.0587 132.315 81.6735 132.484 80.2959C132.539 79.8413 132.229 79.2437 131.92 78.9351C131.586 78.6014 131.039 78.3501 130.559 78.3715C130.062 78.3938 129.545 78.5573 129.199 78.9351C129.098 79.0649 128.998 79.1949 128.898 79.3245C128.723 79.6247 128.636 79.9486 128.635 80.2959C128.036 85.1908 128.902 90.0597 128.967 94.9558C128.985 96.3218 128.933 97.6884 128.768 99.045C128.713 99.4998 129.023 100.097 129.332 100.406C129.666 100.739 130.213 100.991 130.693 100.969C131.191 100.947 131.707 100.784 132.054 100.406C132.154 100.276 132.254 100.146 132.355 100.016C132.529 99.7163 132.616 99.3923 132.617 99.045Z" fill="#EFB703"/>
</g>
<mask id="mask7_37_2215" style="mask-type:luminance" maskUnits="userSpaceOnUse" x="-136" y="-120" width="297" height="298">
<path d="M-135.844 -119.255H160.977V177.565H-135.844V-119.255Z" fill="white"/>
</mask>
<g mask="url(#mask7_37_2215)">
<path d="M5.77533 57.6393C7.48897 56.9673 10.3652 56.1494 11.8071 60.4116C13.539 65.5308 20.2924 77.6027 26.6994 85.3376C30.2243 89.5926 42.0478 100.895 42.0478 100.895L53.6226 109.291C55.0197 110.304 55.3307 112.258 54.3174 113.656L53.6802 114.534C52.6669 115.931 50.7128 116.242 49.3156 115.229L39.4469 110.286C39.4469 110.286 18.9201 89.8257 14.0054 82.0979C5.45753 68.6575 5.8345 67.4261 4.38205 62.6445C2.95811 57.9567 5.77533 57.6393 5.77533 57.6393Z" fill="#FFCC02"/>
</g>
<mask id="mask8_37_2215" style="mask-type:luminance" maskUnits="userSpaceOnUse" x="3" y="57" width="52" height="59">
<path d="M5.77527 57.6389C5.77527 57.6389 2.95804 57.9561 4.38199 62.6441C5.83443 67.4257 5.45728 68.6571 14.0053 82.0975C18.9201 89.8253 39.4468 110.285 39.4468 110.285L49.3155 115.228C50.7125 116.242 52.6668 115.93 53.6801 114.533L54.3171 113.655C55.3305 112.258 55.0196 110.304 53.6226 109.29L42.0477 100.894C42.0477 100.894 30.2242 89.592 26.6994 85.337C20.2926 77.6021 13.5391 65.5302 11.8071 60.4112C10.9241 57.8008 9.50314 57.0959 8.14054 57.0959C7.27837 57.0959 6.43936 57.3783 5.77527 57.6389Z" fill="white"/>
</mask>
<g mask="url(#mask8_37_2215)">
<path d="M25.7139 95.7174C26.3058 90.8517 25.3945 85.9872 25.3543 81.1188C25.3429 79.731 25.4119 78.3459 25.5803 76.9682C25.6359 76.5137 25.3253 75.9161 25.017 75.6076C24.6829 75.2738 24.1352 75.0225 23.6561 75.0439C23.1583 75.0662 22.6422 75.2297 22.2953 75.6076C22.195 75.7372 22.0947 75.8672 21.9943 75.997C21.8202 76.297 21.7327 76.621 21.7316 76.9682C21.1328 81.8632 21.9985 86.7321 22.0634 91.6282C22.0816 92.9942 22.0302 94.3607 21.8651 95.7174C21.8099 96.1721 22.12 96.7693 22.4287 97.078C22.7625 97.4119 23.3102 97.6632 23.7895 97.6418C24.2872 97.6194 24.8032 97.456 25.1501 97.078C25.2505 96.9484 25.3508 96.8184 25.4511 96.6886C25.6252 96.3886 25.7129 96.0647 25.7139 95.7174Z" fill="#EFB703"/>
</g>
<mask id="mask9_37_2215" style="mask-type:luminance" maskUnits="userSpaceOnUse" x="-136" y="-120" width="297" height="298">
<path d="M-135.844 -119.255H160.977V177.565H-135.844V-119.255Z" fill="white"/>
</mask>
<g mask="url(#mask9_37_2215)">
<path d="M61.0089 156.037L58.4602 154.862L70.9118 121.58L60.1481 117.553L57.5824 124.412L53.7223 124.076C54.0564 124.304 54.4814 124.341 54.8851 124.37C55.7653 124.435 56.6454 124.499 57.5254 124.564L47.2384 152.06C47.1347 152.202 47.0429 152.355 46.9669 152.52L46.7475 152.996C46.1291 154.337 46.7205 155.94 48.0616 156.559L58.5409 161.39C59.8824 162.008 61.4854 161.417 62.1038 160.076L62.3232 159.6C62.9416 158.259 62.3499 156.655 61.0089 156.037Z" fill="#FFCC02"/>
</g>
<mask id="mask10_37_2215" style="mask-type:luminance" maskUnits="userSpaceOnUse" x="46" y="117" width="25" height="45">
<path d="M57.5824 124.412L53.7222 124.076C54.0564 124.304 54.4813 124.34 54.8851 124.37C55.7653 124.434 56.6455 124.499 57.5256 124.563L47.2384 152.06C47.1345 152.201 47.0429 152.354 46.9669 152.519L46.7475 152.995C46.1291 154.337 46.7206 155.94 48.0616 156.558L58.5412 161.389C59.8824 162.008 61.4854 161.416 62.1038 160.075L62.3233 159.599C62.9416 158.258 62.35 156.655 61.0089 156.037L58.4602 154.862L70.9117 121.58L60.1482 117.553L57.5824 124.412Z" fill="white"/>
</mask>
<g mask="url(#mask10_37_2215)">
<path d="M67.9131 121.585L55.7213 155.219L60.0501 154.861L70.9117 121.579L67.8586 120.27L67.9131 121.585Z" fill="#F2BA08"/>
</g>
<mask id="mask11_37_2215" style="mask-type:luminance" maskUnits="userSpaceOnUse" x="46" y="117" width="25" height="45">
<path d="M57.5824 124.412L53.7222 124.076C54.0564 124.304 54.4812 124.34 54.8851 124.37C55.7653 124.434 56.6454 124.499 57.5256 124.563L47.2384 152.06C47.1345 152.201 47.0429 152.354 46.9669 152.519L46.7475 152.995C46.1291 154.337 46.7205 155.94 48.0616 156.558L58.5411 161.389C59.8824 162.008 61.4854 161.416 62.1038 160.075L62.3232 159.599C62.9416 158.258 62.3499 156.655 61.0089 156.037L58.4602 154.862L70.9116 121.58L60.1481 117.553L57.5824 124.412Z" fill="white"/>
</mask>
<g mask="url(#mask11_37_2215)">
<path d="M56.1448 155.679L62.3917 159.067C62.3917 159.067 64.3616 156.706 58.4602 154.861C56.6742 154.303 55.7212 155.219 55.7212 155.219L56.1448 155.679Z" fill="#F2BA08"/>
</g>
<mask id="mask12_37_2215" style="mask-type:luminance" maskUnits="userSpaceOnUse" x="-136" y="-120" width="297" height="298">
<path d="M-135.844 -119.255H160.977V177.565H-135.844V-119.255Z" fill="white"/>
</mask>
<g mask="url(#mask12_37_2215)">
<path d="M107.572 125.154H46.7694C34.0441 125.154 23.7281 114.838 23.7281 102.113V41.3104C23.7281 28.5851 34.0441 18.2692 46.7694 18.2692H107.572C120.298 18.2692 130.613 28.5851 130.613 41.3104V102.113C130.613 114.838 120.298 125.154 107.572 125.154Z" fill="#FFCC02"/>
</g>
<mask id="mask13_37_2215" style="mask-type:luminance" maskUnits="userSpaceOnUse" x="23" y="18" width="108" height="108">
<path d="M46.7692 18.2687C34.0441 18.2687 23.728 28.5846 23.728 41.3099V102.113C23.728 114.838 34.0441 125.154 46.7692 125.154H107.572C120.297 125.154 130.613 114.838 130.613 102.113V41.3099C130.613 28.5846 120.297 18.2687 107.572 18.2687H46.7692Z" fill="white"/>
</mask>
<g mask="url(#mask13_37_2215)">
<path d="M43.6926 18.5121C43.6926 18.5121 35.2153 81.4907 41.7095 98.9966C48.2035 116.503 61.1166 124.826 61.1166 124.826L23.7281 125.154L16.2975 20.7846L43.6926 18.5121Z" fill="#EFB807"/>
</g>
<mask id="mask14_37_2215" style="mask-type:luminance" maskUnits="userSpaceOnUse" x="-136" y="-120" width="297" height="298">
<path d="M-135.844 -119.255H160.977V177.565H-135.844V-119.255Z" fill="white"/>
</mask>
<g mask="url(#mask14_37_2215)">
<path d="M84.5841 52.0761C84.5841 59.2556 78.764 65.0757 71.5845 65.0757C64.405 65.0757 58.585 59.2556 58.585 52.0761C58.585 44.8966 64.405 39.0766 71.5845 39.0766C78.764 39.0766 84.5841 44.8966 84.5841 52.0761Z" fill="#EDBF00"/>
</g>
<mask id="mask15_37_2215" style="mask-type:luminance" maskUnits="userSpaceOnUse" x="-136" y="-120" width="297" height="298">
<path d="M-135.844 -119.255H160.977V177.565H-135.844V-119.255Z" fill="white"/>
</mask>
<g mask="url(#mask15_37_2215)">
<path d="M86.8646 52.0131C86.8646 59.1231 81.1007 64.8872 73.9905 64.8872C66.8804 64.8872 61.1166 59.1231 61.1166 52.0131C61.1166 44.9029 66.8804 39.139 73.9905 39.139C81.1007 39.139 86.8646 44.9029 86.8646 52.0131Z" fill="white"/>
</g>
<mask id="mask16_37_2215" style="mask-type:luminance" maskUnits="userSpaceOnUse" x="-136" y="-120" width="297" height="298">
<path d="M-135.844 -119.255H160.977V177.565H-135.844V-119.255Z" fill="white"/>
</mask>
<g mask="url(#mask16_37_2215)">
<path d="M113.246 52.0761C113.246 59.2556 107.426 65.0757 100.246 65.0757C93.0666 65.0757 87.2465 59.2556 87.2465 52.0761C87.2465 44.8966 93.0666 39.0766 100.246 39.0766C107.426 39.0766 113.246 44.8966 113.246 52.0761Z" fill="#EDBF00"/>
</g>
<mask id="mask17_37_2215" style="mask-type:luminance" maskUnits="userSpaceOnUse" x="-136" y="-120" width="297" height="298">
<path d="M-135.844 -119.255H160.977V177.565H-135.844V-119.255Z" fill="white"/>
</mask>
<g mask="url(#mask17_37_2215)">
<path d="M113.028 51.8657C113.028 58.6223 107.55 64.0996 100.794 64.0996C94.0371 64.0996 88.56 58.6223 88.56 51.8657C88.56 45.109 94.0371 39.6317 100.794 39.6317C107.55 39.6317 113.028 45.109 113.028 51.8657Z" fill="white"/>
</g>
<mask id="mask18_37_2215" style="mask-type:luminance" maskUnits="userSpaceOnUse" x="-136" y="-120" width="297" height="298">
<path d="M-135.844 -119.255H160.977V177.565H-135.844V-119.255Z" fill="white"/>
</mask>
<g mask="url(#mask18_37_2215)">
<path d="M110.156 51.8658C110.156 55.244 107.418 57.9829 104.039 57.9829C100.661 57.9829 97.9225 55.244 97.9225 51.8658C97.9225 48.4874 100.661 45.7488 104.039 45.7488C107.418 45.7488 110.156 48.4874 110.156 51.8658Z" fill="#353535"/>
</g>
<mask id="mask19_37_2215" style="mask-type:luminance" maskUnits="userSpaceOnUse" x="-136" y="-120" width="297" height="298">
<path d="M-135.844 -119.255H160.977V177.565H-135.844V-119.255Z" fill="white"/>
</mask>
<g mask="url(#mask19_37_2215)">
<path d="M84.6968 52.0796C84.6968 55.6347 81.8149 58.5166 78.2597 58.5166C74.7046 58.5166 71.8227 55.6347 71.8227 52.0796C71.8227 48.5244 74.7046 45.6425 78.2597 45.6425C81.8149 45.6425 84.6968 48.5244 84.6968 52.0796Z" fill="#353535"/>
</g>
<mask id="mask20_37_2215" style="mask-type:luminance" maskUnits="userSpaceOnUse" x="-136" y="-120" width="297" height="298">
<path d="M-135.844 -119.255H160.977V177.565H-135.844V-119.255Z" fill="white"/>
</mask>
<g mask="url(#mask20_37_2215)">
<path d="M85.8634 25.4887C85.7371 16.8941 80.3995 10.2261 73.2517 5.97507C71.073 4.67935 69.0944 8.07518 71.2683 9.36813C77.2158 12.9052 81.8278 18.2807 81.9339 25.4887C81.9709 28.015 85.9006 28.0225 85.8634 25.4887Z" fill="#FFCC02"/>
</g>
<mask id="mask21_37_2215" style="mask-type:luminance" maskUnits="userSpaceOnUse" x="-136" y="-120" width="297" height="298">
<path d="M-135.844 -119.255H160.977V177.565H-135.844V-119.255Z" fill="white"/>
</mask>
<g mask="url(#mask21_37_2215)">
<path d="M95.4772 71.9122C94.9265 76.6364 90.6503 80.0198 85.9261 79.4691C81.2019 78.9184 77.8187 74.6422 78.3694 69.918" fill="#353535"/>
</g>
<mask id="mask22_37_2215" style="mask-type:luminance" maskUnits="userSpaceOnUse" x="-136" y="-120" width="297" height="298">
<path d="M-135.844 -119.255H160.977V177.565H-135.844V-119.255Z" fill="white"/>
</mask>
<g mask="url(#mask22_37_2215)">
<path d="M102.265 88.2714C101.148 93.8201 98.1075 95.4946 87.8741 95.4946C77.6411 95.4946 74.9302 93.8201 73.8131 88.2714L23.728 84.8561V102.113C23.728 114.838 34.0439 125.154 46.7694 125.154H107.572C120.297 125.154 130.613 114.838 130.613 102.113V84.8561L102.265 88.2714Z" fill="#FFE1C5"/>
</g>
<mask id="mask23_37_2215" style="mask-type:luminance" maskUnits="userSpaceOnUse" x="23" y="84" width="108" height="42">
<path d="M102.265 88.2709C101.148 93.8198 98.1077 95.4943 87.8744 95.4943C77.6412 95.4943 74.9302 93.8198 73.8132 88.2709L23.7281 84.8557V102.113C23.7281 114.838 34.0442 125.154 46.7694 125.154H107.572C120.297 125.154 130.613 114.838 130.613 102.113V84.8557L102.265 88.2709Z" fill="white"/>
</mask>
<g mask="url(#mask23_37_2215)">
<path d="M39.5666 86.4595C39.5666 86.4595 36.9094 120.84 51.0272 122.997L65.145 125.154L37.6153 125.961L10.6505 105.005L18.5564 84.8557L39.4229 83.9118L39.5666 86.4595Z" fill="#EFE1B9"/>
</g>
</svg>
