<svg width="20" height="17" viewBox="0 0 20 17" fill="none" xmlns="http://www.w3.org/2000/svg">
<g clip-path="url(#clip0_37_1454)">
<path d="M10.2258 0.842285C10.7204 0.845007 11.9577 0.856971 13.2723 0.909627L13.7384 0.929952C15.062 0.992618 16.3846 1.09967 17.0404 1.28256C17.9153 1.52835 18.603 2.24553 18.8354 3.15462C19.2055 4.59822 19.2519 7.4158 19.2575 8.09766L19.2584 8.23895V8.24886C19.2584 8.24886 19.2584 8.25228 19.2584 8.25886L19.2575 8.40016C19.2519 9.082 19.2055 11.8996 18.8354 13.3432C18.5998 14.2557 17.9121 14.9729 17.0404 15.2152C16.3846 15.3981 15.062 15.5051 13.7384 15.5679L13.2723 15.5881C11.9577 15.6408 10.7204 15.6528 10.2258 15.6556L10.0088 15.6562H9.99915C9.99915 15.6562 9.9959 15.6562 9.98952 15.6562L9.77267 15.6556C8.72601 15.6498 4.34973 15.6024 2.95786 15.2152C2.08295 14.9694 1.39528 14.2523 1.16283 13.3432C0.79276 11.8996 0.7465 9.082 0.740723 8.40016V8.09766C0.7465 7.4158 0.79276 4.59822 1.16283 3.15462C1.3985 2.24216 2.08617 1.52499 2.95786 1.28256C4.34973 0.895276 8.72601 0.848044 9.77267 0.842285H10.2258ZM8.14731 5.00816V11.4896L13.7029 8.24886L8.14731 5.00816Z" fill="#25292A"/>
</g>
<defs>
<clipPath id="clip0_37_1454">
<rect width="20" height="15.5556" fill="white" transform="translate(0 0.472168)"/>
</clipPath>
</defs>
</svg>
